SplineFontDB: 3.0
FontName: IsabelleTextBold
FullName: IsabelleTextBold
FamilyName: IsabelleText
Weight: Bold
Copyright: 
Version: Release 1.10
ItalicAngle: 0
UnderlinePosition: -98
UnderlineWidth: 246
Ascent: 1556
Descent: 492
LayerCount: 2
Layer: 0 1 "Back"  1
Layer: 1 1 "Fore"  0
NeedsXUIDChange: 1
XUID: [1021 906 1711068302 7174760]
FSType: 4
OS2Version: 1
OS2_WeightWidthSlopeOnly: 0
OS2_UseTypoMetrics: 1
CreationTime: 1050374980
ModificationTime: 1263330705
PfmFamily: 17
TTFWeight: 700
TTFWidth: 5
LineGap: 0
VLineGap: 0
Panose: 2 11 7 9 3 6 4 2 2 4
OS2TypoAscent: 0
OS2TypoAOffset: 1
OS2TypoDescent: 0
OS2TypoDOffset: 1
OS2TypoLinegap: 410
OS2WinAscent: 0
OS2WinAOffset: 1
OS2WinDescent: 0
OS2WinDOffset: 1
HheadAscent: 0
HheadAOffset: 1
HheadDescent: 0
HheadDOffset: 1
OS2SubXSize: 1351
OS2SubYSize: 1228
OS2SubXOff: 0
OS2SubYOff: -446
OS2SupXSize: 1351
OS2SupYSize: 1228
OS2SupXOff: 0
OS2SupYOff: 595
OS2StrikeYSize: 246
OS2StrikeYPos: 614
OS2FamilyClass: 2050
OS2Vendor: 'Bits'
OS2CodePages: 00000001.00000000
OS2UnicodeRanges: 800000af.1000204a.00000000.00000000
DEI: 91125
TtTable: prep
PUSHW_1
 640
NPUSHB
 116
 190
 254
 3
 187
 187
 3
 186
 187
 3
 185
 250
 3
 183
 250
 3
 182
 181
 71
 5
 182
 187
 3
 181
 71
 3
 180
 50
 3
 179
 150
 3
 178
 50
 3
 177
 100
 3
 176
 150
 3
 175
 174
 19
 5
 175
 107
 3
 174
 19
 3
 172
 19
 3
 171
 254
 3
 170
 169
 13
 5
 170
 250
 3
 169
 13
 3
 168
 167
 140
 5
 168
 254
 3
 168
 192
 4
 167
 166
 89
 5
 167
 140
 3
 167
 128
 4
 166
 165
 38
 5
 166
 89
 3
 166
 64
 4
 165
 38
 3
 164
 254
 3
 163
 50
 3
 162
 21
 3
 161
 160
 71
 5
 161
 254
 3
 161
PUSHW_1
 -47
NPUSHB
 255
 4
 160
 159
 65
 5
 160
 71
 3
 159
 65
 3
 158
 157
 50
 5
 158
 107
 3
 157
 50
 3
 156
 254
 3
 155
 250
 3
 154
 250
 3
 153
 254
 3
 152
 18
 3
 151
 37
 3
 150
 24
 3
 147
 254
 3
 146
 254
 3
 145
 254
 3
 144
 254
 3
 143
 101
 16
 5
 143
 125
 3
 142
 141
 20
 5
 142
 22
 3
 141
 140
 16
 5
 141
 20
 3
 140
 16
 3
 139
 102
 30
 5
 139
 50
 3

StartChar: u10000
Encoding: 65536 65536 0
Width: 1233
Flags: W
LayerCount: 2
Fore
SplineSet
104 -362 m 1,0,-1
 104 1444 l 1,1,-1
 1128 1444 l 1,2,-1
 1128 -362 l 1,3,-1
 104 -362 l 1,0,-1
219 -248 m 1,4,-1
 1014 -248 l 1,5,-1
 1014 1329 l 1,6,-1
 219 1329 l 1,7,-1
 219 -248 l 1,4,-1
EndSplineSet
EndChar

StartChar: exclam
Encoding: 33 33 4
Width: 1233
Flags: W
LayerCount: 2
Fore
SplineSet
483 283 m 1,0,-1
 750 283 l 1,1,-1
 750 0 l 1,2,-1
 483 0 l 1,3,-1
 483 283 l 1,0,-1
483 1493 m 1,4,-1
 750 1493 l 1,5,-1
 750 838 l 1,6,-1
 717 481 l 1,7,-1
 518 481 l 1,8,-1
 483 838 l 1,9,-1
 483 1493 l 1,4,-1
EndSplineSet
EndChar

StartChar: quotedbl
Encoding: 34 34 5
Width: 1233
Flags: W
LayerCount: 2
Fore
SplineSet
999 1493 m 1,0,-1
 999 938 l 1,1,-1
 743 938 l 1,2,-1
 743 1493 l 1,3,-1
 999 1493 l 1,0,-1
487 1493 m 1,4,-1
 487 938 l 1,5,-1
 231 938 l 1,6,-1
 231 1493 l 1,7,-1
 487 1493 l 1,4,-1
EndSplineSet
EndChar

StartChar: numbersign
Encoding: 35 35 6
Width: 1233
Flags: W
LayerCount: 2
Fore
SplineSet
707 1470 m 1,0,-1
 612 1096 l 1,1,-1
 815 1096 l 1,2,-1
 909 1470 l 1,3,-1
 1133 1470 l 1,4,-1
 1036 1096 l 1,5,-1
 1229 1096 l 1,6,-1
 1229 881 l 1,7,-1
 983 881 l 1,8,-1
 909 588 l 1,9,-1
 1114 588 l 1,10,-1
 1114 373 l 1,11,-1
 856 373 l 1,12,-1
 762 0 l 1,13,-1
 541 0 l 1,14,-1
 635 373 l 1,15,-1
 430 373 l 1,16,-1
 336 0 l 1,17,-1
 115 0 l 1,18,-1
 209 373 l 1,19,-1
 2 373 l 1,20,-1
 2 588 l 1,21,-1
 262 588 l 1,22,-1
 336 881 l 1,23,-1
 117 881 l 1,24,-1
 117 1096 l 1,25,-1
 391 1096 l 1,26,-1
 485 1470 l 1,27,-1
 707 1470 l 1,0,-1
762 881 m 1,28,-1
 557 881 l 1,29,-1
 483 588 l 1,30,-1
 688 588 l 1,31,-1
 762 881 l 1,28,-1
EndSplineSet
EndChar

StartChar: dollar
Encoding: 36 36 7
Width: 1233
Flags: W
LayerCount: 2
Fore
SplineSet
694 528 m 1,0,-1
 694 226 l 1,1,2
 757 235 757 235 792 274.5 c 128,-1,3
 827 314 827 314 827 375 c 0,4,5
 827 437 827 437 792.5 476.5 c 128,-1,6
 758 516 758 516 694 528 c 1,0,-1
553 817 m 1,7,-1
 553 1100 l 1,8,9
 491 1092 491 1092 459.5 1058.5 c 128,-1,10
 428 1025 428 1025 428 967 c 0,11,12
 428 910 428 910 459.5 872 c 128,-1,13
 491 834 491 834 553 817 c 1,7,-1
694 -301 m 1,14,-1
 553 -301 l 1,15,-1
 552 0 l 1,16,17
 465 3 465 3 370 26 c 128,-1,18
 275 49 275 49 172 92 c 1,19,-1
 172 354 l 1,20,21
 275 293 275 293 371.5 260 c 128,-1,22
 468 227 468 227 553 226 c 1,23,-1
 553 555 l 1,24,25
 356 594 356 594 260 689.5 c 128,-1,26
 164 785 164 785 164 942 c 0,27,28
 164 1109 164 1109 266 1208 c 128,-1,29
 368 1307 368 1307 553 1319 c 1,30,-1
 553 1556 l 1,31,-1
 694 1556 l 1,32,-1
 695 1319 l 1,33,34
 766 1315 766 1315 842.5 1301 c 128,-1,35
 919 1287 919 1287 999 1262 c 1,36,-1
 999 1006 l 1,37,38
 937 1046 937 1046 861 1070 c 128,-1,39
 785 1094 785 1094 694 1100 c 1,40,-1
 694 793 l 1,41,42
 891 762 891 762 991.5 658.5 c 128,-1,43
 1092 555 1092 555 1092 383 c 0,44,45
 1092 219 1092 219 983.5 114 c 128,-1,46
 875 9 875 9 695 0 c 1,47,-1
 694 -301 l 1,14,-1
EndSplineSet
EndChar

StartChar: percent
Encoding: 37 37 8
Width: 1233
Flags: W
LayerCount: 2
Fore
SplineSet
33 1112 m 256,0,1
 33 1246 33 1246 126 1339 c 128,-1,2
 219 1432 219 1432 352 1432 c 256,3,4
 485 1432 485 1432 578.5 1338.5 c 128,-1,5
 672 1245 672 1245 672 1112 c 256,6,7
 672 979 672 979 578.5 886 c 128,-1,8
 485 793 485 793 352 793 c 256,9,10
 219 793 219 793 126 885.5 c 128,-1,11
 33 978 33 978 33 1112 c 256,0,1
352 1249 m 256,12,13
 295 1249 295 1249 255 1209.5 c 128,-1,14
 215 1170 215 1170 215 1112 c 256,15,16
 215 1054 215 1054 255 1014.5 c 128,-1,17
 295 975 295 975 352 975 c 0,18,19
 410 975 410 975 449.5 1014.5 c 128,-1,20
 489 1054 489 1054 489 1112 c 0,21,22
 489 1169 489 1169 449 1209 c 128,-1,23
 409 1249 409 1249 352 1249 c 256,12,13
86 561 m 1,24,-1
 1128 979 l 1,25,-1
 1169 883 l 1,26,-1
 121 465 l 1,27,-1
 86 561 l 1,24,-1
580 319 m 256,28,29
 580 453 580 453 672.5 546 c 128,-1,30
 765 639 765 639 899 639 c 0,31,32
 1031 639 1031 639 1125 545.5 c 128,-1,33
 1219 452 1219 452 1219 319 c 0,34,35
 1219 187 1219 187 1125 93.5 c 128,-1,36
 1031 0 1031 0 899 0 c 0,37,38
 765 0 765 0 672.5 92.5 c 128,-1,39
 580 185 580 185 580 319 c 256,28,29
897 457 m 0,40,41
 841 457 841 457 801.5 417 c 128,-1,42
 762 377 762 377 762 319 c 256,43,44
 762 261 762 261 801 221.5 c 128,-1,45
 840 182 840 182 897 182 c 0,46,47
 955 182 955 182 995.5 222 c 128,-1,48
 1036 262 1036 262 1036 319 c 256,49,50
 1036 376 1036 376 995 416.5 c 128,-1,51
 954 457 954 457 897 457 c 0,40,41
EndSplineSet
EndChar

StartChar: ampersand
Encoding: 38 38 9
Width: 1233
Flags: W
LayerCount: 2
Fore
SplineSet
870 72 m 1,0,1
 795 22 795 22 710.5 -3.5 c 128,-1,2
 626 -29 626 -29 539 -29 c 0,3,4
 315 -29 315 -29 176 102 c 128,-1,5
 37 233 37 233 37 442 c 0,6,7
 37 587 37 587 107.5 706 c 128,-1,8
 178 825 178 825 317 913 c 1,9,10
 267 991 267 991 243 1057.5 c 128,-1,11
 219 1124 219 1124 219 1184 c 0,12,13
 219 1346 219 1346 328 1433 c 128,-1,14
 437 1520 437 1520 643 1520 c 0,15,16
 716 1520 716 1520 786 1509 c 128,-1,17
 856 1498 856 1498 924 1477 c 1,18,-1
 924 1221 l 1,19,20
 860 1257 860 1257 794.5 1275.5 c 128,-1,21
 729 1294 729 1294 664 1294 c 0,22,23
 584 1294 584 1294 543 1266 c 128,-1,24
 502 1238 502 1238 502 1184 c 0,25,26
 502 1148 502 1148 532.5 1085 c 128,-1,27
 563 1022 563 1022 631 920 c 1,28,-1
 944 440 l 1,29,30
 965 478 965 478 976 527 c 128,-1,31
 987 576 987 576 987 633 c 0,32,33
 987 663 987 663 985 691.5 c 128,-1,34
 983 720 983 720 979 745 c 1,35,-1
 1214 745 l 1,36,-1
 1214 694 l 2,37,38
 1214 549 1214 549 1180 440.5 c 128,-1,39
 1146 332 1146 332 1073 246 c 1,40,-1
 1235 0 l 1,41,-1
 918 0 l 1,42,-1
 870 72 l 1,0,1
440 731 m 1,43,44
 374 688 374 688 340.5 628.5 c 128,-1,45
 307 569 307 569 307 496 c 0,46,47
 307 374 307 374 385.5 290.5 c 128,-1,48
 464 207 464 207 578 207 c 0,49,50
 606 207 606 207 635.5 213.5 c 128,-1,51
 665 220 665 220 693 232 c 0,52,53
 695 233 695 233 701 236 c 0,54,55
 730 250 730 250 748 262 c 1,56,-1
 440 731 l 1,43,44
EndSplineSet
EndChar

StartChar: quotesingle
Encoding: 39 39 10
Width: 1233
Flags: W
LayerCount: 2
Fore
SplineSet
743 1493 m 1,0,-1
 743 938 l 1,1,-1
 487 938 l 1,2,-1
 487 1493 l 1,3,-1
 743 1493 l 1,0,-1
EndSplineSet
EndChar

StartChar: parenleft
Encoding: 40 40 11
Width: 1233
Flags: W
LayerCount: 2
Fore
SplineSet
924 1554 m 1,0,1
 792 1315 792 1315 728 1091 c 128,-1,2
 664 867 664 867 664 643 c 0,3,4
 664 421 664 421 728 195.5 c 128,-1,5
 792 -30 792 -30 924 -270 c 1,6,-1
 696 -270 l 1,7,8
 537 -39 537 -39 460 185.5 c 128,-1,9
 383 410 383 410 383 643 c 0,10,11
 383 875 383 875 460.5 1100.5 c 128,-1,12
 538 1326 538 1326 696 1554 c 1,13,-1
 924 1554 l 1,0,1
EndSplineSet
EndChar

StartChar: parenright
Encoding: 41 41 12
Width: 1233
Flags: W
LayerCount: 2
Fore
SplineSet
309 1554 m 1,0,-1
 537 1554 l 1,1,2
 695 1326 695 1326 772.5 1100.5 c 128,-1,3
 850 875 850 875 850 643 c 0,4,5
 850 410 850 410 773 185.5 c 128,-1,6
 696 -39 696 -39 537 -270 c 1,7,-1
 309 -270 l 1,8,9
 441 -30 441 -30 505 195.5 c 128,-1,10
 569 421 569 421 569 643 c 0,11,12
 569 867 569 867 505 1091 c 128,-1,13
 441 1315 441 1315 309 1554 c 1,0,-1
EndSplineSet
EndChar

StartChar: asterisk
Encoding: 42 42 13
Width: 1233
Flags: W
LayerCount: 2
Fore
SplineSet
1108 1217 m 1,0,-1
 778 1044 l 1,1,-1
 1108 870 l 1,2,-1
 1032 729 l 1,3,-1
 700 913 l 1,4,-1
 700 569 l 1,5,-1
 528 569 l 1,6,-1
 528 913 l 1,7,-1
 197 729 l 1,8,-1
 121 870 l 1,9,-1
 453 1044 l 1,10,-1
 121 1217 l 1,11,-1
 197 1358 l 1,12,-1
 528 1176 l 1,13,-1
 528 1520 l 1,14,-1
 700 1520 l 1,15,-1
 700 1176 l 1,16,-1
 1032 1358 l 1,17,-1
 1108 1217 l 1,0,-1
EndSplineSet
EndChar

StartChar: plus
Encoding: 43 43 14
Width: 1233
Flags: W
LayerCount: 2
Fore
SplineSet
735 1192 m 1,0,-1
 735 762 l 1,1,-1
 1165 762 l 1,2,-1
 1165 524 l 1,3,-1
 735 524 l 1,4,-1
 735 92 l 1,5,-1
 498 92 l 1,6,-1
 498 524 l 1,7,-1
 66 524 l 1,8,-1
 66 762 l 1,9,-1
 498 762 l 1,10,-1
 498 1192 l 1,11,-1
 735 1192 l 1,0,-1
EndSplineSet
EndChar

StartChar: comma
Encoding: 44 44 15
Width: 1233
Flags: W
LayerCount: 2
Fore
SplineSet
461 367 m 1,0,-1
 774 367 l 1,1,-1
 774 96 l 1,2,-1
 578 -287 l 1,3,-1
 362 -287 l 1,4,-1
 461 96 l 1,5,-1
 461 367 l 1,0,-1
EndSplineSet
EndChar

StartChar: hyphen
Encoding: 45 45 16
Width: 1233
Flags: W
LayerCount: 2
Fore
SplineSet
301 735 m 1,0,-1
 932 735 l 1,1,-1
 932 444 l 1,2,-1
 301 444 l 1,3,-1
 301 735 l 1,0,-1
EndSplineSet
EndChar

StartChar: period
Encoding: 46 46 17
Width: 1233
Flags: W
LayerCount: 2
Fore
SplineSet
449 367 m 1,0,-1
 782 367 l 1,1,-1
 782 0 l 1,2,-1
 449 0 l 1,3,-1
 449 367 l 1,0,-1
EndSplineSet
EndChar

StartChar: slash
Encoding: 47 47 18
Width: 1233
Flags: W
LayerCount: 2
Fore
SplineSet
899 1493 m 1,0,-1
 1120 1493 l 1,1,-1
 334 -190 l 1,2,-1
 113 -190 l 1,3,-1
 899 1493 l 1,0,-1
EndSplineSet
EndChar

StartChar: zero
Encoding: 48 48 19
Width: 1233
Flags: W
LayerCount: 2
Fore
SplineSet
492 745 m 256,0,1
 492 798 492 798 528 834 c 128,-1,2
 564 870 564 870 616 870 c 0,3,4
 669 870 669 870 705 834 c 128,-1,5
 741 798 741 798 741 745 c 0,6,7
 741 693 741 693 705 657 c 128,-1,8
 669 621 669 621 616 621 c 0,9,10
 564 621 564 621 528 656.5 c 128,-1,11
 492 692 492 692 492 745 c 256,0,1
616 1270 m 0,12,13
 514 1270 514 1270 467 1145 c 128,-1,14
 420 1020 420 1020 420 745 c 0,15,16
 420 471 420 471 467 346 c 128,-1,17
 514 221 514 221 616 221 c 0,18,19
 719 221 719 221 766 346 c 128,-1,20
 813 471 813 471 813 745 c 0,21,22
 813 1020 813 1020 766 1145 c 128,-1,23
 719 1270 719 1270 616 1270 c 0,12,13
123 745 m 0,24,25
 123 1133 123 1133 246 1326.5 c 128,-1,26
 369 1520 369 1520 616 1520 c 0,27,28
 864 1520 864 1520 987 1327 c 128,-1,29
 1110 1134 1110 1134 1110 745 c 0,30,31
 1110 357 1110 357 987 164 c 128,-1,32
 864 -29 864 -29 616 -29 c 0,33,34
 369 -29 369 -29 246 164.5 c 128,-1,35
 123 358 123 358 123 745 c 0,24,25
EndSplineSet
EndChar

StartChar: one
Encoding: 49 49 20
Width: 1233
Flags: W
LayerCount: 2
Fore
SplineSet
188 260 m 1,0,-1
 518 260 l 1,1,-1
 518 1229 l 1,2,-1
 211 1153 l 1,3,-1
 211 1419 l 1,4,-1
 520 1493 l 1,5,-1
 805 1493 l 1,6,-1
 805 260 l 1,7,-1
 1135 260 l 1,8,-1
 1135 0 l 1,9,-1
 188 0 l 1,10,-1
 188 260 l 1,0,-1
EndSplineSet
EndChar

StartChar: two
Encoding: 50 50 21
Width: 1233
Flags: W
LayerCount: 2
Fore
SplineSet
434 260 m 1,0,-1
 1063 260 l 1,1,-1
 1063 0 l 1,2,-1
 115 0 l 1,3,-1
 115 252 l 1,4,-1
 275 422 l 2,5,6
 560 725 560 725 621 795 c 0,7,8
 696 881 696 881 729 947.5 c 128,-1,9
 762 1014 762 1014 762 1079 c 0,10,11
 762 1179 762 1179 701.5 1233.5 c 128,-1,12
 641 1288 641 1288 530 1288 c 0,13,14
 451 1288 451 1288 352.5 1256.5 c 128,-1,15
 254 1225 254 1225 147 1165 c 1,16,-1
 147 1440 l 1,17,18
 254 1479 254 1479 356.5 1499.5 c 128,-1,19
 459 1520 459 1520 553 1520 c 0,20,21
 790 1520 790 1520 925.5 1409.5 c 128,-1,22
 1061 1299 1061 1299 1061 1108 c 0,23,24
 1061 1020 1061 1020 1031.5 943 c 128,-1,25
 1002 866 1002 866 930 772 c 0,26,27
 877 704 877 704 639 466 c 0,28,29
 510 337 510 337 434 260 c 1,0,-1
EndSplineSet
EndChar

StartChar: three
Encoding: 51 51 22
Width: 1233
Flags: W
LayerCount: 2
Fore
SplineSet
549 668 m 2,0,-1
 391 668 l 1,1,-1
 391 928 l 1,2,-1
 549 928 l 2,3,4
 659 928 659 928 719.5 971.5 c 128,-1,5
 780 1015 780 1015 780 1094 c 0,6,7
 780 1177 780 1177 719.5 1223.5 c 128,-1,8
 659 1270 659 1270 549 1270 c 0,9,10
 465 1270 465 1270 369 1249 c 128,-1,11
 273 1228 273 1228 170 1188 c 1,12,-1
 170 1456 l 1,13,14
 273 1487 273 1487 373 1503.5 c 128,-1,15
 473 1520 473 1520 565 1520 c 0,16,17
 801 1520 801 1520 933 1417 c 128,-1,18
 1065 1314 1065 1314 1065 1133 c 0,19,20
 1065 1000 1065 1000 989 915.5 c 128,-1,21
 913 831 913 831 772 805 c 1,22,23
 932 777 932 777 1016 677.5 c 128,-1,24
 1100 578 1100 578 1100 416 c 0,25,26
 1100 199 1100 199 961 85 c 128,-1,27
 822 -29 822 -29 557 -29 c 0,28,29
 444 -29 444 -29 334.5 -10 c 128,-1,30
 225 9 225 9 125 45 c 1,31,-1
 125 319 l 1,32,33
 219 272 219 272 328 247.5 c 128,-1,34
 437 223 437 223 557 223 c 256,35,36
 677 223 677 223 747 278.5 c 128,-1,37
 817 334 817 334 817 428 c 0,38,39
 817 543 817 543 747 605.5 c 128,-1,40
 677 668 677 668 549 668 c 2,0,-1
EndSplineSet
EndChar

StartChar: four
Encoding: 52 52 23
Width: 1233
Flags: W
LayerCount: 2
Fore
SplineSet
694 1165 m 1,0,-1
 317 575 l 1,1,-1
 694 575 l 1,2,-1
 694 1165 l 1,0,-1
668 1493 m 1,3,-1
 977 1493 l 1,4,-1
 977 575 l 1,5,-1
 1141 575 l 1,6,-1
 1141 322 l 1,7,-1
 977 322 l 1,8,-1
 977 0 l 1,9,-1
 694 0 l 1,10,-1
 694 322 l 1,11,-1
 102 322 l 1,12,-1
 102 608 l 1,13,-1
 668 1493 l 1,3,-1
EndSplineSet
EndChar

StartChar: five
Encoding: 53 53 24
Width: 1233
Flags: W
LayerCount: 2
Fore
SplineSet
193 1493 m 1,0,-1
 1004 1493 l 1,1,-1
 1004 1233 l 1,2,-1
 432 1233 l 1,3,-1
 432 956 l 1,4,5
 468 970 468 970 509 976.5 c 128,-1,6
 550 983 550 983 596 983 c 0,7,8
 818 983 818 983 956 843 c 128,-1,9
 1094 703 1094 703 1094 479 c 0,10,11
 1094 244 1094 244 944.5 107.5 c 128,-1,12
 795 -29 795 -29 537 -29 c 0,13,14
 441 -29 441 -29 343 -13 c 128,-1,15
 245 3 245 3 143 35 c 1,16,-1
 143 301 l 1,17,18
 226 260 226 260 313.5 239.5 c 128,-1,19
 401 219 401 219 489 219 c 0,20,21
 645 219 645 219 726 285.5 c 128,-1,22
 807 352 807 352 807 479 c 0,23,24
 807 596 807 596 726.5 666.5 c 128,-1,25
 646 737 646 737 512 737 c 0,26,27
 433 737 433 737 353.5 717.5 c 128,-1,28
 274 698 274 698 193 659 c 1,29,-1
 193 1493 l 1,0,-1
EndSplineSet
EndChar

StartChar: six
Encoding: 54 54 25
Width: 1233
Flags: W
LayerCount: 2
Fore
SplineSet
643 748 m 256,0,1
 547 748 547 748 496.5 678.5 c 128,-1,2
 446 609 446 609 446 477 c 0,3,4
 446 346 446 346 496.5 276.5 c 128,-1,5
 547 207 547 207 643 207 c 256,6,7
 739 207 739 207 790.5 276.5 c 128,-1,8
 842 346 842 346 842 477 c 256,9,10
 842 608 842 608 790.5 678 c 128,-1,11
 739 748 739 748 643 748 c 256,0,1
1030 1458 m 1,12,-1
 1030 1190 l 1,13,14
 951 1235 951 1235 878.5 1257.5 c 128,-1,15
 806 1280 806 1280 739 1280 c 0,16,17
 579 1280 579 1280 495.5 1172.5 c 128,-1,18
 412 1065 412 1065 408 855 c 1,19,20
 455 920 455 920 528 952.5 c 128,-1,21
 601 985 601 985 700 985 c 0,22,23
 902 985 902 985 1012 857.5 c 128,-1,24
 1122 730 1122 730 1122 496 c 0,25,26
 1122 245 1122 245 998.5 107 c 128,-1,27
 875 -31 875 -31 651 -31 c 0,28,29
 378 -31 378 -31 254.5 152 c 128,-1,30
 131 335 131 335 131 743 c 0,31,32
 131 1131 131 1131 282 1324.5 c 128,-1,33
 433 1518 433 1518 735 1518 c 0,34,35
 805 1518 805 1518 879.5 1503 c 128,-1,36
 954 1488 954 1488 1030 1458 c 1,12,-1
EndSplineSet
EndChar

StartChar: seven
Encoding: 55 55 26
Width: 1233
Flags: W
LayerCount: 2
Fore
SplineSet
135 1493 m 1,0,-1
 1079 1493 l 1,1,-1
 1079 1284 l 1,2,-1
 573 0 l 1,3,-1
 272 0 l 1,4,-1
 758 1233 l 1,5,-1
 135 1233 l 1,6,-1
 135 1493 l 1,0,-1
EndSplineSet
EndChar

StartChar: eight
Encoding: 56 56 27
Width: 1233
Flags: W
LayerCount: 2
Fore
SplineSet
616 666 m 0,0,1
 517 666 517 666 456 603.5 c 128,-1,2
 395 541 395 541 395 438 c 256,3,4
 395 335 395 335 456 272 c 128,-1,5
 517 209 517 209 616 209 c 256,6,7
 715 209 715 209 776.5 273 c 128,-1,8
 838 337 838 337 838 438 c 0,9,10
 838 541 838 541 777 603.5 c 128,-1,11
 716 666 716 666 616 666 c 0,0,1
397 791 m 1,12,13
 284 830 284 830 225 913.5 c 128,-1,14
 166 997 166 997 166 1118 c 0,15,16
 166 1304 166 1304 287 1412 c 128,-1,17
 408 1520 408 1520 616 1520 c 0,18,19
 825 1520 825 1520 946 1412 c 128,-1,20
 1067 1304 1067 1304 1067 1118 c 0,21,22
 1067 998 1067 998 1009 914.5 c 128,-1,23
 951 831 951 831 840 791 c 1,24,25
 964 753 964 753 1034 655 c 128,-1,26
 1104 557 1104 557 1104 420 c 0,27,28
 1104 205 1104 205 977 88 c 128,-1,29
 850 -29 850 -29 616 -29 c 0,30,31
 383 -29 383 -29 256 88 c 128,-1,32
 129 205 129 205 129 420 c 0,33,34
 129 558 129 558 200 656 c 128,-1,35
 271 754 271 754 397 791 c 1,12,13
428 1094 m 0,36,37
 428 1006 428 1006 478.5 954.5 c 128,-1,38
 529 903 529 903 616 903 c 0,39,40
 704 903 704 903 754.5 954.5 c 128,-1,41
 805 1006 805 1006 805 1094 c 0,42,43
 805 1181 805 1181 754.5 1231.5 c 128,-1,44
 704 1282 704 1282 616 1282 c 0,45,46
 530 1282 530 1282 479 1231 c 128,-1,47
 428 1180 428 1180 428 1094 c 0,36,37
EndSplineSet
EndChar

StartChar: nine
Encoding: 57 57 28
Width: 1233
Flags: W
LayerCount: 2
Fore
SplineSet
203 20 m 1,0,-1
 203 289 l 1,1,2
 282 243 282 243 354.5 221 c 128,-1,3
 427 199 427 199 494 199 c 0,4,5
 653 199 653 199 736.5 305.5 c 128,-1,6
 820 412 820 412 825 624 c 1,7,8
 778 559 778 559 705 526.5 c 128,-1,9
 632 494 632 494 532 494 c 0,10,11
 331 494 331 494 221 621.5 c 128,-1,12
 111 749 111 749 111 983 c 0,13,14
 111 1233 111 1233 234 1370 c 128,-1,15
 357 1507 357 1507 582 1507 c 0,16,17
 855 1507 855 1507 978.5 1324.5 c 128,-1,18
 1102 1142 1102 1142 1102 735 c 0,19,20
 1102 348 1102 348 951 154.5 c 128,-1,21
 800 -39 800 -39 498 -39 c 0,22,23
 428 -39 428 -39 353.5 -24 c 128,-1,24
 279 -9 279 -9 203 20 c 1,0,-1
590 741 m 0,25,26
 685 741 685 741 735.5 810.5 c 128,-1,27
 786 880 786 880 786 1012 c 0,28,29
 786 1143 786 1143 735.5 1212.5 c 128,-1,30
 685 1282 685 1282 590 1282 c 0,31,32
 494 1282 494 1282 442.5 1212.5 c 128,-1,33
 391 1143 391 1143 391 1012 c 256,34,35
 391 881 391 881 442.5 811 c 128,-1,36
 494 741 494 741 590 741 c 0,25,26
EndSplineSet
EndChar

StartChar: colon
Encoding: 58 58 29
Width: 1233
Flags: W
LayerCount: 2
Fore
SplineSet
449 1063 m 1,0,-1
 782 1063 l 1,1,-1
 782 698 l 1,2,-1
 449 698 l 1,3,-1
 449 1063 l 1,0,-1
449 367 m 1,4,-1
 782 367 l 1,5,-1
 782 0 l 1,6,-1
 449 0 l 1,7,-1
 449 367 l 1,4,-1
EndSplineSet
EndChar

StartChar: semicolon
Encoding: 59 59 30
Width: 1233
Flags: W
LayerCount: 2
Fore
SplineSet
449 367 m 1,0,-1
 782 367 l 1,1,-1
 782 96 l 1,2,-1
 586 -287 l 1,3,-1
 371 -287 l 1,4,-1
 449 96 l 1,5,-1
 449 367 l 1,0,-1
449 1063 m 1,6,-1
 782 1063 l 1,7,-1
 782 698 l 1,8,-1
 449 698 l 1,9,-1
 449 1063 l 1,6,-1
EndSplineSet
EndChar

StartChar: less
Encoding: 60 60 31
Width: 1233
Flags: W
LayerCount: 2
Fore
SplineSet
1145 926 m 1,0,-1
 350 641 l 1,1,-1
 1145 358 l 1,2,-1
 1145 109 l 1,3,-1
 88 524 l 1,4,-1
 88 760 l 1,5,-1
 1145 1176 l 1,6,-1
 1145 926 l 1,0,-1
EndSplineSet
EndChar

StartChar: equal
Encoding: 61 61 32
Width: 1233
Flags: W
LayerCount: 2
Fore
SplineSet
88 532 m 1,0,-1
 1145 532 l 1,1,-1
 1145 295 l 1,2,-1
 88 295 l 1,3,-1
 88 532 l 1,0,-1
88 987 m 1,4,-1
 1145 987 l 1,5,-1
 1145 752 l 1,6,-1
 88 752 l 1,7,-1
 88 987 l 1,4,-1
EndSplineSet
EndChar

StartChar: greater
Encoding: 62 62 33
Width: 1233
Flags: W
LayerCount: 2
Fore
SplineSet
88 926 m 1,0,-1
 88 1176 l 1,1,-1
 1145 760 l 1,2,-1
 1145 524 l 1,3,-1
 88 109 l 1,4,-1
 88 358 l 1,5,-1
 883 641 l 1,6,-1
 88 926 l 1,0,-1
EndSplineSet
EndChar

StartChar: question
Encoding: 63 63 34
Width: 1233
Flags: W
LayerCount: 2
Fore
SplineSet
440 283 m 1,0,-1
 707 283 l 1,1,-1
 707 0 l 1,2,-1
 440 0 l 1,3,-1
 440 283 l 1,0,-1
707 401 m 1,4,-1
 440 401 l 1,5,-1
 440 555 l 2,6,7
 440 654 440 654 471 724 c 128,-1,8
 502 794 502 794 582 872 c 2,9,-1
 672 961 l 2,10,11
 735 1022 735 1022 757.5 1062 c 128,-1,12
 780 1102 780 1102 780 1145 c 0,13,14
 780 1212 780 1212 734 1246 c 128,-1,15
 688 1280 688 1280 596 1280 c 0,16,17
 512 1280 512 1280 420.5 1244.5 c 128,-1,18
 329 1209 329 1209 233 1139 c 1,19,-1
 233 1407 l 1,20,21
 331 1463 331 1463 431.5 1491.5 c 128,-1,22
 532 1520 532 1520 633 1520 c 0,23,24
 835 1520 835 1520 950 1426 c 128,-1,25
 1065 1332 1065 1332 1065 1167 c 0,26,27
 1065 1091 1065 1091 1031 1025.5 c 128,-1,28
 997 960 997 960 903 868 c 2,29,-1
 815 782 l 2,30,31
 747 716 747 716 728 674 c 128,-1,32
 709 632 709 632 709 571 c 0,33,34
 709 562 709 562 708.5 550 c 128,-1,35
 708 538 708 538 707 524 c 1,36,-1
 707 401 l 1,4,-1
EndSplineSet
EndChar

StartChar: at
Encoding: 64 64 35
Width: 1233
Flags: W
LayerCount: 2
Fore
SplineSet
973 545 m 0,0,1
 973 658 973 658 922 722 c 128,-1,2
 871 786 871 786 782 786 c 256,3,4
 693 786 693 786 642.5 722 c 128,-1,5
 592 658 592 658 592 545 c 0,6,7
 592 431 592 431 642.5 367 c 128,-1,8
 693 303 693 303 782 303 c 256,9,10
 871 303 871 303 922 367 c 128,-1,11
 973 431 973 431 973 545 c 0,0,1
1159 135 m 1,12,-1
 963 135 l 1,13,-1
 963 217 l 1,14,15
 925 164 925 164 873.5 139.5 c 128,-1,16
 822 115 822 115 750 115 c 0,17,18
 586 115 586 115 485.5 233 c 128,-1,19
 385 351 385 351 385 545 c 0,20,21
 385 738 385 738 485 855.5 c 128,-1,22
 585 973 585 973 750 973 c 0,23,24
 821 973 821 973 875 948.5 c 128,-1,25
 929 924 929 924 963 877 c 1,26,-1
 963 918 l 2,27,28
 963 1054 963 1054 888.5 1128 c 128,-1,29
 814 1202 814 1202 676 1202 c 0,30,31
 468 1202 468 1202 336.5 1019 c 128,-1,32
 205 836 205 836 205 543 c 0,33,34
 205 236 205 236 357 54.5 c 128,-1,35
 509 -127 509 -127 762 -127 c 0,36,37
 842 -127 842 -127 917 -103.5 c 128,-1,38
 992 -80 992 -80 1061 -33 c 1,39,-1
 1153 -209 l 1,40,41
 1072 -264 1072 -264 976.5 -291.5 c 128,-1,42
 881 -319 881 -319 772 -319 c 0,43,44
 422 -319 422 -319 214 -86 c 128,-1,45
 6 147 6 147 6 543 c 0,46,47
 6 930 6 930 193 1162.5 c 128,-1,48
 380 1395 380 1395 688 1395 c 0,49,50
 906 1395 906 1395 1032.5 1263.5 c 128,-1,51
 1159 1132 1159 1132 1159 905 c 2,52,-1
 1159 135 l 1,12,-1
EndSplineSet
EndChar

StartChar: A
Encoding: 65 65 36
Width: 1233
Flags: W
LayerCount: 2
Fore
SplineSet
616 1223 m 1,0,-1
 477 612 l 1,1,-1
 756 612 l 1,2,-1
 616 1223 l 1,0,-1
436 1493 m 1,3,-1
 797 1493 l 1,4,-1
 1200 0 l 1,5,-1
 905 0 l 1,6,-1
 813 369 l 1,7,-1
 418 369 l 1,8,-1
 328 0 l 1,9,-1
 33 0 l 1,10,-1
 436 1493 l 1,3,-1
EndSplineSet
EndChar

StartChar: B
Encoding: 66 66 37
Width: 1233
Flags: W
LayerCount: 2
Fore
SplineSet
410 678 m 1,0,-1
 410 236 l 1,1,-1
 606 236 l 2,2,3
 747 236 747 236 803.5 284 c 128,-1,4
 860 332 860 332 860 451 c 0,5,6
 860 572 860 572 801 625 c 128,-1,7
 742 678 742 678 606 678 c 2,8,-1
 410 678 l 1,0,-1
410 1260 m 1,9,-1
 410 913 l 1,10,-1
 606 913 l 2,11,12
 718 913 718 913 765.5 953 c 128,-1,13
 813 993 813 993 813 1085 c 256,14,15
 813 1177 813 1177 764.5 1218.5 c 128,-1,16
 716 1260 716 1260 606 1260 c 2,17,-1
 410 1260 l 1,9,-1
125 1495 m 1,18,-1
 606 1495 l 2,19,20
 855 1495 855 1495 980.5 1400.5 c 128,-1,21
 1106 1306 1106 1306 1106 1118 c 0,22,23
 1106 974 1106 974 1032 893 c 128,-1,24
 958 812 958 812 815 799 c 1,25,26
 986 782 986 782 1072.5 684 c 128,-1,27
 1159 586 1159 586 1159 410 c 0,28,29
 1159 194 1159 194 1029 97 c 128,-1,30
 899 0 899 0 606 0 c 2,31,-1
 125 0 l 1,32,-1
 125 1495 l 1,18,-1
EndSplineSet
EndChar

StartChar: C
Encoding: 67 67 38
Width: 1233
Flags: W
LayerCount: 2
Fore
SplineSet
1081 43 m 1,0,1
 1011 7 1011 7 934 -11 c 128,-1,2
 857 -29 857 -29 772 -29 c 0,3,4
 470 -29 470 -29 311 170 c 128,-1,5
 152 369 152 369 152 745 c 0,6,7
 152 1122 152 1122 311 1321 c 128,-1,8
 470 1520 470 1520 772 1520 c 0,9,10
 857 1520 857 1520 935 1502 c 128,-1,11
 1013 1484 1013 1484 1081 1448 c 1,12,-1
 1081 1120 l 1,13,14
 1005 1190 1005 1190 933.5 1222.5 c 128,-1,15
 862 1255 862 1255 786 1255 c 0,16,17
 624 1255 624 1255 541.5 1126.5 c 128,-1,18
 459 998 459 998 459 745 c 0,19,20
 459 493 459 493 541.5 364.5 c 128,-1,21
 624 236 624 236 786 236 c 0,22,23
 862 236 862 236 933.5 268.5 c 128,-1,24
 1005 301 1005 301 1081 371 c 1,25,-1
 1081 43 l 1,0,1
EndSplineSet
EndChar

StartChar: D
Encoding: 68 68 39
Width: 1233
Flags: W
LayerCount: 2
Fore
SplineSet
432 1227 m 1,0,-1
 432 266 l 1,1,-1
 512 266 l 2,2,3
 686 266 686 266 760 375.5 c 128,-1,4
 834 485 834 485 834 748 c 0,5,6
 834 1009 834 1009 760 1118 c 128,-1,7
 686 1227 686 1227 512 1227 c 2,8,-1
 432 1227 l 1,0,-1
137 1493 m 1,9,-1
 453 1493 l 2,10,11
 819 1493 819 1493 980 1318.5 c 128,-1,12
 1141 1144 1141 1144 1141 748 c 0,13,14
 1141 351 1141 351 980 175.5 c 128,-1,15
 819 0 819 0 453 0 c 2,16,-1
 137 0 l 1,17,-1
 137 1493 l 1,9,-1
EndSplineSet
EndChar

StartChar: E
Encoding: 69 69 40
Width: 1233
Flags: W
LayerCount: 2
Fore
SplineSet
1098 0 m 1,0,-1
 168 0 l 1,1,-1
 168 1493 l 1,2,-1
 1098 1493 l 1,3,-1
 1098 1233 l 1,4,-1
 463 1233 l 1,5,-1
 463 911 l 1,6,-1
 1038 911 l 1,7,-1
 1038 651 l 1,8,-1
 463 651 l 1,9,-1
 463 260 l 1,10,-1
 1098 260 l 1,11,-1
 1098 0 l 1,0,-1
EndSplineSet
EndChar

StartChar: F
Encoding: 70 70 41
Width: 1233
Flags: W
LayerCount: 2
Fore
SplineSet
1112 1233 m 1,0,-1
 477 1233 l 1,1,-1
 477 911 l 1,2,-1
 1055 911 l 1,3,-1
 1055 651 l 1,4,-1
 477 651 l 1,5,-1
 477 0 l 1,6,-1
 182 0 l 1,7,-1
 182 1493 l 1,8,-1
 1112 1493 l 1,9,-1
 1112 1233 l 1,0,-1
EndSplineSet
EndChar

StartChar: G
Encoding: 71 71 42
Width: 1233
Flags: W
LayerCount: 2
Fore
SplineSet
872 270 m 1,0,-1
 872 555 l 1,1,-1
 670 555 l 1,2,-1
 670 803 l 1,3,-1
 1130 803 l 1,4,-1
 1130 119 l 1,5,6
 1045 46 1045 46 942.5 8.5 c 128,-1,7
 840 -29 840 -29 723 -29 c 0,8,9
 433 -29 433 -29 275 172.5 c 128,-1,10
 117 374 117 374 117 745 c 0,11,12
 117 1122 117 1122 276.5 1321 c 128,-1,13
 436 1520 436 1520 737 1520 c 0,14,15
 827 1520 827 1520 914 1494.5 c 128,-1,16
 1001 1469 1001 1469 1077 1421 c 1,17,-1
 1077 1094 l 1,18,19
 1015 1174 1015 1174 934.5 1214.5 c 128,-1,20
 854 1255 854 1255 758 1255 c 0,21,22
 590 1255 590 1255 507 1128.5 c 128,-1,23
 424 1002 424 1002 424 745 c 0,24,25
 424 496 424 496 504 366 c 128,-1,26
 584 236 584 236 737 236 c 0,27,28
 783 236 783 236 817 244.5 c 128,-1,29
 851 253 851 253 872 270 c 1,0,-1
EndSplineSet
EndChar

StartChar: H
Encoding: 72 72 43
Width: 1233
Flags: W
LayerCount: 2
Fore
SplineSet
137 1493 m 1,0,-1
 432 1493 l 1,1,-1
 432 924 l 1,2,-1
 801 924 l 1,3,-1
 801 1493 l 1,4,-1
 1096 1493 l 1,5,-1
 1096 0 l 1,6,-1
 801 0 l 1,7,-1
 801 664 l 1,8,-1
 432 664 l 1,9,-1
 432 0 l 1,10,-1
 137 0 l 1,11,-1
 137 1493 l 1,0,-1
EndSplineSet
EndChar

StartChar: I
Encoding: 73 73 44
Width: 1233
Flags: W
LayerCount: 2
Fore
SplineSet
172 1233 m 1,0,-1
 172 1493 l 1,1,-1
 1061 1493 l 1,2,-1
 1061 1233 l 1,3,-1
 764 1233 l 1,4,-1
 764 260 l 1,5,-1
 1061 260 l 1,6,-1
 1061 0 l 1,7,-1
 172 0 l 1,8,-1
 172 260 l 1,9,-1
 469 260 l 1,10,-1
 469 1233 l 1,11,-1
 172 1233 l 1,0,-1
EndSplineSet
EndChar

StartChar: J
Encoding: 74 74 45
Width: 1233
Flags: W
LayerCount: 2
Fore
SplineSet
109 74 m 1,0,-1
 109 416 l 1,1,2
 195 328 195 328 292.5 282 c 128,-1,3
 390 236 390 236 489 236 c 0,4,5
 605 236 605 236 659 294 c 128,-1,6
 713 352 713 352 713 479 c 2,7,-1
 713 1233 l 1,8,-1
 352 1233 l 1,9,-1
 352 1493 l 1,10,-1
 1008 1493 l 1,11,-1
 1008 479 l 2,12,13
 1008 206 1008 206 893.5 88.5 c 128,-1,14
 779 -29 779 -29 516 -29 c 0,15,16
 421 -29 421 -29 317.5 -3 c 128,-1,17
 214 23 214 23 109 74 c 1,0,-1
EndSplineSet
EndChar

StartChar: K
Encoding: 75 75 46
Width: 1233
Flags: W
LayerCount: 2
Fore
SplineSet
117 1493 m 1,0,-1
 412 1493 l 1,1,-1
 412 903 l 1,2,-1
 874 1493 l 1,3,-1
 1208 1493 l 1,4,-1
 737 905 l 1,5,-1
 1225 0 l 1,6,-1
 897 0 l 1,7,-1
 543 672 l 1,8,-1
 412 506 l 1,9,-1
 412 0 l 1,10,-1
 117 0 l 1,11,-1
 117 1493 l 1,0,-1
EndSplineSet
EndChar

StartChar: L
Encoding: 76 76 47
Width: 1233
Flags: W
LayerCount: 2
Fore
SplineSet
225 0 m 1,0,-1
 225 1493 l 1,1,-1
 520 1493 l 1,2,-1
 520 260 l 1,3,-1
 1151 260 l 1,4,-1
 1151 0 l 1,5,-1
 225 0 l 1,0,-1
EndSplineSet
EndChar

StartChar: M
Encoding: 77 77 48
Width: 1233
Flags: W
LayerCount: 2
Fore
SplineSet
86 1493 m 1,0,-1
 438 1493 l 1,1,-1
 616 838 l 1,2,-1
 793 1493 l 1,3,-1
 1147 1493 l 1,4,-1
 1147 0 l 1,5,-1
 893 0 l 1,6,-1
 893 1196 l 1,7,-1
 735 543 l 1,8,-1
 500 543 l 1,9,-1
 340 1196 l 1,10,-1
 340 0 l 1,11,-1
 86 0 l 1,12,-1
 86 1493 l 1,0,-1
EndSplineSet
EndChar

StartChar: N
Encoding: 78 78 49
Width: 1233
Flags: W
LayerCount: 2
Fore
SplineSet
119 1493 m 1,0,-1
 436 1493 l 1,1,-1
 852 408 l 1,2,-1
 852 1493 l 1,3,-1
 1112 1493 l 1,4,-1
 1112 0 l 1,5,-1
 797 0 l 1,6,-1
 379 1085 l 1,7,-1
 379 0 l 1,8,-1
 119 0 l 1,9,-1
 119 1493 l 1,0,-1
EndSplineSet
EndChar

StartChar: O
Encoding: 79 79 50
Width: 1233
Flags: W
LayerCount: 2
Fore
SplineSet
616 1255 m 0,0,1
 503 1255 503 1255 451 1134.5 c 128,-1,2
 399 1014 399 1014 399 745 c 0,3,4
 399 477 399 477 451 356.5 c 128,-1,5
 503 236 503 236 616 236 c 0,6,7
 730 236 730 236 782 356.5 c 128,-1,8
 834 477 834 477 834 745 c 0,9,10
 834 1014 834 1014 782 1134.5 c 128,-1,11
 730 1255 730 1255 616 1255 c 0,0,1
92 745 m 0,12,13
 92 1128 92 1128 224.5 1324 c 128,-1,14
 357 1520 357 1520 616 1520 c 0,15,16
 876 1520 876 1520 1008.5 1324 c 128,-1,17
 1141 1128 1141 1128 1141 745 c 0,18,19
 1141 363 1141 363 1008.5 167 c 128,-1,20
 876 -29 876 -29 616 -29 c 0,21,22
 357 -29 357 -29 224.5 167 c 128,-1,23
 92 363 92 363 92 745 c 0,12,13
EndSplineSet
EndChar

StartChar: P
Encoding: 80 80 51
Width: 1233
Flags: W
LayerCount: 2
Fore
SplineSet
457 1245 m 1,0,-1
 457 807 l 1,1,-1
 578 807 l 2,2,3
 723 807 723 807 781.5 856 c 128,-1,4
 840 905 840 905 840 1026 c 256,5,6
 840 1147 840 1147 781.5 1196 c 128,-1,7
 723 1245 723 1245 578 1245 c 2,8,-1
 457 1245 l 1,0,-1
162 1493 m 1,9,-1
 567 1493 l 2,10,11
 876 1493 876 1493 1011.5 1383 c 128,-1,12
 1147 1273 1147 1273 1147 1026 c 256,13,14
 1147 779 1147 779 1011.5 669 c 128,-1,15
 876 559 876 559 567 559 c 2,16,-1
 457 559 l 1,17,-1
 457 0 l 1,18,-1
 162 0 l 1,19,-1
 162 1493 l 1,9,-1
EndSplineSet
EndChar

StartChar: Q
Encoding: 81 81 52
Width: 1233
Flags: W
LayerCount: 2
Fore
SplineSet
656 -23 m 1,0,1
 642 -26 642 -26 632.5 -27.5 c 128,-1,2
 623 -29 623 -29 614 -29 c 0,3,4
 357 -29 357 -29 224.5 167 c 128,-1,5
 92 363 92 363 92 745 c 0,6,7
 92 1128 92 1128 224.5 1324 c 128,-1,8
 357 1520 357 1520 616 1520 c 0,9,10
 876 1520 876 1520 1008.5 1324 c 128,-1,11
 1141 1128 1141 1128 1141 745 c 0,12,13
 1141 482 1141 482 1078 304.5 c 128,-1,14
 1015 127 1015 127 895 51 c 1,15,-1
 1081 -131 l 1,16,-1
 879 -281 l 1,17,-1
 656 -23 l 1,0,1
616 1255 m 0,18,19
 503 1255 503 1255 451 1134.5 c 128,-1,20
 399 1014 399 1014 399 745 c 0,21,22
 399 477 399 477 451 356.5 c 128,-1,23
 503 236 503 236 616 236 c 0,24,25
 730 236 730 236 782 356.5 c 128,-1,26
 834 477 834 477 834 745 c 0,27,28
 834 1014 834 1014 782 1134.5 c 128,-1,29
 730 1255 730 1255 616 1255 c 0,18,19
EndSplineSet
EndChar

StartChar: R
Encoding: 82 82 53
Width: 1233
Flags: W
LayerCount: 2
Fore
SplineSet
807 705 m 1,0,1
 851 696 851 696 883.5 663.5 c 128,-1,2
 916 631 916 631 963 537 c 2,3,-1
 1233 0 l 1,4,-1
 909 0 l 1,5,-1
 729 377 l 2,6,7
 721 393 721 393 708 421 c 0,8,9
 629 590 629 590 522 590 c 2,10,-1
 428 590 l 1,11,-1
 428 0 l 1,12,-1
 133 0 l 1,13,-1
 133 1493 l 1,14,-1
 559 1493 l 2,15,16
 847 1493 847 1493 972.5 1391 c 128,-1,17
 1098 1289 1098 1289 1098 1059 c 0,18,19
 1098 905 1098 905 1023 814 c 128,-1,20
 948 723 948 723 807 705 c 1,0,1
428 1245 m 1,21,-1
 428 838 l 1,22,-1
 567 838 l 2,23,24
 688 838 688 838 740.5 885.5 c 128,-1,25
 793 933 793 933 793 1042 c 256,26,27
 793 1151 793 1151 741 1198 c 128,-1,28
 689 1245 689 1245 567 1245 c 2,29,-1
 428 1245 l 1,21,-1
EndSplineSet
EndChar

StartChar: S
Encoding: 83 83 54
Width: 1233
Flags: W
LayerCount: 2
Fore
SplineSet
510 655 m 2,0,1
 287 740 287 740 208 833.5 c 128,-1,2
 129 927 129 927 129 1085 c 0,3,4
 129 1288 129 1288 259 1404 c 128,-1,5
 389 1520 389 1520 616 1520 c 0,6,7
 719 1520 719 1520 822 1496.5 c 128,-1,8
 925 1473 925 1473 1026 1427 c 1,9,-1
 1026 1139 l 1,10,11
 931 1206 931 1206 833 1241 c 128,-1,12
 735 1276 735 1276 639 1276 c 0,13,14
 532 1276 532 1276 475 1233 c 128,-1,15
 418 1190 418 1190 418 1110 c 0,16,17
 418 1048 418 1048 459.5 1007.5 c 128,-1,18
 501 967 501 967 633 918 c 2,19,-1
 760 870 l 1,20,21
 940 804 940 804 1025 695 c 128,-1,22
 1110 586 1110 586 1110 420 c 0,23,24
 1110 194 1110 194 976.5 82.5 c 128,-1,25
 843 -29 843 -29 573 -29 c 0,26,27
 462 -29 462 -29 350.5 -2.5 c 128,-1,28
 239 24 239 24 135 76 c 1,29,-1
 135 381 l 1,30,31
 253 297 253 297 363.5 256 c 128,-1,32
 474 215 474 215 582 215 c 0,33,34
 691 215 691 215 751 264.5 c 128,-1,35
 811 314 811 314 811 403 c 0,36,37
 811 470 811 470 771 520.5 c 128,-1,38
 731 571 731 571 655 600 c 2,39,-1
 510 655 l 2,0,1
EndSplineSet
EndChar

StartChar: T
Encoding: 84 84 55
Width: 1233
Flags: W
LayerCount: 2
Fore
SplineSet
764 0 m 1,0,-1
 469 0 l 1,1,-1
 469 1235 l 1,2,-1
 90 1235 l 1,3,-1
 90 1493 l 1,4,-1
 1143 1493 l 1,5,-1
 1143 1235 l 1,6,-1
 764 1235 l 1,7,-1
 764 0 l 1,0,-1
EndSplineSet
EndChar

StartChar: U
Encoding: 85 85 56
Width: 1233
Flags: W
LayerCount: 2
Fore
SplineSet
106 551 m 2,0,-1
 106 1493 l 1,1,-1
 401 1493 l 1,2,-1
 401 477 l 2,3,4
 401 365 401 365 458 301.5 c 128,-1,5
 515 238 515 238 616 238 c 256,6,7
 717 238 717 238 774 301.5 c 128,-1,8
 831 365 831 365 831 477 c 2,9,-1
 831 1493 l 1,10,-1
 1126 1493 l 1,11,-1
 1126 551 l 2,12,13
 1126 247 1126 247 1005 109 c 128,-1,14
 884 -29 884 -29 616 -29 c 0,15,16
 349 -29 349 -29 227.5 109 c 128,-1,17
 106 247 106 247 106 551 c 2,0,-1
EndSplineSet
EndChar

StartChar: V
Encoding: 86 86 57
Width: 1233
Flags: W
LayerCount: 2
Fore
SplineSet
616 246 m 1,0,-1
 879 1493 l 1,1,-1
 1176 1493 l 1,2,-1
 821 0 l 1,3,-1
 412 0 l 1,4,-1
 57 1493 l 1,5,-1
 354 1493 l 1,6,-1
 616 246 l 1,0,-1
EndSplineSet
EndChar

StartChar: W
Encoding: 87 87 58
Width: 1233
Flags: W
LayerCount: 2
Fore
SplineSet
0 1493 m 1,0,-1
 258 1493 l 1,1,-1
 365 397 l 1,2,-1
 494 1106 l 1,3,-1
 739 1106 l 1,4,-1
 889 397 l 1,5,-1
 973 1493 l 1,6,-1
 1233 1493 l 1,7,-1
 1061 0 l 1,8,-1
 786 0 l 1,9,-1
 616 784 l 1,10,-1
 457 0 l 1,11,-1
 184 0 l 1,12,-1
 0 1493 l 1,0,-1
EndSplineSet
EndChar

StartChar: X
Encoding: 88 88 59
Width: 1233
Flags: W
LayerCount: 2
Fore
SplineSet
1206 0 m 1,0,-1
 901 0 l 1,1,-1
 616 494 l 1,2,-1
 332 0 l 1,3,-1
 27 0 l 1,4,-1
 465 758 l 1,5,-1
 39 1493 l 1,6,-1
 344 1493 l 1,7,-1
 616 1018 l 1,8,-1
 889 1493 l 1,9,-1
 1194 1493 l 1,10,-1
 770 758 l 1,11,-1
 1206 0 l 1,0,-1
EndSplineSet
EndChar

StartChar: Y
Encoding: 89 89 60
Width: 1233
Flags: W
LayerCount: 2
Fore
SplineSet
8 1493 m 1,0,-1
 326 1493 l 1,1,-1
 616 893 l 1,2,-1
 907 1493 l 1,3,-1
 1225 1493 l 1,4,-1
 764 588 l 1,5,-1
 764 0 l 1,6,-1
 469 0 l 1,7,-1
 469 588 l 1,8,-1
 8 1493 l 1,0,-1
EndSplineSet
EndChar

StartChar: Z
Encoding: 90 90 61
Width: 1233
Flags: W
LayerCount: 2
Fore
SplineSet
137 1493 m 1,0,-1
 1147 1493 l 1,1,-1
 1147 1249 l 1,2,-1
 455 260 l 1,3,-1
 1161 260 l 1,4,-1
 1161 0 l 1,5,-1
 115 0 l 1,6,-1
 115 244 l 1,7,-1
 786 1233 l 1,8,-1
 137 1233 l 1,9,-1
 137 1493 l 1,0,-1
EndSplineSet
EndChar

StartChar: bracketleft
Encoding: 91 91 62
Width: 1233
Flags: W
LayerCount: 2
Fore
SplineSet
422 1556 m 1,0,-1
 930 1556 l 1,1,-1
 930 1366 l 1,2,-1
 688 1366 l 1,3,-1
 688 -80 l 1,4,-1
 930 -80 l 1,5,-1
 930 -270 l 1,6,-1
 422 -270 l 1,7,-1
 422 1556 l 1,0,-1
EndSplineSet
EndChar

StartChar: backslash
Encoding: 92 92 63
Width: 1233
Flags: W
LayerCount: 2
Fore
SplineSet
334 1493 m 1,0,-1
 1120 -190 l 1,1,-1
 897 -190 l 1,2,-1
 111 1493 l 1,3,-1
 334 1493 l 1,0,-1
EndSplineSet
EndChar

StartChar: bracketright
Encoding: 93 93 64
Width: 1233
Flags: W
LayerCount: 2
Fore
SplineSet
811 1556 m 1,0,-1
 811 -270 l 1,1,-1
 303 -270 l 1,2,-1
 303 -80 l 1,3,-1
 545 -80 l 1,4,-1
 545 1366 l 1,5,-1
 303 1366 l 1,6,-1
 303 1556 l 1,7,-1
 811 1556 l 1,0,-1
EndSplineSet
EndChar

StartChar: asciicircum
Encoding: 94 94 65
Width: 1233
Flags: W
LayerCount: 2
Fore
SplineSet
739 1493 m 1,0,-1
 1176 936 l 1,1,-1
 934 936 l 1,2,-1
 616 1237 l 1,3,-1
 299 936 l 1,4,-1
 57 936 l 1,5,-1
 494 1493 l 1,6,-1
 739 1493 l 1,0,-1
EndSplineSet
EndChar

StartChar: underscore
Encoding: 95 95 66
Width: 1233
Flags: W
LayerCount: 2
Fore
SplineSet
1233 -293 m 1,0,-1
 1233 -483 l 1,1,-1
 0 -483 l 1,2,-1
 0 -293 l 1,3,-1
 1233 -293 l 1,0,-1
EndSplineSet
EndChar

StartChar: grave
Encoding: 96 96 67
Width: 1233
Flags: W
LayerCount: 2
Fore
SplineSet
481 1638 m 1,0,-1
 764 1262 l 1,1,-1
 567 1262 l 1,2,-1
 199 1638 l 1,3,-1
 481 1638 l 1,0,-1
EndSplineSet
EndChar

StartChar: a
Encoding: 97 97 68
Width: 1233
Flags: W
LayerCount: 2
Fore
SplineSet
700 526 m 2,0,1
 536 526 536 526 471 484 c 128,-1,2
 406 442 406 442 406 340 c 0,3,4
 406 264 406 264 451 219 c 128,-1,5
 496 174 496 174 573 174 c 0,6,7
 689 174 689 174 753 261.5 c 128,-1,8
 817 349 817 349 817 506 c 2,9,-1
 817 526 l 1,10,-1
 700 526 l 2,0,1
1108 639 m 2,11,-1
 1108 0 l 1,12,-1
 817 0 l 1,13,-1
 817 125 l 1,14,15
 764 51 764 51 681 11 c 128,-1,16
 598 -29 598 -29 498 -29 c 0,17,18
 307 -29 307 -29 200.5 72 c 128,-1,19
 94 173 94 173 94 354 c 0,20,21
 94 550 94 550 221 643.5 c 128,-1,22
 348 737 348 737 614 737 c 2,23,-1
 817 737 l 1,24,-1
 817 786 l 2,25,26
 817 857 817 857 765.5 893.5 c 128,-1,27
 714 930 714 930 614 930 c 0,28,29
 509 930 509 930 410.5 903.5 c 128,-1,30
 312 877 312 877 205 819 c 1,31,-1
 205 1069 l 1,32,33
 302 1109 302 1109 402 1128 c 128,-1,34
 502 1147 502 1147 614 1147 c 0,35,36
 887 1147 887 1147 997.5 1036 c 128,-1,37
 1108 925 1108 925 1108 639 c 2,11,-1
EndSplineSet
EndChar

StartChar: b
Encoding: 98 98 69
Width: 1233
Flags: W
LayerCount: 2
Fore
SplineSet
850 557 m 256,0,1
 850 719 850 719 796 811 c 128,-1,2
 742 903 742 903 647 903 c 256,3,4
 552 903 552 903 497 811 c 128,-1,5
 442 719 442 719 442 557 c 256,6,7
 442 395 442 395 497 303 c 128,-1,8
 552 211 552 211 647 211 c 256,9,10
 742 211 742 211 796 303 c 128,-1,11
 850 395 850 395 850 557 c 256,0,1
442 961 m 1,12,13
 496 1054 496 1054 567.5 1100.5 c 128,-1,14
 639 1147 639 1147 729 1147 c 0,15,16
 928 1147 928 1147 1035.5 995 c 128,-1,17
 1143 843 1143 843 1143 559 c 0,18,19
 1143 279 1143 279 1037 125 c 128,-1,20
 931 -29 931 -29 739 -29 c 0,21,22
 638 -29 638 -29 563 20 c 128,-1,23
 488 69 488 69 442 166 c 1,24,-1
 442 0 l 1,25,-1
 150 0 l 1,26,-1
 150 1556 l 1,27,-1
 442 1556 l 1,28,-1
 442 961 l 1,12,13
EndSplineSet
EndChar

StartChar: c
Encoding: 99 99 70
Width: 1233
Flags: W
LayerCount: 2
Fore
SplineSet
1061 57 m 1,0,1
 987 14 987 14 902 -7.5 c 128,-1,2
 817 -29 817 -29 719 -29 c 0,3,4
 460 -29 460 -29 314 127 c 128,-1,5
 168 283 168 283 168 559 c 0,6,7
 168 836 168 836 315 992.5 c 128,-1,8
 462 1149 462 1149 721 1149 c 0,9,10
 811 1149 811 1149 894.5 1128 c 128,-1,11
 978 1107 978 1107 1061 1063 c 1,12,-1
 1061 795 l 1,13,14
 997 850 997 850 920.5 879.5 c 128,-1,15
 844 909 844 909 762 909 c 0,16,17
 619 909 619 909 542 818 c 128,-1,18
 465 727 465 727 465 559 c 256,19,20
 465 391 465 391 542 301 c 128,-1,21
 619 211 619 211 762 211 c 0,22,23
 847 211 847 211 921 239.5 c 128,-1,24
 995 268 995 268 1061 326 c 1,25,-1
 1061 57 l 1,0,1
EndSplineSet
EndChar

StartChar: d
Encoding: 100 100 71
Width: 1233
Flags: W
LayerCount: 2
Fore
SplineSet
791 961 m 1,0,-1
 791 1556 l 1,1,-1
 1083 1556 l 1,2,-1
 1083 0 l 1,3,-1
 791 0 l 1,4,-1
 791 166 l 1,5,6
 744 69 744 69 669.5 20 c 128,-1,7
 595 -29 595 -29 494 -29 c 0,8,9
 302 -29 302 -29 196 125 c 128,-1,10
 90 279 90 279 90 559 c 0,11,12
 90 843 90 843 197.5 995 c 128,-1,13
 305 1147 305 1147 504 1147 c 0,14,15
 594 1147 594 1147 665.5 1100.5 c 128,-1,16
 737 1054 737 1054 791 961 c 1,0,-1
383 557 m 256,17,18
 383 395 383 395 437 303 c 128,-1,19
 491 211 491 211 586 211 c 256,20,21
 681 211 681 211 736 303 c 128,-1,22
 791 395 791 395 791 557 c 256,23,24
 791 719 791 719 736 811 c 128,-1,25
 681 903 681 903 586 903 c 256,26,27
 491 903 491 903 437 811 c 128,-1,28
 383 719 383 719 383 557 c 256,17,18
EndSplineSet
EndChar

StartChar: e
Encoding: 101 101 72
Width: 1233
Flags: W
LayerCount: 2
Fore
SplineSet
1102 55 m 1,0,1
 1000 13 1000 13 894 -8 c 128,-1,2
 788 -29 788 -29 670 -29 c 0,3,4
 389 -29 389 -29 240.5 121.5 c 128,-1,5
 92 272 92 272 92 555 c 0,6,7
 92 829 92 829 235 988 c 128,-1,8
 378 1147 378 1147 625 1147 c 0,9,10
 874 1147 874 1147 1011.5 999.5 c 128,-1,11
 1149 852 1149 852 1149 584 c 2,12,-1
 1149 465 l 1,13,-1
 390 465 l 1,14,15
 391 333 391 333 468 268 c 128,-1,16
 545 203 545 203 698 203 c 0,17,18
 799 203 799 203 897 232 c 128,-1,19
 995 261 995 261 1102 324 c 1,20,-1
 1102 55 l 1,0,1
854 685 m 1,21,22
 852 801 852 801 794.5 860.5 c 128,-1,23
 737 920 737 920 625 920 c 0,24,25
 524 920 524 920 464 858.5 c 128,-1,26
 404 797 404 797 393 684 c 1,27,-1
 854 685 l 1,21,22
EndSplineSet
EndChar

StartChar: f
Encoding: 102 102 73
Width: 1233
Flags: W
LayerCount: 2
Fore
SplineSet
739 1218 m 1,0,-1
 739 1120 l 1,1,-1
 1083 1120 l 1,2,-1
 1083 895 l 1,3,-1
 739 895 l 1,4,-1
 739 0 l 1,5,-1
 446 0 l 1,6,-1
 446 895 l 1,7,-1
 174 895 l 1,8,-1
 174 1120 l 1,9,-1
 446 1120 l 1,10,-1
 446 1198 l 2,11,12
 446 1400 446 1400 530 1478 c 128,-1,13
 614 1556 614 1556 842 1556 c 2,14,-1
 1083 1556 l 1,15,-1
 1083 1331 l 1,16,-1
 854 1331 l 2,17,18
 788 1331 788 1331 764.5 1307 c 128,-1,19
 741 1283 741 1283 739 1218 c 1,0,-1
EndSplineSet
EndChar

StartChar: g
Encoding: 103 103 74
Width: 1233
Flags: W
LayerCount: 2
Fore
SplineSet
803 578 m 0,0,1
 803 728 803 728 746 818.5 c 128,-1,2
 689 909 689 909 596 909 c 0,3,4
 504 909 504 909 447.5 819 c 128,-1,5
 391 729 391 729 391 578 c 0,6,7
 391 426 391 426 447.5 336 c 128,-1,8
 504 246 504 246 596 246 c 0,9,10
 689 246 689 246 746 336.5 c 128,-1,11
 803 427 803 427 803 578 c 0,0,1
1096 84 m 2,12,13
 1096 -185 1096 -185 974.5 -304.5 c 128,-1,14
 853 -424 853 -424 580 -424 c 0,15,16
 488 -424 488 -424 398 -410.5 c 128,-1,17
 308 -397 308 -397 215 -369 c 1,18,-1
 215 -100 l 1,19,20
 298 -146 298 -146 384 -168 c 128,-1,21
 470 -190 470 -190 561 -190 c 0,22,23
 685 -190 685 -190 744 -131.5 c 128,-1,24
 803 -73 803 -73 803 51 c 2,25,-1
 803 172 l 1,26,27
 760 92 760 92 689 53 c 128,-1,28
 618 14 618 14 516 14 c 0,29,30
 324 14 324 14 211 164 c 128,-1,31
 98 314 98 314 98 571 c 0,32,33
 98 837 98 837 211 993 c 128,-1,34
 324 1149 324 1149 514 1149 c 0,35,36
 610 1149 610 1149 685 1104 c 128,-1,37
 760 1059 760 1059 803 977 c 1,38,-1
 803 1120 l 1,39,-1
 1096 1120 l 1,40,-1
 1096 84 l 2,12,13
EndSplineSet
EndChar

StartChar: h
Encoding: 104 104 75
Width: 1233
Flags: W
LayerCount: 2
Fore
SplineSet
1071 727 m 2,0,-1
 1071 0 l 1,1,-1
 780 0 l 1,2,-1
 780 682 l 2,3,4
 780 803 780 803 745.5 855 c 128,-1,5
 711 907 711 907 633 907 c 0,6,7
 553 907 553 907 508 836.5 c 128,-1,8
 463 766 463 766 463 641 c 2,9,-1
 463 0 l 1,10,-1
 172 0 l 1,11,-1
 172 1556 l 1,12,-1
 463 1556 l 1,13,-1
 463 952 l 1,14,15
 494 1045 494 1045 569 1096 c 128,-1,16
 644 1147 644 1147 750 1147 c 0,17,18
 909 1147 909 1147 990 1041.5 c 128,-1,19
 1071 936 1071 936 1071 727 c 2,0,-1
EndSplineSet
EndChar

StartChar: i
Encoding: 105 105 76
Width: 1233
Flags: W
LayerCount: 2
Fore
SplineSet
221 1120 m 1,0,-1
 801 1120 l 1,1,-1
 801 225 l 1,2,-1
 1165 225 l 1,3,-1
 1165 0 l 1,4,-1
 143 0 l 1,5,-1
 143 225 l 1,6,-1
 508 225 l 1,7,-1
 508 895 l 1,8,-1
 221 895 l 1,9,-1
 221 1120 l 1,0,-1
508 1665 m 1,10,-1
 801 1665 l 1,11,-1
 801 1323 l 1,12,-1
 508 1323 l 1,13,-1
 508 1665 l 1,10,-1
EndSplineSet
EndChar

StartChar: j
Encoding: 106 106 77
Width: 1233
Flags: W
LayerCount: 2
Fore
SplineSet
850 43 m 2,0,1
 850 -209 850 -209 759.5 -316.5 c 128,-1,2
 669 -424 669 -424 459 -424 c 2,3,-1
 143 -424 l 1,4,-1
 143 -199 l 1,5,-1
 377 -199 l 2,6,7
 475 -199 475 -199 516 -144 c 128,-1,8
 557 -89 557 -89 557 43 c 2,9,-1
 557 895 l 1,10,-1
 260 895 l 1,11,-1
 260 1120 l 1,12,-1
 850 1120 l 1,13,-1
 850 43 l 2,0,1
850 1323 m 1,14,-1
 557 1323 l 1,15,-1
 557 1665 l 1,16,-1
 850 1665 l 1,17,-1
 850 1323 l 1,14,-1
EndSplineSet
EndChar

StartChar: k
Encoding: 107 107 78
Width: 1233
Flags: W
LayerCount: 2
Fore
SplineSet
174 1556 m 1,0,-1
 467 1556 l 1,1,-1
 467 739 l 1,2,-1
 819 1120 l 1,3,-1
 1174 1120 l 1,4,-1
 750 702 l 1,5,-1
 1198 0 l 1,6,-1
 874 0 l 1,7,-1
 567 524 l 1,8,-1
 467 428 l 1,9,-1
 467 0 l 1,10,-1
 174 0 l 1,11,-1
 174 1556 l 1,0,-1
EndSplineSet
EndChar

StartChar: l
Encoding: 108 108 79
Width: 1233
Flags: W
LayerCount: 2
Fore
SplineSet
387 467 m 2,0,-1
 387 1331 l 1,1,-1
 90 1331 l 1,2,-1
 90 1556 l 1,3,-1
 680 1556 l 1,4,-1
 680 467 l 2,5,6
 680 335 680 335 721 280 c 128,-1,7
 762 225 762 225 860 225 c 2,8,-1
 1094 225 l 1,9,-1
 1094 0 l 1,10,-1
 778 0 l 2,11,12
 569 0 569 0 478 108 c 128,-1,13
 387 216 387 216 387 467 c 2,0,-1
EndSplineSet
EndChar

StartChar: m
Encoding: 109 109 80
Width: 1233
Flags: W
LayerCount: 2
Fore
SplineSet
690 1008 m 1,0,1
 723 1079 723 1079 774 1113 c 128,-1,2
 825 1147 825 1147 899 1147 c 0,3,4
 1044 1147 1044 1147 1099.5 1047 c 128,-1,5
 1155 947 1155 947 1155 631 c 2,6,-1
 1155 0 l 1,7,-1
 915 0 l 1,8,-1
 915 719 l 2,9,10
 915 844 915 844 896 886 c 128,-1,11
 877 928 877 928 827 928 c 256,12,13
 777 928 777 928 757 885 c 128,-1,14
 737 842 737 842 737 719 c 2,15,-1
 737 0 l 1,16,-1
 500 0 l 1,17,-1
 500 719 l 2,18,19
 500 842 500 842 480 885 c 128,-1,20
 460 928 460 928 410 928 c 256,21,22
 360 928 360 928 341 886 c 128,-1,23
 322 844 322 844 322 719 c 2,24,-1
 322 0 l 1,25,-1
 82 0 l 1,26,-1
 82 1120 l 1,27,-1
 295 1120 l 1,28,-1
 295 1004 l 1,29,30
 320 1070 320 1070 375 1108.5 c 128,-1,31
 430 1147 430 1147 498 1147 c 256,32,33
 566 1147 566 1147 622 1106.5 c 128,-1,34
 678 1066 678 1066 690 1008 c 1,0,1
EndSplineSet
EndChar

StartChar: n
Encoding: 110 110 81
Width: 1233
Flags: W
LayerCount: 2
Fore
SplineSet
1071 727 m 2,0,-1
 1071 0 l 1,1,-1
 780 0 l 1,2,-1
 780 682 l 2,3,4
 780 804 780 804 745.5 856.5 c 128,-1,5
 711 909 711 909 633 909 c 0,6,7
 554 909 554 909 508.5 838 c 128,-1,8
 463 767 463 767 463 641 c 2,9,-1
 463 0 l 1,10,-1
 172 0 l 1,11,-1
 172 1120 l 1,12,-1
 463 1120 l 1,13,-1
 463 952 l 1,14,15
 494 1045 494 1045 569 1096 c 128,-1,16
 644 1147 644 1147 750 1147 c 0,17,18
 909 1147 909 1147 990 1041.5 c 128,-1,19
 1071 936 1071 936 1071 727 c 2,0,-1
EndSplineSet
EndChar

StartChar: o
Encoding: 111 111 82
Width: 1233
Flags: W
LayerCount: 2
Fore
SplineSet
616 909 m 0,0,1
 511 909 511 909 451 816.5 c 128,-1,2
 391 724 391 724 391 559 c 256,3,4
 391 394 391 394 451 301.5 c 128,-1,5
 511 209 511 209 616 209 c 0,6,7
 722 209 722 209 782 301.5 c 128,-1,8
 842 394 842 394 842 559 c 256,9,10
 842 724 842 724 782 816.5 c 128,-1,11
 722 909 722 909 616 909 c 0,0,1
98 559 m 256,12,13
 98 830 98 830 238.5 988.5 c 128,-1,14
 379 1147 379 1147 616 1147 c 0,15,16
 854 1147 854 1147 994.5 988.5 c 128,-1,17
 1135 830 1135 830 1135 559 c 256,18,19
 1135 288 1135 288 994.5 129.5 c 128,-1,20
 854 -29 854 -29 616 -29 c 0,21,22
 379 -29 379 -29 238.5 129.5 c 128,-1,23
 98 288 98 288 98 559 c 256,12,13
EndSplineSet
EndChar

StartChar: p
Encoding: 112 112 83
Width: 1233
Flags: W
LayerCount: 2
Fore
SplineSet
442 158 m 1,0,-1
 442 -426 l 1,1,-1
 150 -426 l 1,2,-1
 150 1120 l 1,3,-1
 442 1120 l 1,4,-1
 442 952 l 1,5,6
 488 1049 488 1049 563 1098 c 128,-1,7
 638 1147 638 1147 739 1147 c 0,8,9
 931 1147 931 1147 1037 993 c 128,-1,10
 1143 839 1143 839 1143 559 c 0,11,12
 1143 275 1143 275 1035.5 123 c 128,-1,13
 928 -29 928 -29 729 -29 c 0,14,15
 639 -29 639 -29 567.5 17.5 c 128,-1,16
 496 64 496 64 442 158 c 1,0,-1
850 561 m 256,17,18
 850 723 850 723 796 815 c 128,-1,19
 742 907 742 907 647 907 c 256,20,21
 552 907 552 907 497 815 c 128,-1,22
 442 723 442 723 442 561 c 256,23,24
 442 399 442 399 497 307 c 128,-1,25
 552 215 552 215 647 215 c 256,26,27
 742 215 742 215 796 307 c 128,-1,28
 850 399 850 399 850 561 c 256,17,18
EndSplineSet
EndChar

StartChar: q
Encoding: 113 113 84
Width: 1233
Flags: W
LayerCount: 2
Fore
SplineSet
383 561 m 256,0,1
 383 399 383 399 437 307 c 128,-1,2
 491 215 491 215 586 215 c 256,3,4
 681 215 681 215 736 307 c 128,-1,5
 791 399 791 399 791 561 c 256,6,7
 791 723 791 723 736 815 c 128,-1,8
 681 907 681 907 586 907 c 256,9,10
 491 907 491 907 437 815 c 128,-1,11
 383 723 383 723 383 561 c 256,0,1
791 158 m 1,12,13
 737 64 737 64 665.5 17.5 c 128,-1,14
 594 -29 594 -29 504 -29 c 0,15,16
 305 -29 305 -29 197.5 123 c 128,-1,17
 90 275 90 275 90 559 c 0,18,19
 90 839 90 839 196 993 c 128,-1,20
 302 1147 302 1147 494 1147 c 0,21,22
 595 1147 595 1147 669.5 1098 c 128,-1,23
 744 1049 744 1049 791 952 c 1,24,-1
 791 1120 l 1,25,-1
 1083 1120 l 1,26,-1
 1083 -426 l 1,27,-1
 791 -426 l 1,28,-1
 791 158 l 1,12,13
EndSplineSet
EndChar

StartChar: r
Encoding: 114 114 85
Width: 1233
Flags: W
LayerCount: 2
Fore
SplineSet
1151 811 m 1,0,1
 1103 855 1103 855 1038.5 877 c 128,-1,2
 974 899 974 899 897 899 c 0,3,4
 804 899 804 899 734.5 866.5 c 128,-1,5
 665 834 665 834 627 772 c 0,6,7
 603 734 603 734 593.5 680 c 128,-1,8
 584 626 584 626 584 516 c 2,9,-1
 584 0 l 1,10,-1
 291 0 l 1,11,-1
 291 1120 l 1,12,-1
 584 1120 l 1,13,-1
 584 946 l 1,14,15
 627 1042 627 1042 716 1094.5 c 128,-1,16
 805 1147 805 1147 924 1147 c 0,17,18
 984 1147 984 1147 1041.5 1132.5 c 128,-1,19
 1099 1118 1099 1118 1151 1090 c 1,20,-1
 1151 811 l 1,0,1
EndSplineSet
EndChar

StartChar: s
Encoding: 115 115 86
Width: 1233
Flags: W
LayerCount: 2
Fore
SplineSet
991 1085 m 1,0,-1
 991 829 l 1,1,2
 910 881 910 881 822.5 907.5 c 128,-1,3
 735 934 735 934 647 934 c 0,4,5
 549 934 549 934 499 905.5 c 128,-1,6
 449 877 449 877 449 821 c 0,7,8
 449 741 449 741 663 691 c 1,9,-1
 674 688 l 1,10,-1
 758 668 l 2,11,12
 918 630 918 630 992.5 545.5 c 128,-1,13
 1067 461 1067 461 1067 317 c 0,14,15
 1067 144 1067 144 953.5 57.5 c 128,-1,16
 840 -29 840 -29 612 -29 c 0,17,18
 511 -29 511 -29 405 -11.5 c 128,-1,19
 299 6 299 6 190 41 c 1,20,-1
 190 297 l 1,21,22
 287 242 287 242 387.5 213 c 128,-1,23
 488 184 488 184 582 184 c 0,24,25
 685 184 685 184 738 214 c 128,-1,26
 791 244 791 244 791 301 c 0,27,28
 791 357 791 357 753.5 387 c 128,-1,29
 716 417 716 417 575 451 c 1,30,-1
 494 469 l 2,31,32
 326 507 326 507 249 588 c 128,-1,33
 172 669 172 669 172 805 c 0,34,35
 172 967 172 967 289 1057 c 128,-1,36
 406 1147 406 1147 618 1147 c 0,37,38
 713 1147 713 1147 807.5 1131.5 c 128,-1,39
 902 1116 902 1116 991 1085 c 1,0,-1
EndSplineSet
EndChar

StartChar: t
Encoding: 116 116 87
Width: 1233
Flags: W
LayerCount: 2
Fore
SplineSet
690 1438 m 1,0,-1
 690 1120 l 1,1,-1
 1073 1120 l 1,2,-1
 1073 895 l 1,3,-1
 690 895 l 1,4,-1
 690 365 l 2,5,6
 690 290 690 290 726.5 257.5 c 128,-1,7
 763 225 763 225 848 225 c 2,8,-1
 1073 225 l 1,9,-1
 1073 0 l 1,10,-1
 827 0 l 2,11,12
 575 0 575 0 486 80.5 c 128,-1,13
 397 161 397 161 397 379 c 2,14,-1
 397 895 l 1,15,-1
 111 895 l 1,16,-1
 111 1120 l 1,17,-1
 397 1120 l 1,18,-1
 397 1438 l 1,19,-1
 690 1438 l 1,0,-1
EndSplineSet
EndChar

StartChar: u
Encoding: 117 117 88
Width: 1233
Flags: W
LayerCount: 2
Fore
SplineSet
160 391 m 2,0,-1
 160 1120 l 1,1,-1
 453 1120 l 1,2,-1
 453 436 l 2,3,4
 453 315 453 315 487 263 c 128,-1,5
 521 211 521 211 600 211 c 256,6,7
 679 211 679 211 723.5 281 c 128,-1,8
 768 351 768 351 768 477 c 2,9,-1
 768 1120 l 1,10,-1
 1061 1120 l 1,11,-1
 1061 0 l 1,12,-1
 768 0 l 1,13,-1
 768 166 l 1,14,15
 737 73 737 73 662.5 22 c 128,-1,16
 588 -29 588 -29 483 -29 c 0,17,18
 323 -29 323 -29 241.5 77 c 128,-1,19
 160 183 160 183 160 391 c 2,0,-1
EndSplineSet
EndChar

StartChar: v
Encoding: 118 118 89
Width: 1233
Flags: W
LayerCount: 2
Fore
SplineSet
1153 1120 m 1,0,-1
 797 0 l 1,1,-1
 436 0 l 1,2,-1
 80 1120 l 1,3,-1
 377 1120 l 1,4,-1
 616 246 l 1,5,-1
 856 1120 l 1,6,-1
 1153 1120 l 1,0,-1
EndSplineSet
EndChar

StartChar: w
Encoding: 119 119 90
Width: 1233
Flags: W
LayerCount: 2
Fore
SplineSet
0 1120 m 1,0,-1
 244 1120 l 1,1,-1
 377 262 l 1,2,-1
 498 827 l 1,3,-1
 735 827 l 1,4,-1
 854 262 l 1,5,-1
 989 1120 l 1,6,-1
 1233 1120 l 1,7,-1
 1030 0 l 1,8,-1
 752 0 l 1,9,-1
 616 582 l 1,10,-1
 481 0 l 1,11,-1
 203 0 l 1,12,-1
 0 1120 l 1,0,-1
EndSplineSet
EndChar

StartChar: x
Encoding: 120 120 91
Width: 1233
Flags: W
LayerCount: 2
Fore
SplineSet
1145 1120 m 1,0,-1
 768 584 l 1,1,-1
 1178 0 l 1,2,-1
 836 0 l 1,3,-1
 616 377 l 1,4,-1
 397 0 l 1,5,-1
 55 0 l 1,6,-1
 469 584 l 1,7,-1
 88 1120 l 1,8,-1
 430 1120 l 1,9,-1
 616 786 l 1,10,-1
 803 1120 l 1,11,-1
 1145 1120 l 1,0,-1
EndSplineSet
EndChar

StartChar: y
Encoding: 121 121 92
Width: 1233
Flags: W
LayerCount: 2
Fore
SplineSet
711 -121 m 2,0,1
 652 -279 652 -279 569.5 -351.5 c 128,-1,2
 487 -424 487 -424 369 -424 c 2,3,-1
 127 -424 l 1,4,-1
 127 -201 l 1,5,-1
 246 -201 l 2,6,7
 336 -201 336 -201 378 -170.5 c 128,-1,8
 420 -140 420 -140 463 -29 c 1,9,-1
 485 31 l 1,10,-1
 59 1120 l 1,11,-1
 367 1120 l 1,12,-1
 623 393 l 1,13,-1
 868 1120 l 1,14,-1
 1176 1120 l 1,15,-1
 711 -121 l 2,0,1
EndSplineSet
EndChar

StartChar: z
Encoding: 122 122 93
Width: 1233
Flags: W
LayerCount: 2
Fore
SplineSet
186 1120 m 1,0,-1
 1081 1120 l 1,1,-1
 1081 891 l 1,2,-1
 492 219 l 1,3,-1
 1081 219 l 1,4,-1
 1081 0 l 1,5,-1
 162 0 l 1,6,-1
 162 229 l 1,7,-1
 752 901 l 1,8,-1
 186 901 l 1,9,-1
 186 1120 l 1,0,-1
EndSplineSet
EndChar

StartChar: braceleft
Encoding: 123 123 94
Width: 1233
Flags: W
LayerCount: 2
Fore
SplineSet
1053 -143 m 1,0,-1
 1053 -334 l 1,1,-1
 903 -334 l 2,2,3
 654 -334 654 -334 569.5 -260 c 128,-1,4
 485 -186 485 -186 485 35 c 2,5,-1
 485 250 l 2,6,7
 485 401 485 401 431.5 458.5 c 128,-1,8
 378 516 378 516 238 516 c 2,9,-1
 176 516 l 1,10,-1
 176 707 l 1,11,-1
 238 707 l 2,12,13
 378 707 378 707 431.5 764 c 128,-1,14
 485 821 485 821 485 973 c 2,15,-1
 485 1188 l 2,16,17
 485 1409 485 1409 569.5 1482.5 c 128,-1,18
 654 1556 654 1556 903 1556 c 2,19,-1
 1053 1556 l 1,20,-1
 1053 1366 l 1,21,-1
 930 1366 l 2,22,23
 826 1366 826 1366 791 1324 c 128,-1,24
 756 1282 756 1282 756 1139 c 2,25,-1
 756 930 l 2,26,27
 756 765 756 765 707 698 c 128,-1,28
 658 631 658 631 532 612 c 1,29,30
 658 591 658 591 707 523 c 128,-1,31
 756 455 756 455 756 291 c 2,32,-1
 756 86 l 2,33,34
 756 -58 756 -58 791 -100.5 c 128,-1,35
 826 -143 826 -143 930 -143 c 2,36,-1
 1053 -143 l 1,0,-1
EndSplineSet
EndChar

StartChar: bar
Encoding: 124 124 95
Width: 1233
Flags: W
LayerCount: 2
Fore
SplineSet
729 1565 m 1,0,-1
 729 -483 l 1,1,-1
 502 -483 l 1,2,-1
 502 1565 l 1,3,-1
 729 1565 l 1,0,-1
EndSplineSet
EndChar

StartChar: braceright
Encoding: 125 125 96
Width: 1233
Flags: W
LayerCount: 2
Fore
SplineSet
180 -143 m 1,0,-1
 301 -143 l 2,1,2
 405 -143 405 -143 441 -100 c 128,-1,3
 477 -57 477 -57 477 86 c 2,4,-1
 477 291 l 2,5,6
 477 455 477 455 526 523 c 128,-1,7
 575 591 575 591 700 612 c 1,8,9
 574 631 574 631 525.5 698 c 128,-1,10
 477 765 477 765 477 930 c 2,11,-1
 477 1139 l 2,12,13
 477 1280 477 1280 441.5 1323 c 128,-1,14
 406 1366 406 1366 301 1366 c 2,15,-1
 180 1366 l 1,16,-1
 180 1556 l 1,17,-1
 330 1556 l 2,18,19
 578 1556 578 1556 661.5 1482.5 c 128,-1,20
 745 1409 745 1409 745 1188 c 2,21,-1
 745 973 l 2,22,23
 745 822 745 822 799.5 764.5 c 128,-1,24
 854 707 854 707 995 707 c 2,25,-1
 1057 707 l 1,26,-1
 1057 516 l 1,27,-1
 995 516 l 2,28,29
 854 516 854 516 799.5 458 c 128,-1,30
 745 400 745 400 745 250 c 2,31,-1
 745 35 l 2,32,33
 745 -186 745 -186 661.5 -260 c 128,-1,34
 578 -334 578 -334 330 -334 c 2,35,-1
 180 -334 l 1,36,-1
 180 -143 l 1,0,-1
EndSplineSet
EndChar

StartChar: asciitilde
Encoding: 126 126 97
Width: 1233
Flags: W
LayerCount: 2
Fore
SplineSet
1145 811 m 1,0,-1
 1145 578 l 1,1,2
 1070 518 1070 518 998.5 490.5 c 128,-1,3
 927 463 927 463 848 463 c 0,4,5
 758 463 758 463 645 514 c 0,6,7
 623 524 623 524 612 528 c 0,8,9
 535 562 535 562 483.5 574 c 128,-1,10
 432 586 432 586 381 586 c 0,11,12
 303 586 303 586 232.5 557 c 128,-1,13
 162 528 162 528 88 465 c 1,14,-1
 88 694 l 1,15,16
 166 755 166 755 239 782 c 128,-1,17
 312 809 312 809 395 809 c 0,18,19
 448 809 448 809 498 798 c 128,-1,20
 548 787 548 787 622 756 c 0,21,22
 633 751 633 751 655 741 c 0,23,24
 771 686 771 686 864 686 c 0,25,26
 934 686 934 686 1003 716.5 c 128,-1,27
 1072 747 1072 747 1145 811 c 1,0,-1
EndSplineSet
EndChar

StartChar: Aring
Encoding: 197 197 99
Width: 1233
Flags: W
LayerCount: 2
Fore
SplineSet
815 1421 m 1,0,-1
 1200 0 l 1,1,-1
 905 0 l 1,2,-1
 813 369 l 1,3,-1
 418 369 l 1,4,-1
 328 0 l 1,5,-1
 33 0 l 1,6,-1
 418 1421 l 1,7,8
 374 1458 374 1458 353 1506.5 c 128,-1,9
 332 1555 332 1555 332 1616 c 0,10,11
 332 1733 332 1733 415.5 1817 c 128,-1,12
 499 1901 499 1901 616 1901 c 0,13,14
 734 1901 734 1901 817.5 1817 c 128,-1,15
 901 1733 901 1733 901 1616 c 0,16,17
 901 1554 901 1554 880 1506.5 c 128,-1,18
 859 1459 859 1459 815 1421 c 1,0,-1
485 1616 m 256,19,20
 485 1562 485 1562 524 1523.5 c 128,-1,21
 563 1485 563 1485 616 1485 c 0,22,23
 671 1485 671 1485 709.5 1523.5 c 128,-1,24
 748 1562 748 1562 748 1616 c 256,25,26
 748 1670 748 1670 709 1708.5 c 128,-1,27
 670 1747 670 1747 616 1747 c 0,28,29
 563 1747 563 1747 524 1708.5 c 128,-1,30
 485 1670 485 1670 485 1616 c 256,19,20
616 1223 m 1,31,-1
 477 612 l 1,32,-1
 756 612 l 1,33,-1
 616 1223 l 1,31,-1
EndSplineSet
EndChar

StartChar: oacute
Encoding: 243 243 121
Width: 1233
Flags: W
LayerCount: 2
Fore
SplineSet
752 1561 m 1,0,-1
 1034 1561 l 1,1,-1
 666 1262 l 1,2,-1
 469 1262 l 1,3,-1
 752 1561 l 1,0,-1
616 909 m 0,4,5
 511 909 511 909 451 816.5 c 128,-1,6
 391 724 391 724 391 559 c 256,7,8
 391 394 391 394 451 301.5 c 128,-1,9
 511 209 511 209 616 209 c 0,10,11
 722 209 722 209 782 301.5 c 128,-1,12
 842 394 842 394 842 559 c 256,13,14
 842 724 842 724 782 816.5 c 128,-1,15
 722 909 722 909 616 909 c 0,4,5
98 559 m 256,16,17
 98 830 98 830 238.5 988.5 c 128,-1,18
 379 1147 379 1147 616 1147 c 0,19,20
 854 1147 854 1147 994.5 988.5 c 128,-1,21
 1135 830 1135 830 1135 559 c 256,22,23
 1135 288 1135 288 994.5 129.5 c 128,-1,24
 854 -29 854 -29 616 -29 c 0,25,26
 379 -29 379 -29 238.5 129.5 c 128,-1,27
 98 288 98 288 98 559 c 256,16,17
EndSplineSet
EndChar

StartChar: ograve
Encoding: 242 242 122
Width: 1233
Flags: W
LayerCount: 2
Fore
SplineSet
481 1561 m 1,0,-1
 764 1262 l 1,1,-1
 567 1262 l 1,2,-1
 199 1561 l 1,3,-1
 481 1561 l 1,0,-1
616 909 m 0,4,5
 511 909 511 909 451 816.5 c 128,-1,6
 391 724 391 724 391 559 c 256,7,8
 391 394 391 394 451 301.5 c 128,-1,9
 511 209 511 209 616 209 c 0,10,11
 722 209 722 209 782 301.5 c 128,-1,12
 842 394 842 394 842 559 c 256,13,14
 842 724 842 724 782 816.5 c 128,-1,15
 722 909 722 909 616 909 c 0,4,5
98 559 m 256,16,17
 98 830 98 830 238.5 988.5 c 128,-1,18
 379 1147 379 1147 616 1147 c 0,19,20
 854 1147 854 1147 994.5 988.5 c 128,-1,21
 1135 830 1135 830 1135 559 c 256,22,23
 1135 288 1135 288 994.5 129.5 c 128,-1,24
 854 -29 854 -29 616 -29 c 0,25,26
 379 -29 379 -29 238.5 129.5 c 128,-1,27
 98 288 98 288 98 559 c 256,16,17
EndSplineSet
EndChar

StartChar: ocircumflex
Encoding: 244 244 123
Width: 1233
Flags: W
LayerCount: 2
Fore
SplineSet
496 1561 m 1,0,-1
 737 1561 l 1,1,-1
 993 1262 l 1,2,-1
 815 1262 l 1,3,-1
 616 1409 l 1,4,-1
 418 1262 l 1,5,-1
 240 1262 l 1,6,-1
 496 1561 l 1,0,-1
616 909 m 0,7,8
 511 909 511 909 451 816.5 c 128,-1,9
 391 724 391 724 391 559 c 256,10,11
 391 394 391 394 451 301.5 c 128,-1,12
 511 209 511 209 616 209 c 0,13,14
 722 209 722 209 782 301.5 c 128,-1,15
 842 394 842 394 842 559 c 256,16,17
 842 724 842 724 782 816.5 c 128,-1,18
 722 909 722 909 616 909 c 0,7,8
98 559 m 256,19,20
 98 830 98 830 238.5 988.5 c 128,-1,21
 379 1147 379 1147 616 1147 c 0,22,23
 854 1147 854 1147 994.5 988.5 c 128,-1,24
 1135 830 1135 830 1135 559 c 256,25,26
 1135 288 1135 288 994.5 129.5 c 128,-1,27
 854 -29 854 -29 616 -29 c 0,28,29
 379 -29 379 -29 238.5 129.5 c 128,-1,30
 98 288 98 288 98 559 c 256,19,20
EndSplineSet
EndChar

StartChar: odieresis
Encoding: 246 246 124
Width: 1233
Flags: W
LayerCount: 2
Fore
SplineSet
301 1561 m 1,0,-1
 537 1561 l 1,1,-1
 537 1315 l 1,2,-1
 301 1315 l 1,3,-1
 301 1561 l 1,0,-1
696 1561 m 1,4,-1
 932 1561 l 1,5,-1
 932 1315 l 1,6,-1
 696 1315 l 1,7,-1
 696 1561 l 1,4,-1
616 909 m 0,8,9
 511 909 511 909 451 816.5 c 128,-1,10
 391 724 391 724 391 559 c 256,11,12
 391 394 391 394 451 301.5 c 128,-1,13
 511 209 511 209 616 209 c 0,14,15
 722 209 722 209 782 301.5 c 128,-1,16
 842 394 842 394 842 559 c 256,17,18
 842 724 842 724 782 816.5 c 128,-1,19
 722 909 722 909 616 909 c 0,8,9
98 559 m 256,20,21
 98 830 98 830 238.5 988.5 c 128,-1,22
 379 1147 379 1147 616 1147 c 0,23,24
 854 1147 854 1147 994.5 988.5 c 128,-1,25
 1135 830 1135 830 1135 559 c 256,26,27
 1135 288 1135 288 994.5 129.5 c 128,-1,28
 854 -29 854 -29 616 -29 c 0,29,30
 379 -29 379 -29 238.5 129.5 c 128,-1,31
 98 288 98 288 98 559 c 256,20,21
EndSplineSet
EndChar

StartChar: otilde
Encoding: 245 245 125
Width: 1233
Flags: W
LayerCount: 2
Fore
SplineSet
618 1331 m 2,0,-1
 563 1368 l 2,1,2
 560 1370 560 1370 551 1376 c 0,3,4
 508 1405 508 1405 481 1405 c 0,5,6
 447 1405 447 1405 427.5 1373 c 128,-1,7
 408 1341 408 1341 408 1284 c 2,8,-1
 408 1276 l 1,9,-1
 268 1276 l 1,10,-1
 268 1309 l 2,11,12
 268 1422 268 1422 322 1491.5 c 128,-1,13
 376 1561 376 1561 465 1561 c 0,14,15
 501 1561 501 1561 536.5 1547.5 c 128,-1,16
 572 1534 572 1534 614 1503 c 1,17,-1
 676 1460 l 2,18,19
 697 1445 697 1445 715.5 1437.5 c 128,-1,20
 734 1430 734 1430 750 1430 c 0,21,22
 786 1430 786 1430 805.5 1461 c 128,-1,23
 825 1492 825 1492 825 1550 c 2,24,-1
 825 1559 l 1,25,-1
 965 1559 l 1,26,27
 965 1552 965 1552 964 1541.5 c 128,-1,28
 963 1531 963 1531 963 1526 c 0,29,30
 963 1411 963 1411 909.5 1342.5 c 128,-1,31
 856 1274 856 1274 768 1274 c 0,32,33
 733 1274 733 1274 700.5 1285.5 c 128,-1,34
 668 1297 668 1297 618 1331 c 2,0,-1
616 909 m 0,35,36
 511 909 511 909 451 816.5 c 128,-1,37
 391 724 391 724 391 559 c 256,38,39
 391 394 391 394 451 301.5 c 128,-1,40
 511 209 511 209 616 209 c 0,41,42
 722 209 722 209 782 301.5 c 128,-1,43
 842 394 842 394 842 559 c 256,44,45
 842 724 842 724 782 816.5 c 128,-1,46
 722 909 722 909 616 909 c 0,35,36
98 559 m 256,47,48
 98 830 98 830 238.5 988.5 c 128,-1,49
 379 1147 379 1147 616 1147 c 0,50,51
 854 1147 854 1147 994.5 988.5 c 128,-1,52
 1135 830 1135 830 1135 559 c 256,53,54
 1135 288 1135 288 994.5 129.5 c 128,-1,55
 854 -29 854 -29 616 -29 c 0,56,57
 379 -29 379 -29 238.5 129.5 c 128,-1,58
 98 288 98 288 98 559 c 256,47,48
EndSplineSet
EndChar

StartChar: dagger
Encoding: 8224 8224 130
Width: 1134
VWidth: 2220
Flags: HW
LayerCount: 2
Fore
SplineSet
687.401 813.069 m 0
 724.19 702.151 724.19 702.151 732.595 651.164 c 0
 741 600.176 741 600.176 741 513 c 0
 741 302.095 741 302.095 722.886 60.0688 c 0
 704.771 -181.957 704.771 -181.957 690.473 -300.585 c 0
 676.174 -419.214 676.174 -419.214 668.671 -455.374 c 0
 662.457 -485.323 662.457 -485.323 638.666 -501.184 c 0
 614.874 -517.045 614.874 -517.045 599.233 -518.022 c 0
 583.592 -519 583.592 -519 566 -519 c 0
 551.041 -519 551.041 -519 538.94 -518.069 c 0
 526.84 -517.139 526.84 -517.139 506.316 -507.561 c 0
 485.792 -497.983 485.792 -497.983 475.124 -473.09 c 1
 480.754 -482.997 l 2
 478.612 -478.2 478.612 -478.2 476.218 -473.551 c 2
 472.389 -466.186 l 2
 470.955 -463.47 470.955 -463.47 470.526 -462.168 c 0
 461.888 -435.962 461.888 -435.962 451.396 -352.339 c 0
 393 113.062 393 113.062 393 513 c 0
 393 596.899 393 596.899 400.873 648.075 c 0
 408.746 699.25 408.746 699.25 442.73 800.455 c 0
 461.043 854.991 461.043 854.991 466.135 872.43 c 1
 448.43 864.648 448.43 864.648 435.553 858.258 c 0
 340.718 811.193 340.718 811.193 269.425 810.004 c 1
 187.805 810.004 187.805 810.004 139.402 861.965 c 0
 91 913.927 91 913.927 91 986 c 0
 91 1053 91 1053 113.301 1078.76 c 0
 135.603 1104.53 135.603 1104.53 141.409 1110.37 c 0
 147.216 1116.21 147.216 1116.21 150.247 1118.79 c 2
 159.709 1126.54 l 2
 166.14 1131.71 166.14 1131.71 173.384 1135.87 c 0
 180.628 1140.03 180.628 1140.03 189.04 1143.71 c 0
 223.961 1159 223.961 1159 269 1159 c 0
 304.344 1159 304.344 1159 343.6 1147.45 c 0
 382.856 1135.91 382.856 1135.91 396.186 1129.82 c 2
 467.752 1096.13 l 1
 457.764 1136.03 457.764 1136.03 442.246 1188.04 c 0
 393 1344.16 393 1344.16 393 1427 c 0
 393 1473.64 393 1473.64 406.361 1502.45 c 0
 419.722 1531.26 419.722 1531.26 419.859 1531.49 c 0
 435.638 1557.6 435.638 1557.6 460.559 1575.04 c 0
 485.48 1592.49 485.48 1592.49 512.998 1600.74 c 0
 540.515 1609 540.515 1609 568 1609 c 0
 593.42 1609 593.42 1609 619.975 1601.11 c 0
 646.53 1593.21 646.53 1593.21 671.12 1576.87 c 0
 695.709 1560.52 695.709 1560.52 711.753 1535.77 c 0
 717.936 1526.24 717.936 1526.24 729.468 1501.84 c 0
 741 1477.45 741 1477.45 741 1427 c 0
 741 1388.35 741 1388.35 732.382 1341.49 c 0
 723.765 1294.63 723.765 1294.63 719.196 1277.97 c 2
 690.703 1176.92 l 1
 675.942 1133.06 675.942 1133.06 666.191 1095.99 c 1
 682.073 1103.06 682.073 1103.06 699.192 1111.62 c 0
 793.961 1159 793.961 1159 866 1159 c 0
 947.416 1159 947.416 1159 995.208 1106.93 c 0
 1043 1054.86 1043 1054.86 1043 983 c 0
 1043 916.23 1043 916.23 1021.1 890.52 c 0
 999.198 864.809 999.198 864.809 993.393 858.895 c 0
 987.586 852.979 987.586 852.979 984.591 850.408 c 2
 975.175 842.612 l 2
 968.754 837.388 968.754 837.388 961.533 833.211 c 0
 954.312 829.034 954.312 829.034 945.914 825.335 c 0
 911.099 810 911.099 810 866 810 c 0
 830.758 810 830.758 810 790.996 821.525 c 0
 751.233 833.051 751.233 833.051 737.859 839.156 c 2
 669.093 871.532 l 1
 676.821 844.969 676.821 844.969 687.401 813.069 c 0
EndSplineSet
EndChar

StartChar: degree
Encoding: 176 176 131
Width: 1233
Flags: W
LayerCount: 2
Fore
SplineSet
616 1520 m 0,0,1
 683 1520 683 1520 744 1494.5 c 128,-1,2
 805 1469 805 1469 852 1421 c 0,3,4
 899 1374 899 1374 923.5 1314 c 128,-1,5
 948 1254 948 1254 948 1186 c 0,6,7
 948 1120 948 1120 923 1059 c 128,-1,8
 898 998 898 998 852 952 c 0,9,10
 804 905 804 905 743 879.5 c 128,-1,11
 682 854 682 854 614 854 c 0,12,13
 473 854 473 854 378 949 c 128,-1,14
 283 1044 283 1044 283 1186 c 0,15,16
 283 1327 283 1327 379 1423.5 c 128,-1,17
 475 1520 475 1520 616 1520 c 0,0,1
616 1358 m 0,18,19
 544 1358 544 1358 494 1308 c 128,-1,20
 444 1258 444 1258 444 1186 c 256,21,22
 444 1114 444 1114 493 1065 c 128,-1,23
 542 1016 542 1016 614 1016 c 256,24,25
 686 1016 686 1016 736 1065.5 c 128,-1,26
 786 1115 786 1115 786 1186 c 0,27,28
 786 1258 786 1258 736.5 1308 c 128,-1,29
 687 1358 687 1358 616 1358 c 0,18,19
EndSplineSet
EndChar

StartChar: cent
Encoding: 162 162 132
Width: 1233
Flags: W
LayerCount: 2
Fore
SplineSet
1036 1077 m 1,0,-1
 1036 809 l 1,1,2
 980 851 980 851 920 875.5 c 128,-1,3
 860 900 860 900 797 907 c 1,4,-1
 797 215 l 1,5,6
 861 220 861 220 920.5 244 c 128,-1,7
 980 268 980 268 1036 311 c 1,8,-1
 1036 43 l 1,9,10
 984 14 984 14 924 -3 c 128,-1,11
 864 -20 864 -20 797 -25 c 1,12,-1
 797 -313 l 1,13,-1
 655 -313 l 1,14,-1
 655 -25 l 1,15,16
 420 -3 420 -3 283.5 154 c 128,-1,17
 147 311 147 311 147 561 c 0,18,19
 147 816 147 816 283.5 972.5 c 128,-1,20
 420 1129 420 1129 655 1145 c 1,21,-1
 655 1432 l 1,22,-1
 797 1432 l 1,23,-1
 797 1145 l 1,24,25
 858 1140 858 1140 916.5 1123.5 c 128,-1,26
 975 1107 975 1107 1036 1077 c 1,0,-1
655 215 m 1,27,-1
 655 907 l 1,28,29
 541 893 541 893 479.5 803.5 c 128,-1,30
 418 714 418 714 418 561 c 0,31,32
 418 406 418 406 481 313.5 c 128,-1,33
 544 221 544 221 655 215 c 1,27,-1
EndSplineSet
EndChar

StartChar: sterling
Encoding: 163 163 133
Width: 1233
Flags: W
LayerCount: 2
Fore
SplineSet
1102 1462 m 1,0,-1
 1102 1188 l 1,1,2
 1045 1229 1045 1229 980 1250.5 c 128,-1,3
 915 1272 915 1272 846 1272 c 0,4,5
 740 1272 740 1272 690.5 1205.5 c 128,-1,6
 641 1139 641 1139 641 995 c 2,7,-1
 641 819 l 1,8,-1
 977 819 l 1,9,-1
 977 594 l 1,10,-1
 641 594 l 1,11,-1
 641 260 l 1,12,-1
 1122 260 l 1,13,-1
 1122 0 l 1,14,-1
 119 0 l 1,15,-1
 119 260 l 1,16,-1
 354 260 l 1,17,-1
 354 594 l 1,18,-1
 156 594 l 1,19,-1
 156 819 l 1,20,-1
 354 819 l 1,21,-1
 354 1016 l 2,22,23
 354 1272 354 1272 466.5 1396 c 128,-1,24
 579 1520 579 1520 811 1520 c 0,25,26
 894 1520 894 1520 965 1505.5 c 128,-1,27
 1036 1491 1036 1491 1102 1462 c 1,0,-1
EndSplineSet
EndChar

StartChar: section
Encoding: 167 167 134
Width: 1233
Flags: W
LayerCount: 2
Fore
SplineSet
518 856 m 1,0,1
 463 820 463 820 438.5 785.5 c 128,-1,2
 414 751 414 751 414 711 c 0,3,4
 414 657 414 657 462.5 613 c 128,-1,5
 511 569 511 569 711 473 c 1,6,7
 766 509 766 509 790.5 543.5 c 128,-1,8
 815 578 815 578 815 621 c 0,9,10
 815 702 815 702 550 840 c 1,11,-1
 518 856 l 1,0,1
930 1460 m 1,12,-1
 930 1235 l 1,13,14
 845 1265 845 1265 779 1279.5 c 128,-1,15
 713 1294 713 1294 659 1294 c 0,16,17
 583 1294 583 1294 540.5 1265 c 128,-1,18
 498 1236 498 1236 498 1184 c 0,19,20
 498 1109 498 1109 701 1004 c 0,21,22
 720 994 720 994 729 989 c 0,23,24
 943 879 943 879 1002 808.5 c 128,-1,25
 1061 738 1061 738 1061 637 c 0,26,27
 1061 548 1061 548 1013.5 484 c 128,-1,28
 966 420 966 420 864 373 c 1,29,30
 934 323 934 323 966.5 261.5 c 128,-1,31
 999 200 999 200 999 119 c 0,32,33
 999 -28 999 -28 894.5 -111.5 c 128,-1,34
 790 -195 790 -195 604 -195 c 0,35,36
 515 -195 515 -195 429 -180.5 c 128,-1,37
 343 -166 343 -166 258 -137 c 1,38,-1
 258 92 l 1,39,40
 343 62 343 62 424 46.5 c 128,-1,41
 505 31 505 31 578 31 c 0,42,43
 655 31 655 31 696 59.5 c 128,-1,44
 737 88 737 88 737 141 c 0,45,46
 737 211 737 211 523 326 c 1,47,-1
 512 332 l 1,48,-1
 486 346 l 2,49,50
 170 516 170 516 170 688 c 0,51,52
 170 782 170 782 222 851.5 c 128,-1,53
 274 921 274 921 371 954 c 1,54,55
 300 1004 300 1004 268 1064 c 128,-1,56
 236 1124 236 1124 236 1206 c 0,57,58
 236 1348 236 1348 340 1434 c 128,-1,59
 444 1520 444 1520 616 1520 c 0,60,61
 690 1520 690 1520 768.5 1505 c 128,-1,62
 847 1490 847 1490 930 1460 c 1,12,-1
EndSplineSet
EndChar

StartChar: bullet
Encoding: 8226 8226 135
Width: 1110
VWidth: 2220
Flags: HW
LayerCount: 2
Fore
SplineSet
970.805 315.74 m 128,-1,2
 907.61 205.01 907.61 205.01 796.297 139.005 c 128,-1,3
 684.984 73 684.984 73 553 73 c 0,4,5
 456.35 73 456.35 73 368.104 111.538 c 128,-1,6
 279.859 150.075 279.859 150.075 214.97 214.405 c 128,-1,7
 150.08 278.735 150.08 278.735 111.54 368.104 c 128,-1,8
 73 457.472 73 457.472 73 555 c 0,9,10
 73 683.633 73 683.633 136.739 794.338 c 128,-1,11
 200.479 905.043 200.479 905.043 311.747 971.021 c 128,-1,12
 423.016 1037 423.016 1037 555 1037 c 0,13,14
 651.65 1037 651.65 1037 739.896 998.462 c 128,-1,15
 828.141 959.925 828.141 959.925 893.08 895.546 c 128,-1,16
 958.02 831.167 958.02 831.167 996.01 741.777 c 128,-1,17
 1034 652.388 1034 652.388 1034 555 c 0,0,1
 1034 426.471 1034 426.471 970.805 315.74 c 128,-1,2
EndSplineSet
EndChar

StartChar: paragraph
Encoding: 182 182 136
Width: 1233
Flags: W
LayerCount: 2
Fore
SplineSet
545 1493 m 2,0,-1
 1065 1493 l 1,1,-1
 1065 -197 l 1,2,-1
 874 -197 l 1,3,-1
 874 1346 l 1,4,-1
 684 1346 l 1,5,-1
 684 -197 l 1,6,-1
 496 -197 l 1,7,-1
 496 649 l 1,8,9
 291 674 291 674 180.5 783.5 c 128,-1,10
 70 893 70 893 70 1071 c 0,11,12
 70 1261 70 1261 200 1377 c 128,-1,13
 330 1493 330 1493 545 1493 c 2,0,-1
EndSplineSet
EndChar

StartChar: germandbls
Encoding: 223 223 137
Width: 1233
Flags: W
LayerCount: 2
Fore
SplineSet
1034 1059 m 1,0,1
 909 1053 909 1053 844.5 1007.5 c 128,-1,2
 780 962 780 962 780 881 c 0,3,4
 780 817 780 817 896 728 c 0,5,6
 909 718 909 718 915 713 c 2,7,-1
 1012 639 l 2,8,9
 1094 577 1094 577 1134 500.5 c 128,-1,10
 1174 424 1174 424 1174 330 c 0,11,12
 1174 163 1174 163 1062 67 c 128,-1,13
 950 -29 950 -29 756 -29 c 0,14,15
 695 -29 695 -29 633 -16.5 c 128,-1,16
 571 -4 571 -4 504 20 c 1,17,-1
 504 270 l 1,18,19
 562 239 562 239 619.5 223 c 128,-1,20
 677 207 677 207 731 207 c 0,21,22
 804 207 804 207 846.5 240.5 c 128,-1,23
 889 274 889 274 889 332 c 0,24,25
 889 404 889 404 774 492 c 0,26,27
 745 514 745 514 729 526 c 2,28,-1
 643 594 l 1,29,30
 584 642 584 642 554 705.5 c 128,-1,31
 524 769 524 769 524 846 c 0,32,33
 524 972 524 972 598 1057.5 c 128,-1,34
 672 1143 672 1143 809 1174 c 1,35,36
 800 1248 800 1248 751 1284.5 c 128,-1,37
 702 1321 702 1321 610 1321 c 0,38,39
 516 1321 516 1321 468 1270.5 c 128,-1,40
 420 1220 420 1220 420 1122 c 2,41,-1
 420 0 l 1,42,-1
 127 0 l 1,43,-1
 127 1126 l 2,44,45
 127 1337 127 1337 247.5 1446.5 c 128,-1,46
 368 1556 368 1556 598 1556 c 0,47,48
 821 1556 821 1556 927.5 1437.5 c 128,-1,49
 1034 1319 1034 1319 1034 1073 c 2,50,-1
 1034 1059 l 1,0,1
EndSplineSet
EndChar

StartChar: registered
Encoding: 174 174 138
Width: 1233
Flags: W
LayerCount: 2
Fore
SplineSet
616 1358 m 0,0,1
 743 1358 743 1358 852 1313 c 128,-1,2
 961 1268 961 1268 1051 1178 c 0,3,4
 1141 1087 1141 1087 1187 977 c 128,-1,5
 1233 867 1233 867 1233 741 c 0,6,7
 1233 616 1233 616 1187.5 507 c 128,-1,8
 1142 398 1142 398 1051 307 c 256,9,10
 960 216 960 216 851 170.5 c 128,-1,11
 742 125 742 125 616 125 c 0,12,13
 491 125 491 125 382 170.5 c 128,-1,14
 273 216 273 216 182 307 c 256,15,16
 91 398 91 398 45.5 507 c 128,-1,17
 0 616 0 616 0 741 c 0,18,19
 0 867 0 867 46 977 c 128,-1,20
 92 1087 92 1087 182 1178 c 0,21,22
 272 1268 272 1268 381 1313 c 128,-1,23
 490 1358 490 1358 616 1358 c 0,0,1
588 944 m 2,24,-1
 524 944 l 1,25,-1
 524 780 l 1,26,-1
 588 780 l 2,27,28
 645 780 645 780 673.5 800 c 128,-1,29
 702 820 702 820 702 860 c 0,30,31
 702 903 702 903 674 923.5 c 128,-1,32
 646 944 646 944 588 944 c 2,24,-1
606 1055 m 2,33,34
 739 1055 739 1055 803.5 1011 c 128,-1,35
 868 967 868 967 868 877 c 0,36,37
 868 812 868 812 829 769.5 c 128,-1,38
 790 727 790 727 719 715 c 1,39,40
 757 701 757 701 784.5 673 c 128,-1,41
 812 645 812 645 836 596 c 2,42,-1
 915 430 l 1,43,-1
 743 430 l 1,44,-1
 680 563 l 2,45,46
 653 621 653 621 624.5 644.5 c 128,-1,47
 596 668 596 668 555 670 c 1,48,-1
 524 670 l 1,49,-1
 524 430 l 1,50,-1
 360 430 l 1,51,-1
 360 1055 l 1,52,-1
 606 1055 l 2,33,34
616 1229 m 0,53,54
 517 1229 517 1229 432 1193.5 c 128,-1,55
 347 1158 347 1158 274 1085 c 0,56,57
 203 1014 203 1014 167 928 c 128,-1,58
 131 842 131 842 131 741 c 0,59,60
 131 643 131 643 167 558 c 128,-1,61
 203 473 203 473 274 399 c 1,62,63
 346 328 346 328 431.5 292 c 128,-1,64
 517 256 517 256 616 256 c 256,65,66
 715 256 715 256 801 292 c 128,-1,67
 887 328 887 328 958 399 c 1,68,69
 1030 473 1030 473 1066 558 c 128,-1,70
 1102 643 1102 643 1102 741 c 0,71,72
 1102 842 1102 842 1066 928 c 128,-1,73
 1030 1014 1030 1014 958 1085 c 1,74,75
 886 1158 886 1158 801.5 1193.5 c 128,-1,76
 717 1229 717 1229 616 1229 c 0,53,54
EndSplineSet
EndChar

StartChar: copyright
Encoding: 169 169 139
Width: 1233
Flags: W
LayerCount: 2
Fore
SplineSet
848 1049 m 1,0,-1
 848 881 l 1,1,2
 796 912 796 912 750.5 926 c 128,-1,3
 705 940 705 940 657 940 c 0,4,5
 560 940 560 940 506.5 888 c 128,-1,6
 453 836 453 836 453 741 c 256,7,8
 453 646 453 646 506 594.5 c 128,-1,9
 559 543 559 543 657 543 c 0,10,11
 710 543 710 543 758 557.5 c 128,-1,12
 806 572 806 572 848 602 c 1,13,-1
 848 434 l 1,14,15
 793 417 793 417 740 408 c 128,-1,16
 687 399 687 399 637 399 c 0,17,18
 468 399 468 399 367 492.5 c 128,-1,19
 266 586 266 586 266 741 c 0,20,21
 266 897 266 897 367 990 c 128,-1,22
 468 1083 468 1083 637 1083 c 0,23,24
 692 1083 692 1083 744.5 1074.5 c 128,-1,25
 797 1066 797 1066 848 1049 c 1,0,-1
616 1358 m 0,26,27
 743 1358 743 1358 852 1313 c 128,-1,28
 961 1268 961 1268 1051 1178 c 0,29,30
 1141 1087 1141 1087 1187 977 c 128,-1,31
 1233 867 1233 867 1233 741 c 0,32,33
 1233 616 1233 616 1187.5 507 c 128,-1,34
 1142 398 1142 398 1051 307 c 256,35,36
 960 216 960 216 851 170.5 c 128,-1,37
 742 125 742 125 616 125 c 0,38,39
 491 125 491 125 382 170.5 c 128,-1,40
 273 216 273 216 182 307 c 256,41,42
 91 398 91 398 45.5 507 c 128,-1,43
 0 616 0 616 0 741 c 0,44,45
 0 867 0 867 46 977 c 128,-1,46
 92 1087 92 1087 182 1178 c 0,47,48
 272 1268 272 1268 381 1313 c 128,-1,49
 490 1358 490 1358 616 1358 c 0,26,27
616 1229 m 0,50,51
 517 1229 517 1229 432 1193.5 c 128,-1,52
 347 1158 347 1158 274 1085 c 0,53,54
 203 1014 203 1014 167 928 c 128,-1,55
 131 842 131 842 131 741 c 0,56,57
 131 643 131 643 167 558 c 128,-1,58
 203 473 203 473 274 401 c 256,59,60
 345 329 345 329 431 292.5 c 128,-1,61
 517 256 517 256 616 256 c 0,62,63
 716 256 716 256 802 292.5 c 128,-1,64
 888 329 888 329 958 401 c 1,65,66
 1030 473 1030 473 1066 558 c 128,-1,67
 1102 643 1102 643 1102 741 c 0,68,69
 1102 842 1102 842 1066 928 c 128,-1,70
 1030 1014 1030 1014 958 1085 c 1,71,72
 886 1158 886 1158 801.5 1193.5 c 128,-1,73
 717 1229 717 1229 616 1229 c 0,50,51
EndSplineSet
EndChar

StartChar: trademark
Encoding: 8482 8482 140
Width: 1975
VWidth: 2220
Flags: HW
LayerCount: 2
Fore
SplineSet
1949 1545 m 1
 1949 1394 l 1
 1863 1394 l 2
 1846.2 1393.51 1846.2 1393.51 1839.82 1393.22 c 1
 1840 722 l 2
 1840.82 710.58 1840.82 710.58 1841.69 705.538 c 1
 1860.16 699.832 1860.16 699.832 1901.63 696.87 c 2
 1949 693.487 l 1
 1949 546 l 1
 1470 546 l 1
 1470 695.522 l 1
 1519.5 696.978 l 1
 1564.03 699.29 1564.03 699.29 1579.69 704.003 c 0
 1581.59 704.576 1581.59 704.576 1583.09 705.15 c 1
 1585 710.53 1585 710.53 1585 722 c 2
 1585 1100.82 l 1
 1362.5 546 l 1
 1244.46 546 l 1
 1037 1065.01 l 1
 1037 733 l 1
 1038.22 710.126 1038.22 710.126 1040.46 703.334 c 1
 1040.9 703.527 l 1
 1056.68 698.064 1056.68 698.064 1091.59 696.975 c 2
 1141 695.431 l 1
 1141 546 l 1
 739 546 l 1
 739 695.622 l 1
 788.604 696.98 l 2
 830.841 699.12 830.841 699.12 845.547 702.26 c 1
 848 713.508 848 713.508 848 735 c 2
 848 1394.25 l 1
 846.821 1394.23 l 2
 833.848 1394.02 833.848 1394.02 812 1394 c 1
 812 1199 l 1
 660.359 1199 l 1
 659.019 1248.62 l 2
 658.113 1282.1 658.113 1282.1 655.099 1300.18 c 0
 652.085 1318.27 652.085 1318.27 646.46 1328.72 c 0
 640.836 1339.16 640.836 1339.16 634.378 1343.68 c 0
 627.921 1348.2 627.921 1348.2 607.73 1353.81 c 0
 587.539 1359.42 587.539 1359.42 557.999 1361.21 c 0
 544.094 1362.05 544.094 1362.05 525.997 1362.5 c 1
 525.965 711.66 l 2
 525.715 706.904 525.715 706.904 525.714 702.796 c 0
 525.714 701.741 525.714 701.741 525.659 700.911 c 0
 533.88 699.581 533.88 699.581 551.96 698.349 c 0
 571.738 697 571.738 697 610 697 c 2
 661 697 l 1
 661 546 l 1
 131 546 l 1
 131 697 l 1
 182 697 l 2
 232.306 697 232.306 697 248.598 698.525 c 0
 263.616 699.931 263.616 699.931 270.661 702.364 c 1
 271 707.643 271 707.643 271 717 c 2
 271 1361.05 l 1
 251.193 1359.84 251.193 1359.84 235.888 1358.38 c 0
 206.883 1355.62 206.883 1355.62 188.957 1350.33 c 0
 171.031 1345.04 171.031 1345.04 164.03 1340.67 c 2
 160.679 1338.21 l 2
 157.349 1335.76 157.349 1335.76 151.299 1324.81 c 0
 145.249 1313.87 145.249 1313.87 141.397 1296.15 c 0
 137.548 1278.44 137.548 1278.44 134.824 1245.76 c 2
 130.927 1199 l 1
 -11 1199 l 1
 -11 1545 l 1
 757 1545 l 1
 812 1545 l 1
 1108.2 1545 l 1
 1338.73 983.034 l 1
 1566.65 1545 l 1
 1949 1545 l 1
EndSplineSet
EndChar

StartChar: acute
Encoding: 180 180 141
Width: 1233
Flags: W
LayerCount: 2
Fore
SplineSet
752 1638 m 1,0,-1
 1034 1638 l 1,1,-1
 666 1262 l 1,2,-1
 469 1262 l 1,3,-1
 752 1638 l 1,0,-1
EndSplineSet
EndChar

StartChar: dieresis
Encoding: 168 168 142
Width: 1233
Flags: W
LayerCount: 2
Fore
SplineSet
696 1585 m 1,0,-1
 932 1585 l 1,1,-1
 932 1339 l 1,2,-1
 696 1339 l 1,3,-1
 696 1585 l 1,0,-1
301 1585 m 1,4,-1
 537 1585 l 1,5,-1
 537 1339 l 1,6,-1
 301 1339 l 1,7,-1
 301 1585 l 1,4,-1
EndSplineSet
EndChar

StartChar: notequal
Encoding: 8800 8800 143
Width: 1724
VWidth: 2220
Flags: HW
LayerCount: 2
Fore
SplineSet
198 244 m 2
 179.323 244 179.323 244 166.483 245.352 c 0
 153.643 246.703 153.643 246.703 127.346 253.783 c 0
 101.049 260.863 101.049 260.863 89.7559 282.366 c 0
 78.4629 303.868 78.4629 303.868 76.1475 313.131 c 0
 73 325.722 73 325.722 73 340 c 0
 73 366.888 73 366.888 84.3682 386.213 c 0
 95.7363 405.539 95.7363 405.539 111.546 416.484 c 0
 127.355 427.43 127.355 427.43 146.226 430.575 c 0
 165.097 433.72 165.097 433.72 174.7 434.36 c 0
 184.303 435 184.303 435 200 435 c 2
 692.98 435 l 1
 816.249 675 l 1
 200 675 l 2
 184.303 675 184.303 675 174.7 675.64 c 0
 165.098 676.28 165.098 676.28 146.227 679.425 c 0
 127.355 682.57 127.355 682.57 111.274 693.704 c 0
 95.1934 704.837 95.1934 704.837 83.7173 725.494 c 0
 72.2412 746.15 72.2412 746.15 73 770 c 0
 73.5205 786.36 73.5205 786.36 76.1475 796.869 c 0
 79.8408 811.644 79.8408 811.644 92.3618 830.906 c 0
 104.883 850.169 104.883 850.169 129.191 856.713 c 0
 153.499 863.258 153.499 863.258 165.837 864.629 c 0
 178.175 866 178.175 866 198 866 c 2
 914.351 866 l 1
 1277.51 1573.05 l 1
 1294.44 1601.11 1294.44 1601.11 1302.01 1609.21 c 0
 1331.74 1641 1331.74 1641 1372 1641 c 0
 1418.16 1641 1418.16 1641 1432.86 1621.27 c 0
 1447.56 1601.54 1447.56 1601.54 1451.27 1595.39 c 2
 1456.49 1586.57 l 2
 1458 1583.92 1458 1583.92 1460.01 1579.71 c 0
 1462.03 1575.5 1462.03 1575.5 1463.18 1571.51 c 0
 1464.33 1567.52 1464.33 1567.52 1465.37 1562.1 c 0
 1466.9 1554.09 1466.9 1554.09 1467 1545.92 c 0
 1467 1545.58 1467 1545.58 1467.05 1544.95 c 0
 1467.11 1544.13 1467.11 1544.13 1467.06 1543.87 c 0
 1465.58 1537 1465.58 1537 1464.95 1530.88 c 0
 1464.31 1524.65 1464.31 1524.65 1463.03 1519.9 c 0
 1461.74 1515.14 1461.74 1515.14 1457.62 1505.37 c 0
 1455.36 1500.04 1455.36 1500.04 1452.46 1493.95 c 2
 1446.34 1481.65 l 1
 1130.13 866 l 1
 1527 866 l 2
 1545.68 866 1545.68 866 1558.52 864.648 c 0
 1571.36 863.297 1571.36 863.297 1597.65 856.217 c 0
 1623.95 849.137 1623.95 849.137 1635.24 827.634 c 0
 1646.54 806.131 1646.54 806.131 1648.85 796.869 c 0
 1652 784.279 1652 784.279 1652 770 c 0
 1652 741.939 1652 741.939 1639.94 723.299 c 0
 1627.88 704.658 1627.88 704.658 1613.26 693.698 c 0
 1598.65 682.738 1598.65 682.738 1579.28 679.509 c 0
 1559.9 676.28 1559.9 676.28 1550.3 675.64 c 0
 1540.7 675 1540.7 675 1525 675 c 2
 1032.02 675 l 1
 908.755 435 l 1
 1525 435 l 2
 1540.7 435 1540.7 435 1550.3 434.36 c 0
 1559.9 433.72 1559.9 433.72 1579.28 430.491 c 0
 1598.65 427.262 1598.65 427.262 1613.54 416.098 c 0
 1628.42 404.935 1628.42 404.935 1640.68 384.876 c 0
 1652.94 364.817 1652.94 364.817 1652 340 c 0
 1651.37 323.184 1651.37 323.184 1648.85 313.131 c 0
 1645.16 298.356 1645.16 298.356 1632.64 279.094 c 0
 1620.12 259.831 1620.12 259.831 1595.74 253.267 c 0
 1571.36 246.703 1571.36 246.703 1558.52 245.352 c 0
 1545.68 244 1545.68 244 1527 244 c 2
 810.652 244 l 1
 447.491 -463.055 l 1
 430.558 -491.11 430.558 -491.11 422.987 -499.206 c 0
 393.26 -530.999 393.26 -530.999 353 -531 c 0
 306.836 -531 306.836 -531 292.14 -511.269 c 0
 277.443 -491.538 277.443 -491.538 273.732 -485.386 c 2
 268.514 -476.574 l 2
 267.005 -473.914 267.005 -473.914 264.986 -469.708 c 0
 262.969 -465.501 262.969 -465.501 261.819 -461.513 c 0
 260.67 -457.523 260.67 -457.523 259.631 -452.101 c 0
 258 -443.594 258 -443.594 258 -435 c 0
 258 -414.326 258 -414.326 278.363 -372.242 c 1
 594.879 244 l 1
 198 244 l 2
EndSplineSet
EndChar

StartChar: AE
Encoding: 198 198 144
Width: 1233
Flags: W
LayerCount: 2
Fore
SplineSet
1161 1493 m 1,0,-1
 1161 1233 l 1,1,-1
 870 1233 l 1,2,-1
 870 922 l 1,3,-1
 1130 922 l 1,4,-1
 1130 662 l 1,5,-1
 870 662 l 1,6,-1
 870 260 l 1,7,-1
 1180 260 l 1,8,-1
 1180 0 l 1,9,-1
 616 0 l 1,10,-1
 616 362 l 1,11,-1
 334 362 l 1,12,-1
 248 0 l 1,13,-1
 0 0 l 1,14,-1
 358 1493 l 1,15,-1
 1161 1493 l 1,0,-1
537 1233 m 1,16,-1
 389 598 l 1,17,-1
 616 598 l 1,18,-1
 616 1233 l 1,19,-1
 537 1233 l 1,16,-1
EndSplineSet
EndChar

StartChar: Oslash
Encoding: 216 216 145
Width: 1233
Flags: W
LayerCount: 2
Fore
SplineSet
451 354 m 1,0,1
 475 297 475 297 517.5 266.5 c 128,-1,2
 560 236 560 236 616 236 c 0,3,4
 730 236 730 236 782 356.5 c 128,-1,5
 834 477 834 477 834 745 c 0,6,7
 834 773 834 773 833 804 c 128,-1,8
 832 835 832 835 829 888 c 1,9,-1
 451 354 l 1,0,1
772 1153 m 1,10,11
 746 1204 746 1204 707 1229.5 c 128,-1,12
 668 1255 668 1255 616 1255 c 0,13,14
 504 1255 504 1255 451.5 1135 c 128,-1,15
 399 1015 399 1015 399 756 c 2,16,-1
 399 629 l 1,17,-1
 772 1153 l 1,10,11
162 289 m 1,18,19
 127 377 127 377 109.5 490.5 c 128,-1,20
 92 604 92 604 92 745 c 0,21,22
 92 1128 92 1128 224.5 1324 c 128,-1,23
 357 1520 357 1520 616 1520 c 0,24,25
 719 1520 719 1520 802 1489 c 128,-1,26
 885 1458 885 1458 946 1397 c 1,27,-1
 1059 1559 l 1,28,-1
 1221 1444 l 1,29,-1
 1063 1221 l 1,30,31
 1102 1127 1102 1127 1121.5 1007.5 c 128,-1,32
 1141 888 1141 888 1141 745 c 0,33,34
 1141 363 1141 363 1008.5 167 c 128,-1,35
 876 -29 876 -29 616 -29 c 0,36,37
 510 -29 510 -29 425 4.5 c 128,-1,38
 340 38 340 38 276 104 c 1,39,-1
 156 -63 l 1,40,-1
 -6 51 l 1,41,-1
 162 289 l 1,18,19
EndSplineSet
EndChar

StartChar: infinity
Encoding: 8734 8734 146
Width: 2220
VWidth: 2220
Flags: HW
LayerCount: 2
Fore
SplineSet
970.775 426.718 m 1
 886.002 536.691 l 2
 801.229 646.665 801.229 646.665 770.205 680.758 c 0
 701.768 755.966 701.768 755.966 639.842 789.983 c 0
 577.915 824 577.915 824 515 824 c 0
 438.482 824 438.482 824 371.98 779.524 c 0
 305.479 735.048 305.479 735.048 264.739 654.446 c 0
 224 573.844 224 573.844 224 477 c 0
 224 421.824 224 421.824 236.588 367.423 c 0
 249.177 313.022 249.177 313.022 275.424 263.643 c 0
 301.672 214.263 301.672 214.263 337.167 177.483 c 0
 372.663 140.704 372.663 140.704 421.648 119.352 c 0
 470.633 98 470.633 98 528 98 c 0
 590.71 98 590.71 98 652.038 121.109 c 0
 713.365 144.218 713.365 144.218 760.44 179.072 c 0
 807.516 213.926 807.516 213.926 853.584 265.165 c 0
 899.652 316.403 899.652 316.403 925.097 354.368 c 0
 950.541 392.332 950.541 392.332 970.775 426.718 c 1
1246.26 530.231 m 1
 1329.08 422.816 l 2
 1411.89 315.4 1411.89 315.4 1447.55 276.506 c 0
 1517.29 200.45 1517.29 200.45 1578.69 166.725 c 0
 1640.08 133 1640.08 133 1703 133 c 0
 1779.52 133 1779.52 133 1846.02 177.476 c 0
 1912.52 221.952 1912.52 221.952 1953.26 302.554 c 0
 1994 383.156 1994 383.156 1994 480 c 0
 1994 535.177 1994 535.177 1981.41 589.577 c 0
 1968.82 643.977 1968.82 643.977 1942.58 693.357 c 0
 1916.33 742.737 1916.33 742.737 1880.83 779.517 c 0
 1845.34 816.296 1845.34 816.296 1796.35 837.648 c 0
 1747.37 859 1747.37 859 1689 859 c 0
 1626.35 859 1626.35 859 1565.59 835.938 c 0
 1504.83 812.877 1504.83 812.877 1457.71 777.535 c 0
 1410.59 742.193 1410.59 742.193 1364.36 690.778 c 0
 1318.14 639.362 1318.14 639.362 1292.29 601.803 c 0
 1266.44 564.244 1266.44 564.244 1246.26 530.231 c 1
1095.48 266.558 m 1
 1065.99 226.489 l 2
 1034.06 184.093 1034.06 184.093 1000.6 148.506 c 0
 967.138 112.919 967.138 112.919 916.194 69.9355 c 0
 865.251 26.9521 865.251 26.9521 811.079 -3.69092 c 0
 756.906 -34.334 756.906 -34.334 686.564 -54.667 c 0
 616.223 -75 616.223 -75 544 -75 c 0
 456.911 -75 456.911 -75 379.593 -43.1631 c 0
 302.274 -11.3262 302.274 -11.3262 246.662 43.7251 c 0
 191.049 98.7764 191.049 98.7764 151.607 168.895 c 0
 112.166 239.013 112.166 239.013 92.583 317.888 c 0
 73 396.764 73 396.764 73 477 c 0
 73 583.404 73 583.404 106.746 683.01 c 0
 140.492 782.615 140.492 782.615 201.095 859.898 c 0
 261.697 937.181 261.697 937.181 353.131 984.59 c 0
 444.564 1032 444.564 1032 551 1032 c 0
 766.533 1032 766.533 1032 961.143 866.762 c 0
 998.468 835.07 998.468 835.07 1027.05 803.187 c 0
 1049.4 778.26 1049.4 778.26 1122.52 690.441 c 1
 1152.01 730.509 l 2
 1183.94 772.906 1183.94 772.906 1217.4 808.493 c 0
 1250.86 844.08 1250.86 844.08 1301.84 887.091 c 0
 1352.81 930.103 1352.81 930.103 1406.42 960.185 c 0
 1460.02 990.268 1460.02 990.268 1530.3 1011.13 c 0
 1600.59 1032 1600.59 1032 1674 1032 c 0
 1761.33 1032 1761.33 1032 1837.99 999.632 c 0
 1914.65 967.265 1914.65 967.265 1970.73 912.859 c 0
 2026.82 858.454 2026.82 858.454 2066.37 788.147 c 0
 2105.92 717.841 2105.92 717.841 2124.96 638.955 c 0
 2144 560.068 2144 560.068 2144 480 c 0
 2144 373.723 2144 373.723 2110.81 274.147 c 0
 2077.62 174.572 2077.62 174.572 2016.96 96.666 c 0
 1956.3 18.7598 1956.3 18.7598 1864.8 -28.1201 c 0
 1773.3 -75 1773.3 -75 1667 -75 c 0
 1451.47 -75 1451.47 -75 1256.86 90.2383 c 0
 1219.53 121.93 1219.53 121.93 1190.95 153.812 c 0
 1168.6 178.739 1168.6 178.739 1095.48 266.558 c 1
EndSplineSet
EndChar

StartChar: plusminus
Encoding: 177 177 147
Width: 1724
VWidth: 2220
Flags: W
LayerCount: 2
Fore
SplineSet
959 140 m 1,0,0
 1527 140 l 2,2,3
 1545.68 140 1545.68 140 1558.52 138.648 c 128,-1,4
 1571.36 137.297 1571.36 137.297 1595.74 130.733 c 128,-1,5
 1620.12 124.169 1620.12 124.169 1636.06 99.6436 c 128,-1,6
 1652 75.1182 1652 75.1182 1652 44.5 c 128,-1,7
 1652 13.8818 1652 13.8818 1636.06 -10.6436 c 128,-1,8
 1620.12 -35.1689 1620.12 -35.1689 1595.81 -41.7134 c 128,-1,9
 1571.5 -48.2578 1571.5 -48.2578 1559.16 -49.6289 c 128,-1,10
 1546.82 -51 1546.82 -51 1527 -51 c 2,11,-1
 198 -51 l 2,12,13
 179.323 -51 179.323 -51 166.483 -49.6484 c 128,-1,14
 153.643 -48.2969 153.643 -48.2969 129.263 -41.7329 c 128,-1,15
 104.883 -35.1689 104.883 -35.1689 88.9414 -10.6436 c 128,-1,16
 73 13.8818 73 13.8818 73 44.5 c 128,-1,17
 73 75.1182 73 75.1182 88.9414 99.6436 c 128,-1,18
 104.883 124.169 104.883 124.169 129.191 130.713 c 128,-1,19
 153.5 137.258 153.5 137.258 165.838 138.629 c 128,-1,20
 178.176 140 178.176 140 198 140 c 2,21,-1
 768 140 l 1,0,0
 768 644 l 1,0,0
 198 644 l 2,24,25
 179.323 644 179.323 644 166.483 645.352 c 128,-1,26
 153.644 646.703 153.644 646.703 129.263 653.267 c 128,-1,27
 104.883 659.831 104.883 659.831 88.9414 684.356 c 128,-1,28
 73 708.882 73 708.882 73 739.5 c 128,-1,29
 73 770.118 73 770.118 88.9414 794.644 c 128,-1,30
 104.883 819.169 104.883 819.169 129.191 825.713 c 128,-1,31
 153.499 832.258 153.499 832.258 165.837 833.629 c 128,-1,32
 178.175 835 178.175 835 198 835 c 2,33,-1
 768 835 l 1,0,0
 768 1407 l 2,35,36
 768 1425.83 768 1425.83 769.371 1438.16 c 128,-1,37
 770.742 1450.5 770.742 1450.5 777.424 1475.32 c 128,-1,38
 784.105 1500.14 784.105 1500.14 808.605 1514.84 c 128,-1,39
 833.104 1529.54 833.104 1529.54 861.147 1529.54 c 0,0,0
 864.646 1529.54 864.646 1529.54 876.487 1527.99 c 128,-1,40
 888.328 1526.45 888.328 1526.45 891.126 1525.68 c 0,41,42
 905.146 1521.83 905.146 1521.83 911.217 1517.8 c 128,-1,41
 917.287 1513.76 917.287 1513.76 921.512 1510.51 c 0,42,43
 925.736 1507.26 925.736 1507.26 929.603 1503.76 c 0,44,45
 933.47 1500.26 933.47 1500.26 938.674 1492.88 c 0,46,47
 943.877 1485.51 943.877 1485.51 947.531 1476.6 c 0,48,49
 950.288 1469.87 950.288 1469.87 953.343 1457.22 c 128,-1,42
 956.398 1444.56 956.398 1444.56 957.699 1431.55 c 128,-1,43
 959 1418.54 959 1418.54 959 1399 c 2,44,-1
 959 835 l 1,0,0
 1527 835 l 2,46,47
 1545.68 835 1545.68 835 1558.52 833.648 c 128,-1,48
 1571.36 832.297 1571.36 832.297 1595.74 825.733 c 128,-1,49
 1620.12 819.169 1620.12 819.169 1636.06 794.644 c 128,-1,50
 1652 770.118 1652 770.118 1652 739.5 c 128,-1,51
 1652 708.882 1652 708.882 1636.06 684.356 c 128,-1,52
 1620.12 659.831 1620.12 659.831 1595.81 653.287 c 128,-1,53
 1571.5 646.742 1571.5 646.742 1559.16 645.371 c 128,-1,54
 1546.83 644 1546.83 644 1527 644 c 2,55,-1
 959 644 l 1,0,0
 959 140 l 1,0,0
EndSplineSet
EndChar

StartChar: lessequal
Encoding: 8804 8804 148
Width: 1724
VWidth: 2220
Flags: HW
LayerCount: 2
Fore
SplineSet
452.321 768.066 m 1,0,0
 1520.29 263.867 l 2,2,3
 1536.63 255.697 1536.63 255.697 1543.81 251.39 c 128,-1,4
 1550.99 247.082 1550.99 247.082 1564.77 236.252 c 128,-1,5
 1578.56 225.422 1578.56 225.422 1585.28 207.946 c 128,-1,6
 1592 190.471 1592 190.471 1592 171 c 1,7,8
 1590.63 163.938 1590.63 163.938 1589.09 155.01 c 0
 1587.56 146.081 1587.56 146.081 1586.96 143.047 c 0
 1586.36 140.014 1586.36 140.014 1584.89 135.168 c 0
 1583.41 130.322 1583.41 130.322 1581.4 126.805 c 0
 1579.39 123.288 1579.39 123.288 1575.78 118.014 c 0
 1570.66 110.539 1570.66 110.539 1553.39 93.2695 c 128,-1,9
 1536.12 76 1536.12 76 1496 76 c 1,10,11
 1465.18 81.2725 1465.18 81.2725 1457.58 84.2939 c 0
 1452.09 86.4805 1452.09 86.4805 1446.2 89.29 c 0
 1441.35 91.6045 1441.35 91.6045 1435.97 94.5176 c 2,12,-1
 204.429 675.787 l 2,13,14
 190.28 682.318 190.28 682.318 176.752 689.533 c 128,-1,15
 163.224 696.747 163.224 696.747 148.112 718.335 c 128,-1,16
 133 739.924 133 739.924 133 768 c 0,17,18
 133 787.248 133 787.248 140.088 806.151 c 128,-1,19
 147.177 825.054 147.177 825.054 161.832 836.777 c 128,-1,20
 176.487 848.501 176.487 848.501 183.274 852.271 c 128,-1,21
 190.061 856.042 190.061 856.042 203.726 862.875 c 2,22,-1
 1437.98 1444.49 l 2,23,24
 1467.71 1458.94 1467.71 1458.94 1481.5 1461.57 c 0
 1492.25 1463.63 1492.25 1463.63 1496 1463 c 0,25,26
 1501.1 1462.14 1501.1 1462.14 1509.64 1460.81 c 0
 1518.17 1459.48 1518.17 1459.48 1520.51 1459.01 c 0
 1522.85 1458.54 1522.85 1458.54 1527.65 1457.47 c 0
 1532.45 1456.4 1532.45 1456.4 1534.81 1455.17 c 0
 1537.16 1453.94 1537.16 1453.94 1540.7 1452.04 c 0
 1544.23 1450.14 1544.23 1450.14 1548.76 1447.12 c 0
 1556.21 1442.15 1556.21 1442.15 1561.61 1436.04 c 129,-1,27
 1567.01 1429.92 1567.01 1429.92 1572.54 1422.45 c 0
 1578.08 1414.98 1578.08 1414.98 1579.83 1412.49 c 0
 1581.58 1409.99 1581.58 1409.99 1584.1 1405.46 c 0
 1586.63 1400.93 1586.63 1400.93 1587.75 1397.01 c 0
 1588.88 1393.09 1588.88 1393.09 1590.15 1386.76 c 0
 1592 1377.59 1592 1377.59 1592 1368 c 0,28,29
 1591.27 1362.92 1591.27 1362.92 1590.25 1354.67 c 0
 1589.22 1346.43 1589.22 1346.43 1588.71 1343.39 c 0
 1588.2 1340.36 1588.2 1340.36 1586.95 1335.22 c 0
 1585.7 1330.08 1585.7 1330.08 1583.78 1326.1 c 0
 1581.86 1322.11 1581.86 1322.11 1578.75 1317.08 c 0
 1572.84 1307.53 1572.84 1307.53 1563.14 1298.86 c 128,-1,30
 1553.44 1290.19 1553.44 1290.19 1539.55 1282.72 c 0
 1534.97 1280.26 1534.97 1280.26 1529.96 1277.95 c 0
 1526.01 1276.13 1526.01 1276.13 1521.38 1274.28 c 2,0,-1
 452.321 768.066 l 1,0,0
258 -355 m 2,32,33
 239.323 -355 239.323 -355 226.483 -353.648 c 128,-1,34
 213.643 -352.297 213.643 -352.297 189.263 -345.733 c 128,-1,35
 164.883 -339.169 164.883 -339.169 148.941 -314.644 c 128,-1,36
 133 -290.118 133 -290.118 133 -258.222 c 128,-1,37
 133 -226.326 133 -226.326 148.624 -205.545 c 128,-1,38
 164.247 -184.765 164.247 -184.765 184.947 -175.831 c 0
 191.522 -172.993 191.522 -172.993 203.63 -169.854 c 128,-1,39
 215.737 -166.716 215.737 -166.716 227.956 -165.358 c 128,-1,40
 240.175 -164 240.175 -164 260 -164 c 2,41,-1
 1465 -164 l 2,42,43
 1480.7 -164 1480.7 -164 1490.81 -164.674 c 128,-1,44
 1500.93 -165.349 1500.93 -165.349 1519.5 -169.218 c 128,-1,45
 1538.07 -173.087 1538.07 -173.087 1552.86 -182.946 c 128,-1,46
 1567.65 -192.806 1567.65 -192.806 1579.83 -212.728 c 128,-1,47
 1592 -232.65 1592 -232.65 1592 -260 c 0,48,49
 1592 -291.777 1592 -291.777 1575.73 -315.563 c 128,-1,50
 1559.45 -339.349 1559.45 -339.349 1535.4 -345.823 c 128,-1,51
 1511.36 -352.297 1511.36 -352.297 1498.52 -353.648 c 128,-1,52
 1485.68 -355 1485.68 -355 1467 -355 c 2,31,-1
 258 -355 l 2,32,33
EndSplineSet
EndChar

StartChar: greaterequal
Encoding: 8805 8805 149
Width: 1724
VWidth: 2220
Flags: HW
LayerCount: 2
Fore
SplineSet
289.037 94.5215 m 2,1,2
 268.519 84.7334 268.519 84.7334 267.418 84.2939 c 0
 261.403 81.9004 261.403 81.9004 255.764 80.2158 c 0
 249.324 78.291 249.324 78.291 243.239 77.25 c 0
 232.5 75.4131 232.5 75.4131 229 76 c 0,3,4
 223.846 76.8643 223.846 76.8643 215.358 78.1943 c 0
 206.871 79.5234 206.871 79.5234 204.496 79.9941 c 0
 202.121 80.4648 202.121 80.4648 197.346 81.5352 c 0
 192.57 82.6045 192.57 82.6045 190.199 83.832 c 0
 187.828 85.0596 187.828 85.0596 184.298 86.96 c 0
 180.768 88.8604 180.768 88.8604 176.241 91.8779 c 0
 168.787 96.8477 168.787 96.8477 163.39 102.963 c 129,-1,5
 157.992 109.079 157.992 109.079 152.457 116.547 c 0
 146.922 124.015 146.922 124.015 145.173 126.512 c 0
 143.424 129.009 143.424 129.009 140.896 133.538 c 0
 138.367 138.066 138.367 138.066 137.246 141.986 c 0
 136.125 145.905 136.125 145.905 134.849 152.239 c 0
 133 161.413 133 161.413 133 171 c 0,6,7
 133 200.076 133 200.076 147.638 220.988 c 128,-1,8
 162.276 241.899 162.276 241.899 174.566 249.462 c 128,-1,9
 186.856 257.025 186.856 257.025 202.418 264.208 c 2,10,-1
 1272.64 769.998 l 1,0,0
 204.835 1274.6 l 2,12,13
 175.941 1288.59 175.941 1288.59 165.631 1296.45 c 0
 160.554 1300.32 160.554 1300.32 158.129 1303.01 c 128,-1,14
 155.705 1305.7 155.705 1305.7 149.761 1313.1 c 0
 143.816 1320.49 143.816 1320.49 139.785 1329.63 c 0
 135.753 1338.77 135.753 1338.77 133.976 1352.16 c 0
 133 1359.5 133 1359.5 133.67 1367.03 c 129,-1,15
 134.34 1374.56 134.34 1374.56 135.857 1383.57 c 0
 137.374 1392.57 137.374 1392.57 137.958 1395.6 c 0
 138.542 1398.62 138.542 1398.62 140.015 1403.51 c 0
 141.487 1408.4 141.487 1408.4 143.493 1411.93 c 0
 145.499 1415.47 145.499 1415.47 149.105 1420.78 c 0
 154.262 1428.39 154.262 1428.39 171.568 1445.69 c 128,-1,16
 188.875 1463 188.875 1463 229 1463 c 1,17,18
 234.263 1461.85 234.263 1461.85 240.813 1461.19 c 0
 247.364 1460.54 247.364 1460.54 253.253 1458.95 c 0
 259.141 1457.36 259.141 1457.36 269.234 1452.92 c 0
 274.807 1450.46 274.807 1450.46 281.071 1447.3 c 0
 285.76 1444.94 285.76 1444.94 292.187 1441.4 c 2,19,-1
 1520.27 862.876 l 1,20,21
 1533.96 856.038 l 130,-1,22
 1547.64 849.199 1547.64 849.199 1563.14 836.799 c 128,-1,23
 1578.64 824.399 1578.64 824.399 1584.4 807.8 c 128,-1,24
 1590.16 791.2 1590.16 791.2 1591.38 779.878 c 0
 1592 774.056 1592 774.056 1592 768 c 1,25,26
 1590.86 761.729 1590.86 761.729 1589.29 752.131 c 0
 1587.71 742.533 1587.71 742.533 1587.18 739.949 c 0
 1586.64 737.365 1586.64 737.365 1585.04 732.235 c 0
 1583.44 727.105 1583.44 727.105 1581.35 723.79 c 0
 1579.26 720.475 1579.26 720.475 1575.49 715.393 c 0
 1569.64 707.506 1569.64 707.506 1557.42 697.413 c 128,-1,27
 1545.2 687.319 1545.2 687.319 1519.36 675.689 c 2,0,-1
 289.037 94.5215 l 2,1,2
258 -355 m 2,29,30
 239.323 -355 239.323 -355 226.483 -353.648 c 128,-1,31
 213.643 -352.297 213.643 -352.297 189.263 -345.733 c 128,-1,32
 164.883 -339.169 164.883 -339.169 148.941 -314.644 c 128,-1,33
 133 -290.118 133 -290.118 133 -258.222 c 128,-1,34
 133 -226.326 133 -226.326 148.624 -205.545 c 128,-1,35
 164.247 -184.765 164.247 -184.765 184.947 -175.831 c 0
 191.522 -172.993 191.522 -172.993 203.63 -169.854 c 128,-1,36
 215.737 -166.716 215.737 -166.716 227.956 -165.358 c 128,-1,37
 240.175 -164 240.175 -164 260 -164 c 2,38,-1
 1465 -164 l 2,39,40
 1480.7 -164 1480.7 -164 1490.81 -164.674 c 128,-1,41
 1500.93 -165.349 1500.93 -165.349 1519.5 -169.218 c 128,-1,42
 1538.07 -173.087 1538.07 -173.087 1552.86 -182.946 c 128,-1,43
 1567.65 -192.806 1567.65 -192.806 1579.83 -212.728 c 128,-1,44
 1592 -232.65 1592 -232.65 1592 -260 c 0,45,46
 1592 -291.777 1592 -291.777 1575.73 -315.563 c 128,-1,47
 1559.45 -339.349 1559.45 -339.349 1535.4 -345.823 c 128,-1,48
 1511.36 -352.297 1511.36 -352.297 1498.52 -353.648 c 128,-1,49
 1485.68 -355 1485.68 -355 1467 -355 c 2,28,-1
 258 -355 l 2,29,30
EndSplineSet
EndChar

StartChar: yen
Encoding: 165 165 150
Width: 1233
Flags: W
LayerCount: 2
Fore
SplineSet
8 1493 m 1,0,-1
 326 1493 l 1,1,-1
 616 893 l 1,2,-1
 907 1493 l 1,3,-1
 1225 1493 l 1,4,-1
 952 965 l 1,5,-1
 1176 965 l 1,6,-1
 1176 778 l 1,7,-1
 854 778 l 1,8,-1
 768 627 l 1,9,-1
 1176 627 l 1,10,-1
 1176 438 l 1,11,-1
 764 438 l 1,12,-1
 764 0 l 1,13,-1
 469 0 l 1,14,-1
 469 438 l 1,15,-1
 57 438 l 1,16,-1
 57 627 l 1,17,-1
 465 627 l 1,18,-1
 379 778 l 1,19,-1
 57 778 l 1,20,-1
 57 965 l 1,21,-1
 281 965 l 1,22,-1
 8 1493 l 1,0,-1
EndSplineSet
EndChar

StartChar: uni00B5
Encoding: 181 181 151
Width: 1233
Flags: W
LayerCount: 2
Fore
SplineSet
174 -428 m 1,0,-1
 174 1120 l 1,1,-1
 461 1120 l 1,2,-1
 461 440 l 2,3,4
 461 326 461 326 502 268.5 c 128,-1,5
 543 211 543 211 625 211 c 0,6,7
 706 211 706 211 746 268 c 128,-1,8
 786 325 786 325 786 440 c 2,9,-1
 786 1120 l 1,10,-1
 1075 1120 l 1,11,-1
 1075 344 l 2,12,13
 1075 273 1075 273 1088.5 242 c 128,-1,14
 1102 211 1102 211 1133 211 c 0,15,16
 1147 211 1147 211 1160 216.5 c 128,-1,17
 1173 222 1173 222 1188 233 c 1,18,-1
 1188 16 l 1,19,20
 1145 -7 1145 -7 1108 -18 c 128,-1,21
 1071 -29 1071 -29 1036 -29 c 0,22,23
 964 -29 964 -29 918.5 8.5 c 128,-1,24
 873 46 873 46 846 129 c 1,25,26
 809 51 809 51 754 11 c 128,-1,27
 699 -29 699 -29 629 -29 c 0,28,29
 570 -29 570 -29 528.5 -5.5 c 128,-1,30
 487 18 487 18 461 66 c 1,31,-1
 463 -428 l 1,32,-1
 174 -428 l 1,0,-1
EndSplineSet
EndChar

StartChar: partialdiff
Encoding: 8706 8706 152
Width: 1176
VWidth: 2220
Flags: HW
LayerCount: 2
Fore
SplineSet
504 64 m 0
 563.158 64 563.158 64 618.082 88.4585 c 0
 673.006 112.917 673.006 112.917 715.318 153.893 c 0
 757.631 194.869 757.631 194.869 795.309 251.154 c 0
 832.987 307.438 832.987 307.438 858.529 367.036 c 0
 884.07 426.633 884.07 426.633 902.666 486.709 c 0
 921.261 546.785 921.261 546.785 929.13 594.003 c 0
 937 641.221 937 641.221 937 673 c 0
 937 686.357 937 686.357 936.131 699.821 c 0
 935.263 713.285 935.263 713.285 930.81 740.895 c 0
 926.356 768.504 926.356 768.504 918.938 789.935 c 0
 911.52 811.365 911.52 811.365 896.566 836.423 c 0
 881.612 861.48 881.612 861.48 863.366 876.807 c 0
 845.12 892.134 845.12 892.134 813.581 903.567 c 0
 782.042 915 782.042 915 741 915 c 0
 569.83 915 569.83 915 447.989 739.055 c 0
 393.792 660.791 393.792 660.791 352.396 492.8 c 0
 311 324.809 311 324.809 311 264 c 0
 311 254.213 311 254.213 311.4 245.818 c 0
 311.8 237.424 311.8 237.424 315.641 214.377 c 0
 319.481 191.331 319.481 191.331 326.05 173.945 c 0
 332.618 156.559 332.618 156.559 347.177 134.916 c 0
 361.736 113.273 361.736 113.273 379.558 99.4526 c 0
 397.38 85.6318 397.38 85.6318 429.828 74.8159 c 0
 462.276 64 462.276 64 504 64 c 0
543.38 1391.01 m 1
 547.529 1389.19 547.529 1389.19 550.61 1387.46 c 0
 558.294 1383.12 558.294 1383.12 568.535 1374.38 c 0
 578.775 1365.63 578.775 1365.63 588.033 1350.92 c 0
 591.319 1345.7 591.319 1345.7 599.66 1329.54 c 0
 608 1313.38 608 1313.38 608 1279 c 0
 608 1217.51 608 1217.51 559.901 1163.76 c 0
 511.803 1110 511.803 1110 437 1110 c 0
 367.726 1110 367.726 1110 334.863 1150.45 c 0
 302 1190.89 302 1190.89 302 1239 c 0
 302 1260.78 302 1260.78 309.91 1289.99 c 0
 317.819 1319.19 317.819 1319.19 334.437 1356.3 c 0
 351.054 1393.42 351.054 1393.42 375.687 1431.49 c 0
 400.32 1469.56 400.32 1469.56 439.38 1507.5 c 0
 478.44 1545.44 478.44 1545.44 525.847 1574.79 c 0
 573.253 1604.14 573.253 1604.14 638.599 1622.57 c 0
 703.945 1641 703.945 1641 777 1641 c 0
 890.298 1641 890.298 1641 988.325 1595.33 c 0
 1086.35 1549.66 1086.35 1549.66 1157.2 1468.3 c 0
 1228.04 1386.94 1228.04 1386.94 1268.02 1269.7 c 0
 1308 1152.46 1308 1152.46 1308 1015 c 0
 1308 941.013 1308 941.013 1293.42 848.347 c 0
 1278.85 755.681 1278.85 755.681 1247.42 650.571 c 0
 1215.99 545.461 1215.99 545.461 1170.91 441.845 c 0
 1125.84 338.229 1125.84 338.229 1059.41 240.939 c 0
 992.982 143.649 992.982 143.649 912.681 68.166 c 0
 832.38 -7.31738 832.38 -7.31738 724.432 -53.6587 c 0
 616.484 -100 616.484 -100 497 -100 c 0
 398.494 -100 398.494 -100 316.742 -68.4268 c 0
 234.989 -36.8535 234.989 -36.8535 184.039 12.3794 c 0
 133.089 61.6123 133.089 61.6123 99.0737 122.951 c 0
 65.0586 184.29 65.0586 184.29 51.5293 240.098 c 0
 38 295.906 38 295.906 38 346 c 0
 38 375.121 38 375.121 40.7427 408.034 c 0
 43.4854 440.946 43.4854 440.946 56.3677 496.233 c 0
 69.25 551.521 69.25 551.521 90.9287 604.633 c 0
 112.607 657.745 112.607 657.745 153.77 721.072 c 0
 194.933 784.399 194.933 784.399 253.11 842.233 c 0
 381.463 969.829 381.463 969.829 498.705 1017.91 c 0
 615.947 1066 615.947 1066 741 1066 c 0
 814.219 1066 814.219 1066 875.509 1040.41 c 0
 936.799 1014.83 936.799 1014.83 977.796 970.858 c 0
 999.216 947.886 999.216 947.886 1016.18 922.51 c 1
 1039 1043.52 1039 1043.52 1039 1132 c 0
 1039 1226.77 1039 1226.77 1015.65 1297.27 c 0
 992.297 1367.76 992.297 1367.76 954.539 1406.35 c 0
 916.781 1444.94 916.781 1444.94 871.274 1463.97 c 0
 825.767 1483 825.767 1483 773 1483 c 0
 750.597 1483 750.597 1483 729.479 1480.85 c 0
 708.361 1478.69 708.361 1478.69 674.692 1469.51 c 0
 641.022 1460.33 641.022 1460.33 612.988 1445.26 c 0
 584.953 1430.2 584.953 1430.2 553.024 1400.43 c 1
 543.38 1391.01 l 1
EndSplineSet
EndChar

StartChar: summation
Encoding: 8721 8721 153
Width: 2342
VWidth: 2220
Flags: HW
LayerCount: 2
Fore
SplineSet
417.844 -271 m 1,0,0
 1254 -271 l 2,2,3
 1555.29 -271 1555.29 -271 1753.17 -209.525 c 1,4,5
 1885.21 -164.279 1885.21 -164.279 1980.95 -75.4102 c 128,-1,6
 2076.69 13.459 2076.69 13.459 2113.58 125.011 c 2,7,-1
 2125.15 160 l 1
 2289.57 160 l 1
 2063.34 -495 l 1
 186 -495 l 2,10,11
 165.302 -495 165.302 -495 155.159 -494.324 c 128,-1,12
 145.016 -493.647 145.016 -493.647 122.866 -488.984 c 128,-1,13
 100.717 -484.321 100.717 -484.321 92.6948 -470.951 c 128,-1,14
 84.6729 -457.58 84.6729 -457.58 80.3359 -440.937 c 128
 76 -424.293 76 -424.293 76 -420 c 0,15,16
 76.7021 -417.577 76.7021 -417.577 79.8691 -403.465 c 128
 83.0361 -389.352 83.0361 -389.352 84.2568 -386.818 c 0
 91.5654 -371.654 91.5654 -371.654 107.255 -352.041 c 2,17,-1
 870.736 592.621 l 1,0,0
 73 1688.4 l 1
 73 1705 l 1,19,20
 74.4775 1751.86 74.4775 1751.86 78.1797 1767.32 c 0
 83.0684 1787.74 83.0684 1787.74 90.3794 1794.99 c 129,-1,21
 97.6904 1802.24 97.6904 1802.24 111.205 1811 c 128
 124.72 1819.75 124.72 1819.75 127.279 1820.54 c 0
 148.361 1827 148.361 1827 186 1827 c 2,22,-1
 2062.58 1827 l 1
 2291.11 1206 l 1
 2126.6 1206 l 1
 2114.22 1239.17 l 2,25,26
 2091.49 1300.09 2091.49 1300.09 2055.38 1351.73 c 128,-1,27
 2019.28 1403.37 2019.28 1403.37 1978.93 1441 c 128,-1,28
 1938.59 1478.63 1938.59 1478.63 1884.81 1509.23 c 128,-1,29
 1831.03 1539.82 1831.03 1539.82 1780.35 1559.53 c 128,-1,30
 1729.68 1579.24 1729.68 1579.24 1666.42 1594.57 c 128,-1,31
 1603.17 1609.91 1603.17 1609.91 1552.29 1617.59 c 128,-1,32
 1501.41 1625.27 1501.41 1625.27 1438.5 1629.65 c 128,-1,33
 1375.6 1634.04 1375.6 1634.04 1335.49 1635.02 c 128,-1,34
 1295.37 1636 1295.37 1636 1243 1636 c 2,35,-1
 464.316 1636 l 1,0,0
 1128.23 725.541 l 2,37,38
 1132.64 718.483 1132.64 718.483 1137.05 712.596 c 128,-1,39
 1141.47 706.709 1141.47 706.709 1145.22 697.959 c 128,-1,40
 1148.97 689.21 1148.97 689.21 1150.9 679.569 c 128,-1,41
 1152.82 669.928 1152.82 669.928 1152 666 c 0,42,43
 1146.18 638.301 1146.18 638.301 1143.64 633.08 c 0
 1136.59 618.632 1136.59 618.632 1121.04 598.416 c 2,0,-1
 417.844 -271 l 1,0,0
EndSplineSet
EndChar

StartChar: product
Encoding: 8719 8719 154
Width: 2095
VWidth: 2220
Flags: HW
LayerCount: 2
Fore
SplineSet
1791 -180 m 2,1,2
 1791 -193.502 1791 -193.502 1791.41 -200.464 c 128,-1,3
 1791.82 -207.427 1791.82 -207.427 1793.32 -219.836 c 128,-1,4
 1794.83 -232.246 1794.83 -232.246 1797.74 -239.524 c 128,-1,5
 1800.65 -246.802 1800.65 -246.802 1804.57 -254.252 c 128,-1,6
 1808.49 -261.703 1808.49 -261.703 1810.69 -263.982 c 0
 1815.64 -268.141 l 130,-1,7
 1820.53 -272.24 1820.53 -272.24 1833.37 -279.944 c 128,-1,8
 1846.21 -287.648 1846.21 -287.648 1863.11 -292.259 c 128,-1,9
 1880.02 -296.87 1880.02 -296.87 1907.65 -300.435 c 128,-1,10
 1935.28 -304 1935.28 -304 1969 -304 c 2,11,-1
 2020 -304 l 1
 2020 -495 l 1
 1245 -495 l 1
 1245 -304 l 1
 1296 -304 l 2,14,15
 1329.72 -304 1329.72 -304 1357.42 -300.426 c 128,-1,16
 1385.12 -296.852 1385.12 -296.852 1402.52 -292.212 c 128,-1,17
 1419.92 -287.572 1419.92 -287.572 1432.78 -279.854 c 128,-1,18
 1445.65 -272.135 1445.65 -272.135 1450.54 -267.792 c 128,-1,19
 1455.43 -263.45 1455.43 -263.45 1457.9 -259.598 c 0
 1458.97 -257.928 1458.97 -257.928 1462.83 -250.697 c 128,-1,20
 1466.68 -243.466 1466.68 -243.466 1468.93 -237.857 c 128,-1,21
 1471.17 -232.248 1471.17 -232.248 1472.59 -220.584 c 128,-1,22
 1474 -208.92 1474 -208.92 1474 -206.21 c 130,-1,23
 1474 1636 l 1,0,0
 619 1636 l 1,0,0
 619 -180 l 2,27,28
 619 -193.501 619 -193.501 619.41 -200.465 c 128,-1,29
 619.819 -207.43 619.819 -207.43 621.323 -219.838 c 128,-1,30
 622.827 -232.246 622.827 -232.246 625.739 -239.525 c 128,-1,31
 628.65 -246.804 628.65 -246.804 632.57 -254.253 c 128,-1,32
 636.489 -261.703 636.489 -261.703 638.689 -263.982 c 0
 643.643 -268.141 l 130,-1,33
 648.526 -272.24 648.526 -272.24 661.367 -279.944 c 128,-1,34
 674.207 -287.648 674.207 -287.648 691.114 -292.259 c 128,-1,35
 708.021 -296.87 708.021 -296.87 735.648 -300.435 c 128,-1,36
 763.276 -304 763.276 -304 797 -304 c 2,37,-1
 848 -304 l 1
 848 -495 l 1
 73 -495 l 1
 73 -304 l 1
 124 -304 l 2,40,41
 157.723 -304 157.723 -304 185.423 -300.426 c 128,-1,42
 213.123 -296.852 213.123 -296.852 230.521 -292.212 c 128,-1,43
 247.92 -287.572 247.92 -287.572 260.785 -279.854 c 128,-1,44
 273.649 -272.135 273.649 -272.135 278.538 -267.792 c 128,-1,45
 283.426 -263.45 283.426 -263.45 285.899 -259.598 c 0
 286.972 -257.929 286.972 -257.929 290.564 -251.192 c 128,-1,46
 294.157 -244.456 294.157 -244.456 296.097 -238.915 c 128,-1,47
 298.036 -233.373 298.036 -233.373 299.608 -220.401 c 128,-1,48
 301.181 -207.43 301.181 -207.43 301.59 -200.466 c 128,-1,49
 302 -193.502 302 -193.502 302 -180 c 2,50,-1
 302 1512 l 2,51,52
 302 1525.5 302 1525.5 301.59 1532.47 c 128,-1,53
 301.181 1539.43 301.181 1539.43 299.608 1552.4 c 128,-1,54
 298.036 1565.37 298.036 1565.37 295.837 1571.66 c 128,-1,55
 293.638 1577.94 293.638 1577.94 289.249 1585.77 c 128,-1,56
 284.86 1593.6 284.86 1593.6 282.199 1596.43 c 0
 281.433 1597.24 281.433 1597.24 277.213 1600.88 c 128,-1,57
 272.993 1604.53 272.993 1604.53 260.456 1612.05 c 128,-1,58
 247.919 1619.57 247.919 1619.57 230.521 1624.21 c 128,-1,59
 213.123 1628.85 213.123 1628.85 185.423 1632.43 c 128,-1,60
 157.723 1636 157.723 1636 124 1636 c 2,61,-1
 73 1636 l 1
 73 1827 l 1
 2020 1827 l 1
 2020 1636 l 1
 1969 1636 l 2,64,65
 1935.28 1636 1935.28 1636 1907.65 1632.44 c 128,-1,66
 1880.02 1628.87 1880.02 1628.87 1863.11 1624.26 c 128,-1,67
 1846.21 1619.65 1846.21 1619.65 1832.36 1611.34 c 128,-1,68
 1818.52 1603.03 1818.52 1603.03 1814.02 1599.01 c 128,-1,69
 1809.53 1594.99 1809.53 1594.99 1807.77 1592.16 c 0
 1806.92 1590.79 1806.92 1590.79 1803.24 1583.44 c 128,-1,70
 1799.57 1576.09 1799.57 1576.09 1797.2 1570.17 c 128,-1,71
 1794.83 1564.25 1794.83 1564.25 1793.32 1551.84 c 128,-1,72
 1791.82 1539.43 1791.82 1539.43 1791.41 1532.47 c 128,-1,73
 1791 1525.5 1791 1525.5 1791 1512 c 2,0,-1
 1791 -180 l 2,1,2
EndSplineSet
EndChar

StartChar: pi
Encoding: 960 960 155
Width: 1469
VWidth: 2220
Flags: W
LayerCount: 2
Fore
SplineSet
725.986 828 m 1,0,-1
 597.251 375.284 l 1,1,2
 555.318 233.366 555.318 233.366 528.804 155.55 c 1,3,4
 524.207 194.29 l 1,5,-1
 508.243 112.543 l 2,6,7
 506.619 95.3301 506.619 95.3301 501.25 84.0039 c 128,-1,8
 495.881 72.6787 495.881 72.6787 490.082 62.3789 c 128,-1,9
 484.284 52.0801 484.284 52.0801 477.533 41.4219 c 128,-1,10
 470.783 30.7646 470.783 30.7646 460.844 20.332 c 128,-1,11
 450.904 9.89844 450.904 9.89844 438.65 1.52734 c 128,-1,12
 426.397 -6.84375 426.397 -6.84375 411.664 -12.9502 c 128,-1,13
 396.931 -19.0566 396.931 -19.0566 381.16 -21.5283 c 128,-1,14
 365.389 -24 365.389 -24 349.101 -24 c 0,15,16
 301.905 -24 301.905 -24 284.983 -10.8926 c 128,-1,17
 268.062 2.21582 268.062 2.21582 264.24 5.48438 c 128,-1,18
 260.418 8.75293 260.418 8.75293 256.713 12.6787 c 128,-1,19
 253.009 16.6045 253.009 16.6045 248.428 22.5391 c 128,-1,20
 243.847 28.4736 243.847 28.4736 239.76 37.1309 c 128,-1,21
 235.672 45.7881 235.672 45.7881 233.06 55.833 c 0,22,23
 229.252 70.4785 229.252 70.4785 229.252 87 c 0,24,25
 229.252 107.783 229.252 107.783 233.506 121.396 c 128,-1,26
 237.76 135.008 237.76 135.008 251.191 161.87 c 1,27,-1
 384.938 454.773 l 1,28,29
 405.027 482.046 405.027 482.046 457.416 607.412 c 128,-1,30
 509.804 732.778 509.804 732.778 541.399 828 c 1,31,-1
 474.083 828 l 2,32,33
 457.235 828 457.235 828 445.347 827.155 c 128,-1,34
 433.458 826.311 433.458 826.311 409.541 823.043 c 128,-1,35
 385.623 819.774 385.623 819.774 364.325 810.518 c 128,-1,36
 343.027 801.262 343.027 801.262 316.413 786.199 c 128,-1,37
 289.799 771.138 289.799 771.138 264.719 744.328 c 128,-1,38
 239.639 717.519 239.639 717.519 215.596 679.604 c 1,39,-1
 200.517 670.898 l 2,40,41
 198.363 655.083 198.363 655.083 188.8 647.91 c 128,-1,42
 179.236 640.738 179.236 640.738 173.195 638.054 c 128,-1,43
 167.155 635.369 167.155 635.369 154.169 632.685 c 128,-1,44
 141.183 630 141.183 630 138.252 630 c 0,45,46
 107.386 630 107.386 630 95.1338 640.502 c 128,-1,47
 82.8818 651.003 82.8818 651.003 72.2236 669.093 c 128,-1,48
 61.5654 687.183 61.5654 687.183 60.5898 694.006 c 128,-1,49
 59.6152 700.83 59.6152 700.83 60.252 704 c 0,50,51
 65.1572 728.432 65.1572 728.432 65.3145 728.844 c 0,52,53
 73.9033 751.236 73.9033 751.236 114.925 815.211 c 128,-1,54
 155.946 879.185 155.946 879.185 208.472 937.257 c 0,55,56
 245.123 977.779 245.123 977.779 287.862 1005.95 c 128,-1,57
 330.603 1034.11 330.603 1034.11 374.057 1044.21 c 128,-1,58
 417.511 1054.3 417.511 1054.3 441.998 1056.65 c 128,-1,59
 466.485 1059 466.485 1059 498.854 1059 c 2,60,-1
 1323.25 1059 l 2,61,62
 1341.67 1059 1341.67 1059 1352.92 1058.38 c 128,-1,63
 1364.17 1057.75 1364.17 1057.75 1385.96 1053.86 c 128,-1,64
 1407.75 1049.97 1407.75 1049.97 1423.67 1037.46 c 128,-1,65
 1439.59 1024.95 1439.59 1024.95 1451.42 1004.25 c 128,-1,66
 1463.25 983.544 1463.25 983.544 1463.25 955 c 0,67,68
 1463.14 953.875 1463.14 953.875 1462.93 950.871 c 0,69,70
 1462.06 938.38 1462.06 938.38 1460.66 929.207 c 128,-1,71
 1459.25 920.034 1459.25 920.034 1451.6 901.458 c 128,-1,72
 1443.95 882.882 1443.95 882.882 1431.53 870.113 c 128,-1,73
 1419.12 857.345 1419.12 857.345 1393.82 845.364 c 128,-1,74
 1368.53 833.383 1368.53 833.383 1334.25 829.698 c 0,75,76
 1319.85 828.151 1319.85 828.151 1303.49 828.001 c 2,77,-1
 1076.19 828 l 1,78,79
 1041.57 667.062 1041.57 667.062 1041.57 526 c 0,80,81
 1041.57 328.092 1041.57 328.092 1109.35 179.332 c 0,82,83
 1128.61 137.043 1128.61 137.043 1129.35 112.414 c 0,84,85
 1131.04 48.8057 1131.04 48.8057 1079.68 12.4023 c 128,-1,86
 1028.32 -24 1028.32 -24 969.509 -24 c 0,87,88
 911.069 -24 911.069 -24 887.167 1.04492 c 128,-1,89
 863.265 26.0898 863.265 26.0898 854.995 40.3965 c 2,90,-1
 854.605 40.9902 l 2,91,92
 852.159 45.3877 852.159 45.3877 850.128 49.4141 c 0,93,94
 836.642 76.1191 836.642 76.1191 823.474 126.556 c 0,95,96
 801.739 209.81 801.739 209.81 801.739 306 c 0,97,98
 801.739 416.241 801.739 416.241 820.254 514.416 c 128,-1,99
 838.768 612.59 838.768 612.59 892.298 828 c 1,100,-1
 725.986 828 l 1,0,-1
EndSplineSet
EndChar

StartChar: integral
Encoding: 8747 8747 156
Width: 1149
VWidth: 2220
Flags: HW
LayerCount: 2
Fore
SplineSet
344.997 -295.924 m 1
 346.859 -288.725 346.859 -288.725 348.589 -280.692 c 0
 354.924 -251.278 354.924 -251.278 359.24 -226.34 c 0
 363.557 -201.402 363.557 -201.402 367.466 -166.222 c 1
 381.352 -77.9463 381.352 -77.9463 407.224 182.762 c 1
 438.384 535.581 438.384 535.581 498.759 887.77 c 0
 559.135 1239.96 559.135 1239.96 588.457 1360.1 c 0
 601.513 1413.6 601.513 1413.6 622.241 1458.98 c 0
 642.97 1504.35 642.97 1504.35 675.026 1546.5 c 0
 707.082 1588.65 707.082 1588.65 755.602 1614.82 c 0
 804.121 1641 804.121 1641 862 1641 c 0
 962.162 1641 962.162 1641 1024.58 1569.57 c 0
 1087 1498.14 1087 1498.14 1087 1412 c 0
 1087 1340.89 1087 1340.89 1042.63 1304.45 c 0
 998.261 1268 998.261 1268 943.649 1268 c 0
 889.037 1268 889.037 1268 847.019 1306.85 c 0
 805 1345.69 805 1345.69 805 1407 c 1
 801.876 1395.69 801.876 1395.69 798.991 1382.03 c 0
 792.11 1349.46 792.11 1349.46 788.985 1331.02 c 0
 785.859 1312.58 785.859 1312.58 777.543 1252.21 c 0
 765.184 1162.5 765.184 1162.5 742.786 927.339 c 0
 706.12 542.364 706.12 542.364 651.241 222.237 c 0
 590.865 -129.957 590.865 -129.957 561.543 -250.104 c 0
 548.487 -303.599 548.487 -303.599 527.759 -348.977 c 0
 507.03 -394.354 507.03 -394.354 474.974 -436.502 c 0
 442.918 -478.649 442.918 -478.649 394.398 -504.825 c 0
 345.879 -531 345.879 -531 287 -531 c 0
 186.68 -531 186.68 -531 124.84 -459.498 c 0
 63 -387.995 63 -387.995 63 -302 c 0
 63 -230.893 63 -230.893 107.37 -194.446 c 0
 151.739 -158 151.739 -158 206.351 -158 c 0
 260.963 -158 260.963 -158 302.981 -196.847 c 0
 344.631 -235.353 344.631 -235.353 344.997 -295.924 c 1
EndSplineSet
EndChar

StartChar: ordfeminine
Encoding: 170 170 157
Width: 1233
Flags: W
LayerCount: 2
Fore
SplineSet
786 1049 m 2,0,-1
 786 1079 l 1,1,-1
 684 1079 l 2,2,3
 575 1079 575 1079 525 1053 c 128,-1,4
 475 1027 475 1027 475 971 c 0,5,6
 475 922 475 922 505.5 894 c 128,-1,7
 536 866 536 866 590 866 c 0,8,9
 676 866 676 866 731 917.5 c 128,-1,10
 786 969 786 969 786 1049 c 2,0,-1
786 809 m 1,11,12
 736 752 736 752 675.5 725 c 128,-1,13
 615 698 615 698 537 698 c 0,14,15
 407 698 407 698 331.5 766.5 c 128,-1,16
 256 835 256 835 256 952 c 0,17,18
 256 1086 256 1086 348.5 1152.5 c 128,-1,19
 441 1219 441 1219 629 1219 c 2,20,-1
 786 1219 l 1,21,-1
 786 1245 l 2,22,23
 786 1294 786 1294 740.5 1318.5 c 128,-1,24
 695 1343 695 1343 604 1343 c 0,25,26
 522 1343 522 1343 450.5 1326.5 c 128,-1,27
 379 1310 379 1310 315 1276 c 1,28,-1
 315 1464 l 1,29,30
 388 1492 388 1492 462 1506 c 128,-1,31
 536 1520 536 1520 612 1520 c 0,32,33
 801 1520 801 1520 890 1434 c 128,-1,34
 979 1348 979 1348 979 1165 c 2,35,-1
 979 717 l 1,36,-1
 786 717 l 1,37,-1
 786 809 l 1,11,12
293 598 m 1,38,-1
 981 598 l 1,39,-1
 981 428 l 1,40,-1
 293 428 l 1,41,-1
 293 598 l 1,38,-1
EndSplineSet
EndChar

StartChar: ordmasculine
Encoding: 186 186 158
Width: 1233
Flags: W
LayerCount: 2
Fore
SplineSet
293 598 m 1,0,-1
 981 598 l 1,1,-1
 981 428 l 1,2,-1
 293 428 l 1,3,-1
 293 598 l 1,0,-1
274 1108 m 256,4,5
 274 1297 274 1297 372.5 1408.5 c 128,-1,6
 471 1520 471 1520 637 1520 c 256,7,8
 803 1520 803 1520 901 1409 c 128,-1,9
 999 1298 999 1298 999 1108 c 0,10,11
 999 919 999 919 901.5 808.5 c 128,-1,12
 804 698 804 698 637 698 c 0,13,14
 471 698 471 698 372.5 808.5 c 128,-1,15
 274 919 274 919 274 1108 c 256,4,5
637 1343 m 256,16,17
 564 1343 564 1343 521.5 1280 c 128,-1,18
 479 1217 479 1217 479 1108 c 256,19,20
 479 999 479 999 521.5 936.5 c 128,-1,21
 564 874 564 874 637 874 c 256,22,23
 710 874 710 874 752.5 936.5 c 128,-1,24
 795 999 795 999 795 1108 c 256,25,26
 795 1217 795 1217 752.5 1280 c 128,-1,27
 710 1343 710 1343 637 1343 c 256,16,17
EndSplineSet
EndChar

StartChar: Omega
Encoding: 937 937 159
Width: 1806
VWidth: 2220
Flags: W
LayerCount: 2
Fore
SplineSet
1569.28 462 m 1,0,-1
 1729.76 462 l 1,1,-1
 1636.08 0 l 1,2,-1
 1241.38 0 l 1,3,4
 1187.33 1.75391 1187.33 1.75391 1169.48 6.90527 c 0,5,6
 1157.36 10.4053 1157.36 10.4053 1150.26 16.6211 c 2,7,-1
 1135.01 30.0801 l 2,8,9
 1126.84 37.3232 1126.84 37.3232 1122.09 45.0342 c 0,10,11
 1117.34 52.21 1117.34 52.21 1114.64 65.7686 c 0,12,13
 1112.2 77.9785 1112.2 77.9785 1112.2 94.3271 c 0,14,15
 1112.2 245.847 1112.2 245.847 1238.87 525.135 c 1,16,-1
 1270.98 610.911 l 2,17,18
 1302.7 696.688 1302.7 696.688 1323.56 763.503 c 128,-1,19
 1344.42 830.318 1344.42 830.318 1352.9 884.693 c 128,-1,20
 1361.38 939.069 1361.38 939.069 1361.38 990.551 c 0,21,22
 1361.38 1076.39 1361.38 1076.39 1337.35 1148.12 c 128,-1,23
 1313.32 1219.86 1313.32 1219.86 1274.41 1268 c 0,24,25
 1234.43 1316.13 1234.43 1316.13 1173.6 1349.49 c 128,-1,26
 1112.77 1382.84 1112.77 1382.84 1046.99 1398.42 c 128,-1,27
 981.219 1414 981.219 1414 911.917 1414 c 0,28,29
 847.104 1414 847.104 1414 782.923 1399.23 c 128,-1,30
 718.743 1384.46 718.743 1384.46 656.734 1351.39 c 128,-1,31
 594.724 1318.33 594.724 1318.33 554.518 1271.11 c 0,32,33
 515.303 1223.88 515.303 1223.88 490.842 1151.27 c 128,-1,34
 466.38 1078.65 466.38 1078.65 466.38 989.945 c 0,35,36
 466.38 938.494 466.38 938.494 475.357 882.565 c 128,-1,37
 484.336 826.637 484.336 826.637 502.757 766.096 c 128,-1,38
 521.178 705.555 521.178 705.555 533.503 670.274 c 128,-1,39
 545.828 634.993 545.828 634.993 572.288 567.276 c 0,40,41
 608.408 482.844 608.408 482.844 634.696 418.302 c 128,-1,42
 660.985 353.76 660.985 353.76 688.691 256.7 c 128,-1,43
 716.398 159.641 716.398 159.641 715.188 92.4404 c 0,44,45
 714.863 74.4375 714.863 74.4375 712.754 63.8408 c 0,46,47
 706.296 31.3994 706.296 31.3994 679.628 16.252 c 0,48,49
 652.958 0 652.958 0 588.38 0 c 2,50,-1
 191.684 0 l 1,51,-1
 98 462 l 1,52,-1
 257.261 462 l 1,53,-1
 265.406 420.919 l 2,54,55
 287.315 310.423 287.315 310.423 303.811 261.964 c 0,56,57
 305.438 257.183 305.438 257.183 305.73 255.222 c 0,58,59
 306.397 255.157 306.397 255.157 309.475 253.399 c 0,60,61
 314.378 250.598 314.378 250.598 336.217 248.299 c 128,-1,62
 358.057 246 358.057 246 402.38 246 c 2,63,-1
 511.787 246 l 1,64,65
 508.542 254.488 508.542 254.488 498.947 276.956 c 128,-1,66
 489.352 299.424 489.352 299.424 475.169 322.023 c 2,67,-1
 434.834 384.834 l 1,68,-1
 339.808 522.721 l 1,69,70
 293.198 587.442 293.198 587.442 262.229 635.703 c 128,-1,71
 231.26 683.963 231.26 683.963 199.629 746.431 c 128,-1,72
 167.999 808.897 167.999 808.897 151.689 871.808 c 128,-1,73
 135.38 934.718 135.38 934.718 135.38 998.625 c 0,74,75
 135.38 1113.65 135.38 1113.65 193.037 1218.36 c 128,-1,76
 250.693 1323.08 250.693 1323.08 348.229 1398.32 c 128,-1,77
 445.763 1473.57 445.763 1473.57 580.201 1517.52 c 0,78,79
 738.011 1565 738.011 1565 914.287 1565 c 0,80,81
 1088.12 1565 1088.12 1565 1245.96 1518.05 c 0,82,83
 1379.87 1474.59 1379.87 1474.59 1477.41 1399.84 c 128,-1,84
 1574.95 1325.1 1574.95 1325.1 1633.16 1220.36 c 128,-1,85
 1691.38 1115.62 1691.38 1115.62 1691.38 998.648 c 0,86,87
 1691.38 934.921 1691.38 934.921 1675.59 871.925 c 128,-1,88
 1659.81 808.93 1659.81 808.93 1627.65 746.466 c 128,-1,89
 1595.5 684.002 1595.5 684.002 1562.85 632.265 c 128,-1,90
 1530.2 580.527 1530.2 580.527 1487.66 522.328 c 0,91,92
 1397.78 399.362 1397.78 399.362 1364.9 344.229 c 128,-1,93
 1332.02 289.095 1332.02 289.095 1315.43 246 c 1,94,-1
 1425.38 246 l 2,95,96
 1472.3 246 1472.3 246 1491.59 248.308 c 128,-1,97
 1510.87 250.615 1510.87 250.615 1517.32 253.238 c 1,98,-1
 1519.01 254.238 l 1,99,-1
 1519.55 254.55 l 1,100,-1
 1521.57 260.726 l 2,101,102
 1522.69 264.209 1522.69 264.209 1523.04 265.149 c 0,103,104
 1540.4 312.349 1540.4 312.349 1561.3 420.664 c 2,105,-1
 1569.28 462 l 1,0,-1
EndSplineSet
EndChar

StartChar: ae
Encoding: 230 230 160
Width: 1233
Flags: W
LayerCount: 2
Fore
SplineSet
489 401 m 1,0,-1
 489 483 l 1,1,-1
 416 483 l 2,2,3
 329 483 329 483 284.5 444 c 128,-1,4
 240 405 240 405 240 330 c 0,5,6
 240 259 240 259 272 221.5 c 128,-1,7
 304 184 304 184 365 184 c 0,8,9
 428 184 428 184 458.5 227 c 128,-1,10
 489 270 489 270 489 358 c 2,11,-1
 489 401 l 1,0,-1
963 690 m 1,12,-1
 963 713 l 2,13,14
 963 838 963 838 938 885 c 128,-1,15
 913 932 913 932 850 932 c 256,16,17
 787 932 787 932 762 885 c 128,-1,18
 737 838 737 838 737 713 c 2,19,-1
 737 690 l 1,20,-1
 963 690 l 1,12,-1
1188 479 m 1,21,-1
 737 479 l 1,22,23
 737 335 737 335 787 259.5 c 128,-1,24
 837 184 837 184 932 184 c 0,25,26
 992 184 992 184 1052 213.5 c 128,-1,27
 1112 243 1112 243 1171 301 c 1,28,-1
 1171 57 l 1,29,30
 1121 13 1121 13 1058.5 -8 c 128,-1,31
 996 -29 996 -29 913 -29 c 0,32,33
 810 -29 810 -29 735 13 c 128,-1,34
 660 55 660 55 618 135 c 1,35,36
 577 51 577 51 511.5 11 c 128,-1,37
 446 -29 446 -29 348 -29 c 0,38,39
 188 -29 188 -29 101 63.5 c 128,-1,40
 14 156 14 156 14 326 c 0,41,42
 14 511 14 511 115 602.5 c 128,-1,43
 216 694 216 694 420 694 c 2,44,-1
 496 694 l 1,45,-1
 496 745 l 2,46,47
 496 838 496 838 457 885 c 128,-1,48
 418 932 418 932 342 932 c 0,49,50
 285 932 285 932 217.5 904.5 c 128,-1,51
 150 877 150 877 76 823 c 1,52,-1
 76 1069 l 1,53,54
 150 1108 150 1108 220 1127.5 c 128,-1,55
 290 1147 290 1147 354 1147 c 0,56,57
 452 1147 452 1147 514.5 1116 c 128,-1,58
 577 1085 577 1085 612 1020 c 1,59,60
 641 1081 641 1081 706.5 1114 c 128,-1,61
 772 1147 772 1147 864 1147 c 0,62,63
 1041 1147 1041 1147 1114.5 1028 c 128,-1,64
 1188 909 1188 909 1188 606 c 2,65,-1
 1188 479 l 1,21,-1
EndSplineSet
EndChar

StartChar: oslash
Encoding: 248 248 161
Width: 1233
Flags: W
LayerCount: 2
Fore
SplineSet
831 675 m 1,0,-1
 483 262 l 1,1,2
 514 235 514 235 547 222 c 128,-1,3
 580 209 580 209 618 209 c 0,4,5
 722 209 722 209 782 302.5 c 128,-1,6
 842 396 842 396 842 559 c 0,7,8
 842 588 842 588 839.5 617 c 128,-1,9
 837 646 837 646 831 675 c 1,0,-1
399 449 m 1,10,-1
 745 860 l 1,11,12
 719 885 719 885 688 897 c 128,-1,13
 657 909 657 909 618 909 c 0,14,15
 512 909 512 909 451.5 816.5 c 128,-1,16
 391 724 391 724 391 559 c 0,17,18
 391 525 391 525 393 499 c 128,-1,19
 395 473 395 473 399 449 c 1,10,-1
188 199 m 1,20,21
 143 272 143 272 120.5 361 c 128,-1,22
 98 450 98 450 98 559 c 0,23,24
 98 830 98 830 238.5 988.5 c 128,-1,25
 379 1147 379 1147 616 1147 c 0,26,27
 701 1147 701 1147 774.5 1125.5 c 128,-1,28
 848 1104 848 1104 915 1059 c 1,29,-1
 1063 1235 l 1,30,-1
 1202 1114 l 1,31,-1
 1042 926 l 1,32,33
 1088 850 1088 850 1111.5 758 c 128,-1,34
 1135 666 1135 666 1135 559 c 0,35,36
 1135 288 1135 288 994.5 129.5 c 128,-1,37
 854 -29 854 -29 616 -29 c 0,38,39
 533 -29 533 -29 457.5 -6.5 c 128,-1,40
 382 16 382 16 315 61 c 1,41,-1
 164 -117 l 1,42,-1
 25 2 l 1,43,-1
 188 199 l 1,20,21
EndSplineSet
EndChar

StartChar: questiondown
Encoding: 191 191 162
Width: 1233
Flags: W
LayerCount: 2
Fore
SplineSet
799 1210 m 1,0,-1
 532 1210 l 1,1,-1
 532 1493 l 1,2,-1
 799 1493 l 1,3,-1
 799 1210 l 1,0,-1
532 1092 m 1,4,-1
 799 1092 l 1,5,-1
 799 938 l 2,6,7
 799 839 799 839 768 768.5 c 128,-1,8
 737 698 737 698 657 621 c 1,9,-1
 567 532 l 2,10,11
 506 473 506 473 483.5 432.5 c 128,-1,12
 461 392 461 392 461 348 c 0,13,14
 461 281 461 281 507 247 c 128,-1,15
 553 213 553 213 645 213 c 0,16,17
 728 213 728 213 818.5 248.5 c 128,-1,18
 909 284 909 284 1006 354 c 1,19,-1
 1006 86 l 1,20,21
 908 30 908 30 807.5 1.5 c 128,-1,22
 707 -27 707 -27 606 -27 c 0,23,24
 405 -27 405 -27 290.5 67 c 128,-1,25
 176 161 176 161 176 326 c 0,26,27
 176 402 176 402 210 467.5 c 128,-1,28
 244 533 244 533 338 625 c 2,29,-1
 426 711 l 2,30,31
 492 775 492 775 511 817 c 128,-1,32
 530 859 530 859 530 922 c 0,33,34
 530 923 530 923 531 928 c 0,35,36
 532 949 532 949 532 969 c 2,37,-1
 532 1092 l 1,4,-1
EndSplineSet
EndChar

StartChar: exclamdown
Encoding: 161 161 163
Width: 1233
Flags: W
LayerCount: 2
Fore
SplineSet
750 1210 m 1,0,-1
 483 1210 l 1,1,-1
 483 1493 l 1,2,-1
 750 1493 l 1,3,-1
 750 1210 l 1,0,-1
750 0 m 1,4,-1
 483 0 l 1,5,-1
 483 655 l 1,6,-1
 516 1012 l 1,7,-1
 715 1012 l 1,8,-1
 750 655 l 1,9,-1
 750 0 l 1,4,-1
EndSplineSet
EndChar

StartChar: logicalnot
Encoding: 172 172 164
Width: 1478
VWidth: 2220
Flags: W
HStem: 701.52 88.8<161.384 1267.62>
VStem: 1265.4 88.8<233.666 701.52>
LayerCount: 2
Fore
SplineSet
1354.2 717.06 m 2,0,-1
 1354.2 270.84 l 2,1,2
 1354.2 257.254 1354.2 257.254 1353.89 250.008 c 128,-1,3
 1353.58 242.761 1353.58 242.761 1351.31 231.093 c 128,-1,4
 1349.04 219.425 1349.04 219.425 1344.66 213.351 c 128,-1,5
 1340.27 207.277 1340.27 207.277 1331.42 202.428 c 128,-1,6
 1322.57 197.58 1322.57 197.58 1309.8 197.58 c 128,-1,7
 1297.03 197.58 1297.03 197.58 1288.18 202.428 c 128,-1,8
 1279.33 207.277 1279.33 207.277 1274.94 213.351 c 128,-1,9
 1270.56 219.425 1270.56 219.425 1268.29 231.093 c 128,-1,10
 1266.02 242.761 1266.02 242.761 1265.71 250.008 c 128,-1,11
 1265.4 257.254 1265.4 257.254 1265.4 270.84 c 2,12,-1
 1265.4 701.52 l 1,13,-1
 197.58 701.52 l 2,14,15
 181.346 701.52 181.346 701.52 172.258 702.369 c 128,-1,16
 163.17 703.218 163.17 703.218 150.058 706.914 c 128,-1,17
 136.946 710.611 136.946 710.611 130.633 720.406 c 128,-1,18
 124.32 730.202 124.32 730.202 124.32 745.92 c 128,-1,19
 124.32 761.638 124.32 761.638 130.633 771.433 c 128,-1,20
 136.946 781.229 136.946 781.229 150.058 784.926 c 128,-1,21
 163.17 788.622 163.17 788.622 172.258 789.471 c 128,-1,22
 181.346 790.32 181.346 790.32 197.58 790.32 c 2,23,-1
 1280.94 790.32 l 2,24,25
 1329.23 790.32 1329.23 790.32 1341.71 777.833 c 128,-1,26
 1354.2 765.345 1354.2 765.345 1354.2 717.06 c 2,0,-1
EndSplineSet
EndChar

StartChar: radical
Encoding: 8730 8730 165
Width: 1218
VWidth: 2220
Flags: HW
LayerCount: 2
Fore
SplineSet
245.611 954.613 m 1,0,0
 33.6191 850.124 l 1
 -45.2793 1021.07 l 1
 369.192 1221.91 l 1
 758.885 438.076 l 1,0,0
 1023.6 2084.57 l 1
 1201.6 2059.15 l 1
 830.763 -245.108 l 1
 245.611 954.613 l 1,0,0
EndSplineSet
EndChar

StartChar: florin
Encoding: 402 402 166
Width: 1233
Flags: W
LayerCount: 2
Fore
SplineSet
1153 1505 m 1,0,-1
 1153 1274 l 1,1,2
 1112 1299 1112 1299 1071 1312 c 128,-1,3
 1030 1325 1030 1325 993 1325 c 0,4,5
 899 1325 899 1325 847.5 1265 c 128,-1,6
 796 1205 796 1205 778 1075 c 1,7,-1
 754 885 l 1,8,-1
 1014 885 l 1,9,-1
 1014 666 l 1,10,-1
 725 666 l 1,11,-1
 631 -47 l 1,12,13
 606 -228 606 -228 505 -327 c 128,-1,14
 404 -426 404 -426 244 -426 c 0,15,16
 182 -426 182 -426 124.5 -413.5 c 128,-1,17
 67 -401 67 -401 12 -375 c 1,18,-1
 12 -141 l 1,19,20
 55 -168 55 -168 95 -181.5 c 128,-1,21
 135 -195 135 -195 174 -195 c 0,22,23
 269 -195 269 -195 321.5 -134.5 c 128,-1,24
 374 -74 374 -74 391 55 c 2,25,-1
 471 666 l 1,26,-1
 219 666 l 1,27,-1
 219 885 l 1,28,-1
 500 885 l 1,29,-1
 539 1178 l 2,30,31
 563 1358 563 1358 664.5 1457 c 128,-1,32
 766 1556 766 1556 926 1556 c 0,33,34
 986 1556 986 1556 1042 1543.5 c 128,-1,35
 1098 1531 1098 1531 1153 1505 c 1,0,-1
EndSplineSet
EndChar

StartChar: approxequal
Encoding: 8776 8776 167
Width: 1724
VWidth: 2220
Flags: HW
LayerCount: 2
Fore
SplineSet
1595.39 793.022 m 128,-1,2
 1538.78 698.098 1538.78 698.098 1442.5 644.549 c 128,-1,3
 1346.23 591 1346.23 591 1232 591 c 0,4,5
 1176.1 591 1176.1 591 1121.31 603.857 c 128,-1,6
 1066.53 616.714 1066.53 616.714 1013.05 643.456 c 128,-1,7
 959.563 670.198 959.563 670.198 944.249 679.333 c 130,-1,8
 849.522 738.039 l 1,9,10
 792.539 775.205 l 130,-1,11
 735.556 812.371 735.556 812.371 692.546 836.948 c 128,-1,12
 649.537 861.525 649.537 861.525 622.551 871.258 c 128,-1,13
 595.564 880.991 595.564 880.991 560.878 888.996 c 128,-1,14
 526.191 897 526.191 897 493 897 c 0,15,16
 463.243 897 463.243 897 430.369 890.169 c 128,-1,17
 397.494 883.338 397.494 883.338 362.753 866.611 c 128,-1,18
 328.013 849.884 328.013 849.884 301.527 827.411 c 128,-1,19
 275.042 804.938 275.042 804.938 257.675 769.81 c 128,-1,20
 240.308 734.682 240.308 734.682 236.928 693.081 c 0,21,22
 235.1 670.579 235.1 670.579 230.302 655.761 c 0
 228.329 649.668 228.329 649.668 226.946 646.358 c 128,-1,23
 225.562 643.049 225.562 643.049 221.504 635.455 c 0
 217.446 627.861 217.446 627.861 213.309 621.846 c 0
 209.171 615.83 209.171 615.83 199.732 608.252 c 0
 190.295 600.674 190.295 600.674 178.597 596.773 c 0
 167.276 593 167.276 593 155 593 c 1,24,25
 144.113 596.629 144.113 596.629 132.687 600.206 c 0
 121.26 603.783 121.26 603.783 118.69 604.36 c 0
 116.122 604.938 116.122 604.938 111.436 607.676 c 0
 106.748 610.414 106.748 610.414 105.255 612.268 c 0
 103.762 614.121 103.762 614.121 98.5703 620.351 c 0
 93.085 626.933 93.085 626.933 85.3682 644.769 c 129,-1,26
 77.6514 662.605 77.6514 662.605 76.0566 671.465 c 0
 74.9844 677.423 74.9844 677.423 74.29 683.9 c 0
 73 695.942 73 695.942 73 710 c 0,27,28
 73 824.98 73 824.98 129.58 920.424 c 128,-1,29
 186.16 1015.87 186.16 1015.87 282.465 1069.43 c 128,-1,30
 378.771 1123 378.771 1123 493 1123 c 0,31,32
 548.904 1123 548.904 1123 603.685 1110.14 c 128,-1,33
 658.466 1097.29 658.466 1097.29 711.983 1070.53 c 128,-1,34
 765.501 1043.77 765.501 1043.77 795.308 1025.99 c 128,-1,35
 825.115 1008.21 825.115 1008.21 875.991 974.632 c 2,36,37
 932.108 938.196 l 130,-1,38
 988.225 901.76 988.225 901.76 1031.79 877.138 c 128,-1,39
 1075.35 852.516 1075.35 852.516 1102.39 842.762 c 128,-1,40
 1129.44 833.009 1129.44 833.009 1164.12 825.004 c 128,-1,41
 1198.81 817 1198.81 817 1232 817 c 0,42,43
 1293.58 817 1293.58 817 1351.07 841.518 c 128,-1,44
 1408.56 866.036 1408.56 866.036 1446.3 911.802 c 128,-1,45
 1484.03 957.568 1484.03 957.568 1487.17 1013.95 c 1,46,47
 1493.54 1053.31 1493.54 1053.31 1497.33 1063.84 c 0
 1505.19 1085.67 1505.19 1085.67 1523.09 1103.34 c 0
 1540.98 1121 1540.98 1121 1570 1121 c 1,48,49
 1581.23 1117.02 1581.23 1117.02 1592.79 1113.2 c 0
 1604.34 1109.37 1604.34 1109.37 1607.11 1108.68 c 0
 1609.88 1107.99 1609.88 1107.99 1614.54 1105.17 c 0
 1619.21 1102.36 1619.21 1102.36 1620.78 1100.34 c 0
 1622.35 1098.32 1622.35 1098.32 1627.38 1091.91 c 0
 1633.62 1083.96 1633.62 1083.96 1639.65 1071.58 c 128,-1,50
 1645.67 1059.2 1645.67 1059.2 1648.94 1041.04 c 0
 1650.06 1034.65 1650.06 1034.65 1650.7 1028.72 c 0
 1652 1016.76 1652 1016.76 1652 1003 c 0,0,1
 1652 887.947 1652 887.947 1595.39 793.022 c 128,-1,2
1596.54 277.779 m 128,-1,53
 1541.08 183.438 1541.08 183.438 1444.3 128.219 c 128,-1,54
 1347.53 73 1347.53 73 1232 73 c 0,55,56
 1176.1 73 1176.1 73 1121.21 85.8804 c 128,-1,57
 1066.33 98.7607 1066.33 98.7607 1012.98 125.972 c 128,-1,58
 959.622 153.184 959.622 153.184 929.889 170.397 c 128,-1,59
 900.156 187.61 900.156 187.61 848.979 221.388 c 2,60,61
 792.269 258.379 l 130,-1,62
 735.559 295.371 735.559 295.371 692.548 319.948 c 128,-1,63
 649.537 344.525 649.537 344.525 622.55 354.258 c 128,-1,64
 595.563 363.991 595.563 363.991 560.877 371.996 c 128,-1,65
 526.191 380 526.191 380 493 380 c 0,66,67
 463.562 380 463.562 380 430.546 372.71 c 128,-1,68
 397.529 365.421 397.529 365.421 362.774 349.116 c 128,-1,69
 328.02 332.812 328.02 332.812 301.537 309.94 c 128,-1,70
 275.055 287.069 275.055 287.069 257.676 252.313 c 128,-1,71
 240.298 217.557 240.298 217.557 236.928 176.081 c 0,72,73
 235.1 153.579 235.1 153.579 230.302 138.761 c 0
 228.329 132.668 228.329 132.668 226.946 129.358 c 128,-1,74
 225.562 126.049 225.562 126.049 221.504 118.455 c 0
 217.445 110.861 217.445 110.861 213.309 104.846 c 0
 209.171 98.8301 209.171 98.8301 199.732 91.251 c 0
 190.295 83.6729 190.295 83.6729 178.597 79.7734 c 0
 167.276 76 167.276 76 155 76 c 1,75,76
 144.113 79.6289 144.113 79.6289 132.687 83.2061 c 0
 121.26 86.7832 121.26 86.7832 118.69 87.3604 c 0
 116.122 87.9375 116.122 87.9375 111.436 90.6758 c 0
 106.748 93.4141 106.748 93.4141 105.255 95.2676 c 0
 103.762 97.1211 103.762 97.1211 98.5703 103.351 c 0
 93.085 109.933 93.085 109.933 85.3682 127.769 c 129,-1,77
 77.6514 145.605 77.6514 145.605 76.0566 154.465 c 0
 74.9844 160.423 74.9844 160.423 74.29 166.9 c 0
 73 178.942 73 178.942 73 193 c 0,78,79
 73 307.98 73 307.98 129.58 403.424 c 128,-1,80
 186.16 498.867 186.16 498.867 282.465 552.434 c 128,-1,81
 378.771 606 378.771 606 493 606 c 0,82,83
 548.904 606 548.904 606 603.686 593.143 c 128,-1,84
 658.467 580.286 658.467 580.286 711.984 553.527 c 128,-1,85
 765.502 526.769 765.502 526.769 795.311 508.988 c 128,-1,86
 825.119 491.208 825.119 491.208 875.991 457.632 c 2,87,88
 932.194 421.141 l 130,-1,89
 988.396 384.65 988.396 384.65 1031.97 359.547 c 128,-1,90
 1075.55 334.444 1075.55 334.444 1102.35 324.78 c 128,-1,91
 1129.14 315.115 1129.14 315.115 1163.82 307.558 c 128,-1,92
 1198.49 300 1198.49 300 1232 300 c 0,93,94
 1332.8 300 1332.8 300 1407.35 356.738 c 128,-1,95
 1481.89 413.477 1481.89 413.477 1487.12 485.33 c 0,96,97
 1489.51 518.186 1489.51 518.186 1493.15 532.372 c 128,-1,98
 1496.79 546.559 1496.79 546.559 1501.8 556.992 c 0
 1504.16 561.915 1504.16 561.915 1516.43 582.958 c 128,-1,99
 1528.71 604 1528.71 604 1570 604 c 1,100,101
 1573.62 602.642 1573.62 602.642 1586.71 600.063 c 0
 1599.8 597.486 1599.8 597.486 1609.24 591.807 c 0
 1618.68 586.128 1618.68 586.128 1628.23 573.231 c 0
 1634.21 565.155 1634.21 565.155 1640 552.654 c 128,-1,102
 1645.79 540.152 1645.79 540.152 1648.97 522.113 c 0
 1650.07 515.737 1650.07 515.737 1650.71 509.767 c 0
 1652 497.723 1652 497.723 1652 484 c 0,51,52
 1652 372.119 1652 372.119 1596.54 277.779 c 128,-1,53
EndSplineSet
EndChar

StartChar: uni2206
Encoding: 8710 8710 168
Width: 1849
VWidth: 2220
Flags: HW
LayerCount: 2
Fore
SplineSet
1777.16 67.6689 m 2,1,2
 1789.01 43.9814 1789.01 43.9814 1791.3 36.0557 c 0
 1794 26.7334 1794 26.7334 1794 18 c 0,3,4
 1794 -0.333984 1794 -0.333984 1783.36 -19.2148 c 0
 1772.73 -38.0957 1772.73 -38.0957 1752.29 -44.5479 c 128,-1,5
 1731.86 -51 1731.86 -51 1694 -51 c 2,6,-1
 153 -51 l 2,7,8
 130.408 -51 130.408 -51 123.638 -50.5767 c 128,-1,9
 116.868 -50.1533 116.868 -50.1533 100.81 -44.8076 c 0
 84.751 -39.4609 84.751 -39.4609 81.6797 -37.4141 c 128,-1,10
 78.6084 -35.3672 78.6084 -35.3672 65.8047 -10.8701 c 0
 53 13.627 53 13.627 53 18 c 0,11,12
 53.3936 19.4316 53.3936 19.4316 56.0566 32.3975 c 0
 58.7197 45.3633 58.7197 45.3633 59.7803 47.8721 c 0
 63.6152 56.9355 63.6152 56.9355 70.1113 68.1562 c 2,13,-1
 820.889 1573.76 l 1,14,15
 832.594 1594.83 832.594 1594.83 841.252 1607.82 c 128,-1,16
 849.911 1620.81 849.911 1620.81 870.009 1629.89 c 128,-1,17
 890.106 1638.97 890.106 1638.97 910.897 1640.54 c 0
 919.824 1641.22 919.824 1641.22 934.977 1640.32 c 128,-1,18
 950.129 1639.42 950.129 1639.42 961.404 1636.04 c 0
 968.273 1633.98 968.273 1633.98 982.952 1626.99 c 128,-1,19
 997.63 1620 997.63 1620 1006.02 1607.42 c 128,-1,20
 1014.41 1594.83 1014.41 1594.83 1026.11 1573.76 c 1,0,-1
 1777.16 67.6689 l 2,1,2
851.962 1253.81 m 1,0,0
 335.489 220 l 1,0,0
 1367.57 220 l 1,0,0
 851.962 1253.81 l 1,0,0
EndSplineSet
EndChar

StartChar: guillemotleft
Encoding: 171 171 169
Width: 1233
Flags: W
LayerCount: 2
Fore
SplineSet
1042 1059 m 1,0,-1
 1042 821 l 1,1,-1
 766 600 l 1,2,-1
 1042 379 l 1,3,-1
 1042 141 l 1,4,-1
 573 535 l 1,5,-1
 573 666 l 1,6,-1
 1042 1059 l 1,0,-1
588 1059 m 1,7,-1
 588 821 l 1,8,-1
 311 600 l 1,9,-1
 588 379 l 1,10,-1
 588 141 l 1,11,-1
 119 535 l 1,12,-1
 119 666 l 1,13,-1
 588 1059 l 1,7,-1
EndSplineSet
EndChar

StartChar: guillemotright
Encoding: 187 187 170
Width: 1233
Flags: W
LayerCount: 2
Fore
SplineSet
193 1059 m 1,0,-1
 662 666 l 1,1,-1
 662 535 l 1,2,-1
 193 141 l 1,3,-1
 193 379 l 1,4,-1
 469 600 l 1,5,-1
 193 821 l 1,6,-1
 193 1059 l 1,0,-1
647 1059 m 1,7,-1
 1116 666 l 1,8,-1
 1116 535 l 1,9,-1
 647 141 l 1,10,-1
 647 379 l 1,11,-1
 924 600 l 1,12,-1
 647 821 l 1,13,-1
 647 1059 l 1,7,-1
EndSplineSet
EndChar

StartChar: ellipsis
Encoding: 8230 8230 171
Width: 2220
VWidth: 2220
Flags: HW
LayerCount: 2
Fore
SplineSet
494.163 220.462 m 128,-1,2
 546 167.925 546 167.925 546 98 c 0,3,4
 546 25.2773 546 25.2773 494.765 -27.3613 c 128,-1,5
 443.529 -80 443.529 -80 370.5 -80 c 128,-1,6
 297.471 -80 297.471 -80 246.244 -27.3696 c 128,-1,7
 195.017 25.2607 195.017 25.2607 195.017 95.4482 c 0,0,0
 195.017 95.7041 195.017 95.7041 195.008 96.7246 c 0
 195 97.7451 195 97.7451 195 98 c 0,8,9
 195 170.529 195 170.529 247.639 221.765 c 128,-1,10
 300.277 273 300.277 273 373 273 c 0,0,1
 442.325 273 442.325 273 494.163 220.462 c 128,-1,2
1233.16 220.462 m 128,-1,13
 1285 167.925 1285 167.925 1285 98 c 0,14,15
 1285 25.2773 1285 25.2773 1233.76 -27.3613 c 128,-1,16
 1182.53 -80 1182.53 -80 1110 -80 c 128,-1,17
 1037.47 -80 1037.47 -80 986.235 -27.3613 c 128,-1,18
 935 25.2773 935 25.2773 935 98 c 0,19,20
 935 170.328 935 170.328 987.039 221.664 c 128,-1,21
 1039.08 273 1039.08 273 1112 273 c 0,11,12
 1181.33 273 1181.33 273 1233.16 220.462 c 128,-1,13
1972.56 220.562 m 128,-1,24
 2025 168.125 2025 168.125 2025 98 c 0,25,26
 2025 25.2773 2025 25.2773 1973.76 -27.3613 c 128,-1,27
 1922.53 -80 1922.53 -80 1849.5 -80 c 128,-1,28
 1776.47 -80 1776.47 -80 1725.24 -27.3613 c 128,-1,29
 1674 25.2773 1674 25.2773 1674 98 c 0,30,31
 1674 170.328 1674 170.328 1726.04 221.664 c 128,-1,32
 1778.08 273 1778.08 273 1851 273 c 0,22,23
 1920.12 273 1920.12 273 1972.56 220.562 c 128,-1,24
EndSplineSet
EndChar

StartChar: OE
Encoding: 338 338 176
Width: 1233
Flags: W
LayerCount: 2
Fore
SplineSet
1217 260 m 1,0,-1
 1217 0 l 1,1,-1
 633 0 l 2,2,3
 309 0 309 0 188.5 155.5 c 128,-1,4
 68 311 68 311 68 745 c 0,5,6
 68 1181 68 1181 189 1337 c 128,-1,7
 310 1493 310 1493 633 1493 c 2,8,-1
 1206 1493 l 1,9,-1
 1206 1233 l 1,10,-1
 874 1233 l 1,11,-1
 874 922 l 1,12,-1
 1176 922 l 1,13,-1
 1176 662 l 1,14,-1
 874 662 l 1,15,-1
 874 260 l 1,16,-1
 1217 260 l 1,0,-1
569 1233 m 2,17,18
 446 1233 446 1233 400 1144 c 128,-1,19
 354 1055 354 1055 354 745 c 0,20,21
 354 434 354 434 399.5 347 c 128,-1,22
 445 260 445 260 569 260 c 2,23,-1
 621 260 l 1,24,-1
 621 1233 l 1,25,-1
 569 1233 l 2,17,18
EndSplineSet
EndChar

StartChar: oe
Encoding: 339 339 177
Width: 1233
Flags: W
LayerCount: 2
Fore
SplineSet
1210 479 m 1,0,-1
 760 479 l 1,1,2
 760 335 760 335 809.5 259.5 c 128,-1,3
 859 184 859 184 954 184 c 0,4,5
 1014 184 1014 184 1074 213.5 c 128,-1,6
 1134 243 1134 243 1194 301 c 1,7,-1
 1194 57 l 1,8,9
 1145 13 1145 13 1083 -8 c 128,-1,10
 1021 -29 1021 -29 936 -29 c 0,11,12
 838 -29 838 -29 767 8 c 128,-1,13
 696 45 696 45 649 119 c 1,14,15
 606 42 606 42 539.5 6.5 c 128,-1,16
 473 -29 473 -29 373 -29 c 0,17,18
 183 -29 183 -29 98.5 109 c 128,-1,19
 14 247 14 247 14 559 c 0,20,21
 14 874 14 874 98.5 1010.5 c 128,-1,22
 183 1147 183 1147 373 1147 c 0,23,24
 472 1147 472 1147 534 1117.5 c 128,-1,25
 596 1088 596 1088 637 1022 c 1,26,27
 665 1082 665 1082 730 1114.5 c 128,-1,28
 795 1147 795 1147 887 1147 c 0,29,30
 1064 1147 1064 1147 1137 1028 c 128,-1,31
 1210 909 1210 909 1210 606 c 2,32,-1
 1210 479 l 1,0,-1
985 690 m 1,33,-1
 985 725 l 2,34,35
 985 841 985 841 959.5 887.5 c 128,-1,36
 934 934 934 934 872 934 c 256,37,38
 810 934 810 934 785 886.5 c 128,-1,39
 760 839 760 839 760 713 c 2,40,-1
 760 690 l 1,41,-1
 985 690 l 1,33,-1
520 559 m 0,42,43
 520 801 520 801 491 867.5 c 128,-1,44
 462 934 462 934 385 934 c 0,45,46
 307 934 307 934 277.5 867.5 c 128,-1,47
 248 801 248 801 248 559 c 256,48,49
 248 317 248 317 277.5 250.5 c 128,-1,50
 307 184 307 184 385 184 c 0,51,52
 462 184 462 184 491 251 c 128,-1,53
 520 318 520 318 520 559 c 0,42,43
EndSplineSet
EndChar

StartChar: endash
Encoding: 8211 8211 178
Width: 1233
Flags: W
LayerCount: 2
Fore
SplineSet
0 690 m 1,0,-1
 1233 690 l 1,1,-1
 1233 444 l 1,2,-1
 0 444 l 1,3,-1
 0 690 l 1,0,-1
EndSplineSet
EndChar

StartChar: emdash
Encoding: 8212 8212 179
Width: 1233
Flags: W
LayerCount: 2
Fore
SplineSet
0 690 m 1,0,-1
 1233 690 l 1,1,-1
 1233 444 l 1,2,-1
 0 444 l 1,3,-1
 0 690 l 1,0,-1
EndSplineSet
EndChar

StartChar: quotedblleft
Encoding: 8220 8220 180
Width: 1233
Flags: W
LayerCount: 2
Fore
SplineSet
465 903 m 1,0,-1
 152 903 l 1,1,-1
 152 1174 l 1,2,-1
 348 1556 l 1,3,-1
 563 1556 l 1,4,-1
 465 1174 l 1,5,-1
 465 903 l 1,0,-1
985 903 m 1,6,-1
 672 903 l 1,7,-1
 672 1174 l 1,8,-1
 868 1556 l 1,9,-1
 1081 1556 l 1,10,-1
 985 1174 l 1,11,-1
 985 903 l 1,6,-1
EndSplineSet
EndChar

StartChar: quotedblright
Encoding: 8221 8221 181
Width: 1233
Flags: W
LayerCount: 2
Fore
SplineSet
768 1556 m 1,0,-1
 1081 1556 l 1,1,-1
 1081 1286 l 1,2,-1
 885 903 l 1,3,-1
 670 903 l 1,4,-1
 768 1286 l 1,5,-1
 768 1556 l 1,0,-1
248 1556 m 1,6,-1
 561 1556 l 1,7,-1
 561 1286 l 1,8,-1
 365 903 l 1,9,-1
 150 903 l 1,10,-1
 248 1286 l 1,11,-1
 248 1556 l 1,6,-1
EndSplineSet
EndChar

StartChar: quoteleft
Encoding: 8216 8216 182
Width: 1233
Flags: W
LayerCount: 2
Fore
SplineSet
745 903 m 1,0,-1
 432 903 l 1,1,-1
 432 1174 l 1,2,-1
 629 1556 l 1,3,-1
 844 1556 l 1,4,-1
 745 1174 l 1,5,-1
 745 903 l 1,0,-1
EndSplineSet
EndChar

StartChar: quoteright
Encoding: 8217 8217 183
Width: 1233
Flags: W
LayerCount: 2
Fore
SplineSet
530 1556 m 1,0,-1
 844 1556 l 1,1,-1
 844 1286 l 1,2,-1
 647 903 l 1,3,-1
 432 903 l 1,4,-1
 530 1286 l 1,5,-1
 530 1556 l 1,0,-1
EndSplineSet
EndChar

StartChar: divide
Encoding: 247 247 184
Width: 1928
VWidth: 2220
Flags: W
LayerCount: 2
Fore
SplineSet
1177.12 984 m 0,0,1
 1177.12 903.698 1177.12 903.698 1114.2 846.849 c 128,-1,2
 1051.29 790 1051.29 790 966.047 790 c 128,-1,3
 880.608 790 880.608 790 817.793 847.438 c 128,-1,4
 754.978 904.875 754.978 904.875 754.978 984 c 0,5,6
 754.978 1064.3 754.978 1064.3 816.803 1120.16 c 128,-1,7
 878.629 1176.02 878.629 1176.02 963.071 1176.02 c 0,8,9
 963.471 1176.02 963.471 1176.02 964.804 1176.01 c 128,-1,10
 966.137 1176 966.137 1176 966.53 1176 c 0,11,12
 1051.16 1175.94 1051.16 1175.94 1114.14 1119.71 c 128,-1,13
 1177.12 1063.48 1177.12 1063.48 1177.12 984 c 0,0,1
1177.12 126 m 0,14,15
 1177.12 45.5186 1177.12 45.5186 1114.11 -10.7407 c 128,-1,16
 1051.1 -67 1051.1 -67 966.047 -67 c 0,17,18
 880.608 -67 880.608 -67 817.793 -9.5625 c 128,-1,19
 754.978 47.875 754.978 47.875 754.978 126 c 0,20,21
 754.978 206.125 754.978 206.125 816.695 262.559 c 128,-1,22
 878.412 318.992 878.412 318.992 959.211 318.992 c 2,23,-1
 966.527 318.996 l 2,24,25
 1051.3 318.991 1051.3 318.991 1114.21 262.146 c 128,-1,26
 1177.12 205.302 1177.12 205.302 1177.12 126 c 0,14,15
249 651 m 2,27,-1
 1683 651 l 2,28,29
 1701.83 651 1701.83 651 1714.62 649.579 c 128,-1,30
 1727.41 648.157 1727.41 648.157 1751.22 640.831 c 128,-1,31
 1775.03 633.505 1775.03 633.505 1791.01 610.142 c 128,-1,32
 1807 586.778 1807 586.778 1807 555 c 128,-1,33
 1807 523.223 1807 523.223 1791.01 499.859 c 128,-1,34
 1775.03 476.495 1775.03 476.495 1750.54 468.959 c 128,-1,35
 1726.05 461.424 1726.05 461.424 1713.23 460.712 c 128,-1,36
 1700.42 460 1700.42 460 1683 460 c 2,37,-1
 249 460 l 2,38,39
 231.658 460 231.658 460 218.342 460.701 c 128,-1,40
 205.025 461.401 205.025 461.401 180.499 468.948 c 128,-1,41
 155.972 476.495 155.972 476.495 139.986 499.859 c 128,-1,42
 124 523.223 124 523.223 124 555 c 128,-1,43
 124 586.777 124 586.777 139.985 610.141 c 128,-1,44
 155.971 633.505 155.971 633.505 179.853 640.853 c 128,-1,45
 203.735 648.201 203.735 648.201 217.03 649.601 c 128,-1,46
 230.324 651 230.324 651 249 651 c 2,27,-1
EndSplineSet
EndChar

StartChar: lozenge
Encoding: 9674 9674 185
Width: 1478
VWidth: 2220
Flags: HW
LayerCount: 2
Fore
SplineSet
830.992 -285.435 m 2
 820.317 -302.039 820.317 -302.039 812.274 -311.87 c 0
 804.23 -321.7 804.23 -321.7 784.994 -333.85 c 0
 765.757 -346 765.757 -346 739.5 -346 c 0
 713.243 -346 713.243 -346 693.539 -333.555 c 0
 673.906 -321.155 673.906 -321.155 668.832 -314.44 c 2
 648.203 -287.142 l 1
 89 593.174 l 1
 89 608 l 1
 43.3896 299.086 l 2
 86.7793 598.173 86.7793 598.173 83.1348 606.373 c 0
 79.4902 614.573 79.4902 614.573 76.2451 628.687 c 0
 73 642.8 73 642.8 73 646 c 0
 73 664.821 73 664.821 78.897 679.563 c 0
 84.7939 694.306 84.7939 694.306 101.567 718.269 c 1
 647.008 1579.43 l 2
 658.401 1597.16 658.401 1597.16 666.839 1606.44 c 0
 675.277 1615.72 675.277 1615.72 693.75 1628.36 c 0
 712.222 1641 712.222 1641 739.5 1641 c 0
 766.777 1641 766.777 1641 786.263 1627.67 c 0
 805.748 1614.34 805.748 1614.34 812.913 1604.78 c 2
 830.48 1580.2 l 1
 1390 700.85 l 1
 1390 686 l 1
 1387.14 684.604 l 2
 1394.82 687.723 1394.82 687.723 1395.17 686.953 c 0
 1398.51 679.427 1398.51 679.427 1401.75 665.313 c 0
 1405 651.2 1405 651.2 1405 648 c 0
 1405 629.178 1405 629.178 1399.1 614.436 c 0
 1393.21 599.694 1393.21 599.694 1376.43 575.731 c 1
 830.992 -285.435 l 2
738.99 -73.9156 m 1
 1144.86 566.357 l 1
 695.91 347.239 l 1
 1145.98 568.124 l 1
 1196.59 647.964 l 1
 739.095 1367.77 l 1
 282.373 646.031 l 1
 738.99 -73.9156 l 1
EndSplineSet
EndChar

StartChar: uni2215
Encoding: 8725 8725 188
Width: 1110
VWidth: 2220
Flags: HW
LayerCount: 2
Fore
SplineSet
263.497 -526.682 m 1,1,2
 258.589 -543.861 258.589 -543.861 250.712 -559.615 c 128,-1,3
 242.836 -575.368 242.836 -575.368 220.956 -590.684 c 128,-1,4
 199.076 -606 199.076 -606 169 -606 c 1,5,6
 161.904 -604.634 161.904 -604.634 153.095 -603.132 c 0
 144.285 -601.63 144.285 -601.63 141.233 -601.044 c 0
 138.181 -600.457 138.181 -600.457 133.388 -599.021 c 0
 128.596 -597.584 128.596 -597.584 125.066 -595.618 c 0
 121.537 -593.652 121.537 -593.652 116.241 -590.122 c 0
 108.787 -585.152 108.787 -585.152 103.39 -579.037 c 129,-1,7
 97.9922 -572.921 97.9922 -572.921 92.457 -565.453 c 0
 86.9219 -557.984 86.9219 -557.984 85.1729 -555.488 c 0
 83.4238 -552.992 83.4238 -552.992 80.8955 -548.462 c 0
 78.3672 -543.932 78.3672 -543.932 77.2461 -540.013 c 0
 76.125 -536.094 76.125 -536.094 74.8486 -529.761 c 0
 73 -520.587 73 -520.587 73 -511 c 0,8,9
 73 -490.661 73 -490.661 87.1787 -453.279 c 2,10,-1
 843.503 1636.68 l 1,11,12
 848.738 1655 848.738 1655 857.49 1670.56 c 128,-1,13
 866.242 1686.12 866.242 1686.12 887.583 1701.06 c 128,-1,14
 908.924 1716 908.924 1716 939 1716 c 1,15,16
 946.061 1714.63 946.061 1714.63 954.99 1713.09 c 0
 963.92 1711.55 963.92 1711.55 966.953 1710.96 c 0
 969.986 1710.36 969.986 1710.36 974.832 1708.89 c 0
 979.678 1707.41 979.678 1707.41 983.195 1705.4 c 0
 986.713 1703.39 986.713 1703.39 991.986 1699.78 c 0
 999.461 1694.66 999.461 1694.66 1004.77 1688.43 c 129,-1,17
 1010.08 1682.2 1010.08 1682.2 1015.36 1674.8 c 0
 1020.65 1667.4 1020.65 1667.4 1022.35 1664.89 c 0
 1024.06 1662.37 1024.06 1662.37 1026.47 1657.9 c 0
 1028.88 1653.43 1028.88 1653.43 1029.96 1649.55 c 0
 1031.04 1645.67 1031.04 1645.67 1032.25 1639.4 c 0
 1034 1630.4 1034 1630.4 1034 1621 c 0,18,19
 1034 1600.66 1034 1600.66 1019.82 1563.28 c 2,0,-1
 263.497 -526.682 l 1,1,2
EndSplineSet
EndChar

StartChar: currency
Encoding: 164 164 189
Width: 1233
Flags: W
LayerCount: 2
Fore
SplineSet
827 643 m 0,0,1
 827 716 827 716 777 765.5 c 128,-1,2
 727 815 727 815 653 815 c 0,3,4
 580 815 580 815 529.5 765.5 c 128,-1,5
 479 716 479 716 479 643 c 0,6,7
 479 569 479 569 529.5 518 c 128,-1,8
 580 467 580 467 653 467 c 0,9,10
 727 467 727 467 777 518 c 128,-1,11
 827 569 827 569 827 643 c 0,0,1
819 938 m 1,12,-1
 991 1108 l 1,13,-1
 1118 979 l 1,14,-1
 948 809 l 1,15,16
 971 768 971 768 982 726.5 c 128,-1,17
 993 685 993 685 993 641 c 0,18,19
 993 594 993 594 981.5 553.5 c 128,-1,20
 970 513 970 513 946 477 c 1,21,-1
 1118 307 l 1,22,-1
 987 176 l 1,23,-1
 817 348 l 1,24,25
 781 324 781 324 741 312.5 c 128,-1,26
 701 301 701 301 653 301 c 0,27,28
 614 301 614 301 572 311.5 c 128,-1,29
 530 322 530 322 485 344 c 1,30,-1
 315 176 l 1,31,-1
 186 305 l 1,32,-1
 356 475 l 1,33,34
 334 517 334 517 322.5 558.5 c 128,-1,35
 311 600 311 600 311 641 c 0,36,37
 311 688 311 688 322.5 728.5 c 128,-1,38
 334 769 334 769 358 807 c 1,39,-1
 186 977 l 1,40,-1
 317 1108 l 1,41,-1
 483 936 l 1,42,43
 524 960 524 960 565.5 971.5 c 128,-1,44
 607 983 607 983 653 983 c 0,45,46
 692 983 692 983 732.5 972 c 128,-1,47
 773 961 773 961 819 938 c 1,12,-1
EndSplineSet
EndChar

StartChar: guilsinglleft
Encoding: 8249 8249 190
Width: 1203
VWidth: 2220
Flags: HW
LayerCount: 2
Fore
SplineSet
407.076 555 m 1,0,0
 1021.25 275.36 l 2,2,3
 1076.04 250.075 1076.04 250.075 1076.04 197.543 c 0,0,0
 1076.04 197.143 1076.04 197.143 1076 196.161 c 0
 1075.97 195.18 1075.97 195.18 1075.97 194.789 c 0,4,5
 1075.92 162.798 1075.92 162.798 1051.52 138.399 c 128,-1,6
 1027.12 114 1027.12 114 994 114 c 0,7,8
 993.022 114.195 993.022 114.195 981.625 116.014 c 0
 970.228 117.832 970.228 117.832 967.872 118.617 c 0
 958.537 121.729 958.537 121.729 947.998 126.998 c 2,9,-1
 182.717 476.653 l 2,10,11
 127 502.368 127 502.368 127 555 c 128,-1,12
 127 607.631 127 607.631 182.726 633.351 c 2,13,-1
 951.628 984.306 l 2,14,15
 976.688 996 976.688 996 994 996 c 0,16,17
 1027.12 996 1027.12 996 1051.53 971.594 c 128,-1,18
 1075.94 947.188 1075.94 947.188 1075.97 915.211 c 0,19,20
 1075.97 914.818 1075.97 914.818 1076 913.837 c 0
 1076.04 912.855 1076.04 912.855 1076.04 912.457 c 0,0,0
 1076.04 859.925 1076.04 859.925 1021.25 834.64 c 2,0,-1
 407.076 555 l 1,0,0
EndSplineSet
EndChar

StartChar: guilsinglright
Encoding: 8250 8250 191
Width: 1203
VWidth: 2220
Flags: HW
LayerCount: 2
Fore
SplineSet
251.36 125.689 m 2,1,2
 226.312 114 226.312 114 209 114 c 0,3,4
 175.875 114 175.875 114 151.438 138.438 c 128,-1,5
 127 162.875 127 162.875 127 196 c 0,6,7
 127 247.501 127 247.501 182.029 275.016 c 1,8,-1
 796.924 555 l 1,0,0
 182.747 834.64 l 2,10,11
 127 860.369 127 860.369 127 914 c 0,12,13
 127 947.125 127 947.125 151.438 971.562 c 128,-1,14
 175.875 996 175.875 996 209 996 c 0,15,16
 210.096 995.786 210.096 995.786 221.222 994.071 c 0
 232.348 992.356 232.348 992.356 234.794 991.573 c 0
 239.78 989.979 239.78 989.979 245.279 987.741 c 0
 250.204 985.739 250.204 985.739 255.455 983.267 c 2,17,-1
 1021.28 633.347 l 2,18,19
 1077 607.632 1077 607.632 1077 555 c 128,-1,20
 1077 502.369 1077 502.369 1021.26 476.645 c 2,0,-1
 251.36 125.689 l 2,1,2
EndSplineSet
EndChar

StartChar: uniFB01
Encoding: 64257 64257 192
Width: 1233
Flags: W
LayerCount: 2
Fore
SplineSet
805 1556 m 1,0,-1
 1098 1556 l 1,1,-1
 1098 1264 l 1,2,-1
 805 1264 l 1,3,-1
 805 1556 l 1,0,-1
494 1219 m 1,4,-1
 494 1120 l 1,5,-1
 1098 1120 l 1,6,-1
 1098 0 l 1,7,-1
 805 0 l 1,8,-1
 805 895 l 1,9,-1
 494 895 l 1,10,-1
 494 0 l 1,11,-1
 201 0 l 1,12,-1
 201 895 l 1,13,-1
 12 895 l 1,14,-1
 12 1120 l 1,15,-1
 201 1120 l 1,16,-1
 201 1198 l 2,17,18
 201 1400 201 1400 284.5 1478 c 128,-1,19
 368 1556 368 1556 596 1556 c 2,20,-1
 676 1556 l 1,21,-1
 676 1331 l 1,22,-1
 608 1331 l 2,23,24
 542 1331 542 1331 518.5 1307 c 128,-1,25
 495 1283 495 1283 494 1219 c 1,4,-1
EndSplineSet
EndChar

StartChar: uniFB02
Encoding: 64258 64258 193
Width: 1233
Flags: W
LayerCount: 2
Fore
SplineSet
494 1219 m 1,0,-1
 494 1120 l 1,1,-1
 682 1120 l 1,2,-1
 682 895 l 1,3,-1
 494 895 l 1,4,-1
 494 0 l 1,5,-1
 201 0 l 1,6,-1
 201 895 l 1,7,-1
 12 895 l 1,8,-1
 12 1120 l 1,9,-1
 201 1120 l 1,10,-1
 201 1198 l 2,11,12
 201 1400 201 1400 284.5 1478 c 128,-1,13
 368 1556 368 1556 596 1556 c 2,14,-1
 1098 1556 l 1,15,-1
 1098 0 l 1,16,-1
 805 0 l 1,17,-1
 805 1331 l 1,18,-1
 608 1331 l 2,19,20
 542 1331 542 1331 518.5 1307 c 128,-1,21
 495 1283 495 1283 494 1219 c 1,0,-1
EndSplineSet
EndChar

StartChar: daggerdbl
Encoding: 8225 8225 194
Width: 1134
VWidth: 2220
Flags: HW
LayerCount: 2
Fore
SplineSet
673.283 166.873 m 1
 699.738 178.881 l 1
 793.977 226 793.977 226 866 226 c 0
 947.416 226 947.416 226 995.208 173.928 c 0
 1043 121.856 1043 121.856 1043 51 c 0
 1043 -15.7686 1043 -15.7686 1021.1 -41.4795 c 0
 999.2 -67.1904 999.2 -67.1904 993.393 -73.1055 c 0
 987.585 -79.0205 987.585 -79.0205 984.59 -81.5918 c 2
 975.176 -89.3877 l 2
 968.756 -94.6123 968.756 -94.6123 961.533 -98.7891 c 0
 954.311 -102.966 954.311 -102.966 945.914 -106.665 c 0
 911.099 -122 911.099 -122 866 -122 c 0
 794.03 -122 794.03 -122 704.335 -77.1523 c 1
 674.824 -64.3441 l 1
 689.575 -103.637 l 2
 704.06 -141.276 704.06 -141.276 713.724 -172.683 c 0
 723.387 -204.089 723.387 -204.089 732.193 -244.819 c 0
 741 -285.549 741 -285.549 741 -320 c 1
 738.131 -372.106 738.131 -372.106 725.782 -400.586 c 0
 711.979 -432.418 711.979 -432.418 673.487 -465.709 c 0
 634.995 -499 634.995 -499 566 -499 c 0
 538.921 -499 538.921 -499 510.441 -489.744 c 0
 481.961 -480.488 481.961 -480.488 458.387 -462.899 c 0
 434.812 -445.31 434.812 -445.31 420.062 -421.396 c 0
 414.313 -412.075 414.313 -412.075 403.656 -388.542 c 0
 393 -365.009 393 -365.009 393 -320 c 0
 393 -247.591 393 -247.591 440.235 -120.132 c 0
 452.624 -86.702 452.624 -86.702 460.372 -63.7466 c 1
 434.892 -75.0508 l 1
 340.994 -122 340.994 -122 269 -122 c 0
 187.809 -122 187.809 -122 139.404 -70.0366 c 0
 91 -18.0732 91 -18.0732 91 53 c 0
 91 119.995 91 119.995 113.3 145.763 c 0
 135.601 171.53 135.601 171.53 141.408 177.37 c 0
 147.217 183.21 147.217 183.21 150.247 185.786 c 2
 159.709 193.537 l 2
 166.141 198.712 166.141 198.712 173.384 202.869 c 0
 180.622 207.023 180.622 207.023 189.04 210.709 c 0
 223.961 225.998 223.961 225.998 269 226 c 0
 302.991 226 302.991 226 341.882 215.133 c 0
 380.772 204.267 380.772 204.267 403.759 194.645 c 0
 424.106 186.128 424.106 186.128 459.155 170.051 c 1
 445.225 208.153 l 2
 429.27 250.875 429.27 250.875 419.989 279.263 c 0
 410.708 307.651 410.708 307.651 401.854 348.601 c 0
 393 389.55 393 389.55 393 424 c 1
 395.787 478.74 395.787 478.74 410.772 509.997 c 0
 420.622 530.541 420.622 530.541 442.918 553.235 c 1
 429.633 566.089 429.633 566.089 420.062 581.604 c 0
 414.313 590.925 414.313 590.925 403.656 614.458 c 0
 393 637.991 393 637.991 393 684 c 0
 393 770.4 393 770.4 447.515 908.601 c 1
 459.383 939.69 l 1
 409.423 915.049 409.423 915.049 369.736 901.82 c 0
 327.906 887.877 327.906 887.877 309.815 885.938 c 0
 291.725 884 291.725 884 269 884 c 0
 225.037 884 225.037 884 199.851 894.912 c 0
 174.664 905.824 174.664 905.824 163.383 913.044 c 0
 148.542 922.542 148.542 922.542 133.604 938.629 c 0
 118.666 954.717 118.666 954.717 107.627 980.244 c 0
 96.5889 1005.77 96.5889 1005.77 93.7944 1023.94 c 0
 91 1042.1 91 1042.1 91 1057 c 0
 91 1126.84 91 1126.84 138.283 1178.42 c 0
 185.565 1230 185.565 1230 266 1230 c 0
 340.073 1230 340.073 1230 460.787 1171.55 c 1
 449.235 1203.13 l 2
 428.774 1257.65 428.774 1257.65 422.322 1277.93 c 0
 415.87 1298.2 415.87 1298.2 404.435 1345.03 c 0
 393 1391.86 393 1391.86 393 1430 c 1
 395.916 1482.26 395.916 1482.26 408.467 1510.82 c 0
 422.464 1542.67 422.464 1542.67 461.331 1575.83 c 0
 500.197 1609 500.197 1609 568 1609 c 0
 595.08 1609 595.08 1609 623.56 1599.74 c 0
 652.039 1590.49 652.039 1590.49 675.613 1572.9 c 0
 699.188 1555.31 699.188 1555.31 713.938 1531.4 c 0
 719.687 1522.08 719.687 1522.08 730.344 1498.54 c 0
 741 1475.01 741 1475.01 741 1430 c 0
 741 1346.38 741 1346.38 686.509 1204.46 c 1
 674.289 1171.95 l 1
 701.91 1184.96 l 1
 795.016 1230 795.016 1230 868 1230 c 0
 948.435 1230 948.435 1230 995.717 1178.42 c 0
 1043 1126.84 1043 1126.84 1043 1057 c 0
 1043 1042.1 1043 1042.1 1040.21 1023.94 c 0
 1037.41 1005.77 1037.41 1005.77 1026.16 979.754 c 0
 1014.91 953.738 1014.91 953.738 998.593 936.164 c 0
 982.275 918.59 982.275 918.59 962.176 907.478 c 0
 952.717 902.248 952.717 902.248 930.362 893.124 c 0
 908.008 884 908.008 884 866 884 c 0
 823.579 884 823.579 884 781.283 896.575 c 0
 740.691 908.643 740.691 908.643 673.3 941.399 c 1
 684.765 909.871 l 2
 708.104 847.607 708.104 847.607 713.59 831.88 c 0
 719.076 816.153 719.076 816.153 730.038 768.47 c 0
 741 720.786 741 720.786 741 684 c 1
 739.175 650.832 739.175 650.832 735.507 632.102 c 0
 731.839 613.371 731.839 613.371 719.973 591.22 c 0
 710.979 574.43 710.979 574.43 690.848 554.045 c 1
 704.123 541.318 704.123 541.318 713.748 525.957 c 0
 719.515 516.753 719.515 516.753 730.257 493.477 c 0
 741 470.201 741 470.201 741 424 c 0
 741 351.587 741 351.587 693.765 224.132 c 0
 681.079 189.903 681.079 189.903 673.283 166.873 c 1
EndSplineSet
EndChar

StartChar: periodcentered
Encoding: 183 183 195
Width: 614
VWidth: 2220
Flags: W
LayerCount: 2
Fore
SplineSet
427.67 436.045 m 128,-1,2
 378.34 386 378.34 386 308.5 386 c 128,-1,3
 238.66 386 238.66 386 189.33 436.045 c 128,-1,4
 140 486.09 140 486.09 140 555 c 128,-1,5
 140 623.91 140 623.91 189.091 673.712 c 128,-1,6
 238.182 723.515 238.182 723.515 307.268 723.507 c 2,0,0
 342.801 723.149 l 130,-1,7
 378.334 722.791 378.334 722.791 427.667 673.458 c 128,-1,0
 477 624.125 477 624.125 477 555.107 c 128,-1,1
 477 486.09 477 486.09 427.67 436.045 c 128,-1,2
EndSplineSet
EndChar

StartChar: quotesinglbase
Encoding: 8218 8218 196
Width: 1233
Flags: W
LayerCount: 2
Fore
SplineSet
461 367 m 1,0,-1
 774 367 l 1,1,-1
 774 96 l 1,2,-1
 578 -287 l 1,3,-1
 362 -287 l 1,4,-1
 461 96 l 1,5,-1
 461 367 l 1,0,-1
EndSplineSet
EndChar

StartChar: quotedblbase
Encoding: 8222 8222 197
Width: 1233
Flags: W
LayerCount: 2
Fore
SplineSet
768 367 m 1,0,-1
 1081 367 l 1,1,-1
 1081 96 l 1,2,-1
 885 -287 l 1,3,-1
 670 -287 l 1,4,-1
 768 96 l 1,5,-1
 768 367 l 1,0,-1
248 367 m 1,6,-1
 561 367 l 1,7,-1
 561 96 l 1,8,-1
 365 -287 l 1,9,-1
 150 -287 l 1,10,-1
 248 96 l 1,11,-1
 248 367 l 1,6,-1
EndSplineSet
EndChar

StartChar: perthousand
Encoding: 8240 8240 198
Width: 2632
VWidth: 2220
Flags: HW
LayerCount: 2
Fore
SplineSet
1744.19 77.0825 m 0
 1702.39 -35.6855 1702.39 -35.6855 1623.88 -105.343 c 0
 1545.36 -175 1545.36 -175 1446 -175 c 0
 1370.88 -175 1370.88 -175 1301.63 -136.855 c 0
 1232.39 -98.71 1232.39 -98.71 1180.85 -33.5757 c 0
 1129.3 31.5586 1129.3 31.5586 1099.15 124.757 c 0
 1069 217.955 1069 217.955 1069 324 c 0
 1069 427.136 1069 427.136 1099.14 519.205 c 0
 1129.28 611.274 1129.28 611.274 1180.15 676.833 c 0
 1231.01 742.393 1231.01 742.393 1300.82 781.696 c 0
 1370.63 821 1370.63 821 1446 821 c 0
 1543.12 821 1543.12 821 1621.66 752.498 c 0
 1700.2 683.996 1700.2 683.996 1743.1 570.143 c 0
 1786 456.289 1786 456.289 1786 322 c 0
 1786 189.851 1786 189.851 1744.19 77.0825 c 0
1449 -24 m 0
 1511.49 -24 1511.49 -24 1569.75 70.7144 c 0
 1628 165.429 1628 165.429 1628 324 c 0
 1628 402.479 1628 402.479 1610.3 470.572 c 0
 1592.59 538.666 1592.59 538.666 1565.33 582.545 c 0
 1538.06 626.425 1538.06 626.425 1506.86 648.712 c 0
 1475.66 671 1475.66 671 1449 671 c 0
 1440.86 671 1440.86 671 1433.82 669.647 c 0
 1426.79 668.294 1426.79 668.294 1413.74 661.604 c 0
 1400.7 654.914 1400.7 654.914 1388.85 643.766 c 0
 1377.01 632.617 1377.01 632.617 1361.86 607.654 c 0
 1346.72 582.69 1346.72 582.69 1335.36 547.284 c 0
 1323.99 511.877 1323.99 511.877 1316.5 453.313 c 0
 1309 394.749 1309 394.749 1309 322 c 0
 1309 249.276 1309 249.276 1316.47 191.354 c 0
 1323.95 133.433 1323.95 133.433 1335.78 97.936 c 0
 1347.61 62.4394 1347.61 62.4394 1362.26 38.0293 c 0
 1376.9 13.6191 1376.9 13.6191 1389.13 2.43848 c 0
 1401.36 -8.74219 1401.36 -8.74219 1414.14 -15.2959 c 0
 1426.92 -21.8496 1426.92 -21.8496 1433.91 -22.9248 c 0
 1440.9 -24 1440.9 -24 1449 -24 c 0
465 870 m 0
 527.534 870 527.534 870 586.267 965.231 c 0
 645 1060.46 645 1060.46 645 1219 c 0
 645 1297.48 645 1297.48 627.295 1365.57 c 0
 609.591 1433.67 609.591 1433.67 582.382 1477.46 c 0
 555.173 1521.25 555.173 1521.25 524.026 1543.12 c 0
 492.879 1565 492.879 1565 465 1565 c 0
 457.05 1565 457.05 1565 450.118 1563.61 c 0
 443.186 1562.23 443.186 1562.23 429.652 1555.8 c 0
 416.119 1549.37 416.119 1549.37 404.677 1538.6 c 0
 393.235 1527.83 393.235 1527.83 378.526 1502.91 c 0
 363.817 1477.99 363.817 1477.99 352.374 1442.33 c 0
 340.931 1406.68 340.931 1406.68 332.965 1348.12 c 0
 325 1289.55 325 1289.55 325 1217 c 0
 325 1144.48 325 1144.48 332.961 1086.41 c 0
 340.922 1028.34 340.922 1028.34 352.322 992.827 c 0
 363.723 957.311 363.723 957.311 378.865 932.346 c 0
 394.007 907.382 394.007 907.382 405.563 896.505 c 0
 417.119 885.629 417.119 885.629 430.652 879.201 c 0
 444.186 872.772 444.186 872.772 451.118 871.386 c 0
 458.05 870 458.05 870 465 870 c 0
451.919 -120.039 m 2
 445.45 -129.096 445.45 -129.096 442.596 -132.584 c 2
 431.074 -146.168 l 2
 422.406 -156.263 422.406 -156.263 411.507 -163.075 c 0
 400.607 -169.887 400.607 -169.887 387.026 -172.905 c 0
 373.473 -175.917 373.473 -175.917 365 -175 c 0
 364.594 -174.956 364.594 -174.956 360.135 -174.824 c 0
 355.676 -174.692 355.676 -174.692 351.459 -174.084 c 0
 347.25 -173.476 347.25 -173.476 341.009 -172.029 c 0
 334.774 -170.584 334.774 -170.584 327.458 -167.216 c 0
 320.143 -163.847 320.143 -163.847 312.841 -158.895 c 0
 305.64 -154.01 305.64 -154.01 300.316 -147.965 c 0
 294.992 -141.921 294.992 -141.921 289.457 -134.453 c 2
 282.173 -124.488 l 2
 280.424 -121.992 280.424 -121.992 277.896 -117.462 c 0
 275.367 -112.933 275.367 -112.933 274.246 -109.013 c 0
 273.125 -105.094 273.125 -105.094 271.849 -98.7607 c 0
 270 -89.5869 270 -89.5869 270 -80 c 0
 270.703 -76.2041 270.703 -76.2041 271.671 -69.6807 c 0
 272.639 -63.1572 272.639 -63.1572 273.415 -58.4873 c 0
 274.191 -53.8175 274.191 -53.8175 274.84 -51.8721 c 0
 281.702 -31.3004 281.702 -31.3004 299.074 -6.9707 c 2
 1205.2 1343.59 l 1
 1185.42 1338.64 1185.42 1338.64 1163.09 1334.41 c 0
 1102.78 1323 1102.78 1323 1040 1323 c 0
 911.624 1323 911.624 1323 787.18 1371.4 c 1
 802.019 1300.05 802.019 1300.05 802.019 1224.61 c 2
 802.009 1220.69 l 1
 801.999 1216.81 l 2
 801.972 1084.78 801.972 1084.78 760.216 972.146 c 0
 718.461 859.516 718.461 859.516 640.528 789.258 c 0
 562.596 719 562.596 719 463 719 c 0
 387.706 719 387.706 719 318.493 757.712 c 0
 249.28 796.425 249.28 796.425 197.792 861.492 c 0
 146.305 926.559 146.305 926.559 116.152 1019.76 c 0
 86 1112.96 86 1112.96 86 1219 c 0
 86 1322 86 1322 115.62 1414.15 c 0
 145.24 1506.3 145.24 1506.3 196.659 1571.84 c 0
 248.078 1637.39 248.078 1637.39 317.305 1676.69 c 0
 386.531 1716 386.531 1716 463 1716 c 0
 523.039 1716 523.039 1716 568.462 1693.29 c 0
 613.885 1670.58 613.885 1670.58 657.516 1631.54 c 1
 824.269 1474 824.269 1474 1038 1474 c 0
 1279.2 1474 1279.2 1474 1419.43 1664.9 c 1
 1426.53 1673.95 l 2
 1433.62 1683.01 1433.62 1683.01 1440.66 1689.27 c 0
 1447.7 1695.53 1447.7 1695.53 1451.58 1698.43 c 0
 1455.46 1701.34 1455.46 1701.34 1467.08 1706.79 c 0
 1478.7 1712.25 1478.7 1712.25 1488.71 1714.75 c 0
 1498.71 1717.25 1498.71 1717.25 1506 1716 c 2
 1519.67 1713.76 l 2
 1527.84 1712.46 1527.84 1712.46 1530.46 1711.96 c 0
 1533.09 1711.46 1533.09 1711.46 1537.68 1710.42 c 0
 1542.29 1709.38 1542.29 1709.38 1544.76 1708.15 c 2
 1550.74 1705.03 l 2
 1554.25 1703.13 1554.25 1703.13 1558.76 1700.12 c 0
 1566.21 1695.15 1566.21 1695.15 1571.61 1689.04 c 0
 1577.01 1682.92 1577.01 1682.92 1582.54 1675.45 c 2
 1589.83 1665.49 l 2
 1591.58 1662.99 1591.58 1662.99 1594.1 1658.46 c 0
 1596.63 1653.93 1596.63 1653.93 1597.75 1650.01 c 0
 1598.88 1646.09 1598.88 1646.09 1600.15 1639.76 c 0
 1602 1630.59 1602 1630.59 1602 1621 c 0
 1601.36 1617.72 1601.36 1617.72 1600.41 1611.57 c 2
 1598.66 1600.75 l 2
 1597.87 1596.09 1597.87 1596.09 1597.29 1594.38 c 0
 1591.14 1576.27 1591.14 1576.27 1575.39 1552.64 c 2
 451.919 -120.039 l 2
2505.19 77.0825 m 0
 2463.39 -35.6855 2463.39 -35.6855 2384.88 -105.343 c 0
 2306.36 -175 2306.36 -175 2208 -175 c 0
 2132.88 -175 2132.88 -175 2063.63 -136.855 c 0
 1994.39 -98.7099 1994.39 -98.7099 1942.89 -33.6304 c 0
 1891.39 31.4492 1891.39 31.4492 1860.7 124.633 c 0
 1830 217.816 1830 217.816 1830 324 c 0
 1830 427.136 1830 427.136 1860.14 519.205 c 0
 1890.28 611.274 1890.28 611.274 1941.15 676.833 c 0
 1992.01 742.393 1992.01 742.393 2061.82 781.696 c 0
 2131.63 821 2131.63 821 2208 821 c 0
 2305.22 821 2305.22 821 2383.23 752.451 c 0
 2461.23 683.901 2461.23 683.901 2504.12 570.096 c 0
 2547 456.29 2547 456.29 2547 322 c 0
 2547 189.851 2547 189.851 2505.19 77.0825 c 0
2210 -24 m 0
 2272.6 -24 2272.6 -24 2331.3 70.7588 c 0
 2390 165.518 2390 165.518 2390 324 c 0
 2390 402.479 2390 402.479 2372.32 470.484 c 0
 2354.64 538.49 2354.64 538.49 2326.88 582.467 c 0
 2299.13 626.444 2299.13 626.444 2268.31 648.722 c 0
 2237.5 671 2237.5 671 2210 671 c 0
 2202.05 671 2202.05 671 2195.37 669.665 c 0
 2188.7 668.33 2188.7 668.33 2175.1 661.531 c 0
 2161.5 654.732 2161.5 654.732 2149.87 643.783 c 0
 2138.23 632.833 2138.23 632.833 2123.53 607.91 c 0
 2108.82 582.986 2108.82 582.986 2097.37 547.335 c 0
 2085.93 511.685 2085.93 511.685 2077.97 453.117 c 0
 2070 394.55 2070 394.55 2070 322 c 0
 2070 249.48 2070 249.48 2077.96 191.412 c 0
 2085.92 133.344 2085.92 133.344 2097.29 97.918 c 0
 2108.66 62.4922 2108.66 62.4922 2123.77 38.0029 c 0
 2138.87 13.5137 2138.87 13.5137 2150.69 2.39111 c 0
 2162.5 -8.73145 2162.5 -8.73145 2175.65 -15.3052 c 0
 2188.8 -21.8789 2188.8 -21.8789 2195.43 -22.9395 c 0
 2202.05 -24 2202.05 -24 2210 -24 c 0
EndSplineSet
EndChar

StartChar: dotlessi
Encoding: 305 305 214
Width: 1233
Flags: W
LayerCount: 2
Fore
SplineSet
221 1120 m 1,0,-1
 801 1120 l 1,1,-1
 801 225 l 1,2,-1
 1165 225 l 1,3,-1
 1165 0 l 1,4,-1
 143 0 l 1,5,-1
 143 225 l 1,6,-1
 508 225 l 1,7,-1
 508 895 l 1,8,-1
 221 895 l 1,9,-1
 221 1120 l 1,0,-1
EndSplineSet
EndChar

StartChar: circumflex
Encoding: 710 710 215
Width: 1233
Flags: W
LayerCount: 2
Fore
SplineSet
496 1638 m 1,0,-1
 737 1638 l 1,1,-1
 993 1262 l 1,2,-1
 815 1262 l 1,3,-1
 616 1487 l 1,4,-1
 418 1262 l 1,5,-1
 240 1262 l 1,6,-1
 496 1638 l 1,0,-1
EndSplineSet
EndChar

StartChar: tilde
Encoding: 732 732 216
Width: 1233
Flags: W
LayerCount: 2
Fore
SplineSet
618 1364 m 2,0,-1
 563 1401 l 2,1,2
 560 1403 560 1403 551 1409 c 0,3,4
 508 1438 508 1438 481 1438 c 0,5,6
 445 1438 445 1438 426.5 1407 c 128,-1,7
 408 1376 408 1376 408 1317 c 2,8,-1
 408 1309 l 1,9,-1
 268 1309 l 1,10,11
 268 1445 268 1445 319.5 1519 c 128,-1,12
 371 1593 371 1593 465 1593 c 0,13,14
 501 1593 501 1593 537 1579.5 c 128,-1,15
 573 1566 573 1566 614 1536 c 1,16,-1
 676 1493 l 2,17,18
 697 1478 697 1478 715.5 1470 c 128,-1,19
 734 1462 734 1462 750 1462 c 0,20,21
 786 1462 786 1462 805.5 1493.5 c 128,-1,22
 825 1525 825 1525 825 1583 c 2,23,-1
 825 1591 l 1,24,-1
 965 1591 l 1,25,26
 965 1455 965 1455 913.5 1381 c 128,-1,27
 862 1307 862 1307 768 1307 c 0,28,29
 732 1307 732 1307 699 1319 c 128,-1,30
 666 1331 666 1331 618 1364 c 2,0,-1
EndSplineSet
EndChar

StartChar: macron
Encoding: 175 175 217
Width: 1233
Flags: W
LayerCount: 2
Fore
SplineSet
301 1556 m 1,0,-1
 932 1556 l 1,1,-1
 932 1368 l 1,2,-1
 301 1368 l 1,3,-1
 301 1556 l 1,0,-1
EndSplineSet
EndChar

StartChar: breve
Encoding: 728 728 218
Width: 1233
Flags: W
LayerCount: 2
Fore
SplineSet
281 1606 m 1,0,-1
 422 1606 l 1,1,2
 433 1537 433 1537 483 1499.5 c 128,-1,3
 533 1462 533 1462 616 1462 c 256,4,5
 699 1462 699 1462 748.5 1499 c 128,-1,6
 798 1536 798 1536 809 1606 c 1,7,-1
 952 1606 l 1,8,9
 946 1462 946 1462 859.5 1385.5 c 128,-1,10
 773 1309 773 1309 616 1309 c 0,11,12
 460 1309 460 1309 373.5 1385.5 c 128,-1,13
 287 1462 287 1462 281 1606 c 1,0,-1
EndSplineSet
EndChar

StartChar: dotaccent
Encoding: 729 729 219
Width: 1233
Flags: W
LayerCount: 2
Fore
SplineSet
479 1585 m 1,0,-1
 754 1585 l 1,1,-1
 754 1339 l 1,2,-1
 479 1339 l 1,3,-1
 479 1585 l 1,0,-1
EndSplineSet
EndChar

StartChar: ring
Encoding: 730 730 220
Width: 1233
Flags: W
LayerCount: 2
Fore
SplineSet
332 1534 m 256,0,1
 332 1652 332 1652 415 1735.5 c 128,-1,2
 498 1819 498 1819 616 1819 c 0,3,4
 735 1819 735 1819 818 1735.5 c 128,-1,5
 901 1652 901 1652 901 1534 c 256,6,7
 901 1416 901 1416 818 1332.5 c 128,-1,8
 735 1249 735 1249 616 1249 c 0,9,10
 498 1249 498 1249 415 1332.5 c 128,-1,11
 332 1416 332 1416 332 1534 c 256,0,1
485 1534 m 0,12,13
 485 1479 485 1479 523.5 1441 c 128,-1,14
 562 1403 562 1403 616 1403 c 0,15,16
 671 1403 671 1403 709.5 1441.5 c 128,-1,17
 748 1480 748 1480 748 1534 c 256,18,19
 748 1588 748 1588 709 1626.5 c 128,-1,20
 670 1665 670 1665 616 1665 c 256,21,22
 562 1665 562 1665 523.5 1626.5 c 128,-1,23
 485 1588 485 1588 485 1534 c 0,12,13
EndSplineSet
EndChar

StartChar: cedilla
Encoding: 184 184 221
Width: 1233
Flags: W
LayerCount: 2
Fore
SplineSet
707 0 m 1,0,1
 764 -62 764 -62 791.5 -115 c 128,-1,2
 819 -168 819 -168 819 -215 c 0,3,4
 819 -310 819 -310 757.5 -355.5 c 128,-1,5
 696 -401 696 -401 569 -401 c 0,6,7
 521 -401 521 -401 470.5 -394.5 c 128,-1,8
 420 -388 420 -388 367 -375 c 1,9,-1
 367 -219 l 1,10,11
 412 -236 412 -236 454 -245 c 128,-1,12
 496 -254 496 -254 532 -254 c 0,13,14
 590 -254 590 -254 622.5 -231 c 128,-1,15
 655 -208 655 -208 655 -168 c 0,16,17
 655 -142 655 -142 634 -101 c 128,-1,18
 613 -60 613 -60 567 0 c 1,19,-1
 707 0 l 1,0,1
EndSplineSet
EndChar

StartChar: hungarumlaut
Encoding: 733 733 222
Width: 1233
Flags: W
LayerCount: 2
Fore
SplineSet
854 1638 m 1,0,-1
 1085 1638 l 1,1,-1
 813 1262 l 1,2,-1
 639 1262 l 1,3,-1
 854 1638 l 1,0,-1
492 1638 m 1,4,-1
 709 1638 l 1,5,-1
 461 1262 l 1,6,-1
 297 1262 l 1,7,-1
 492 1638 l 1,4,-1
EndSplineSet
EndChar

StartChar: ogonek
Encoding: 731 731 223
Width: 1233
Flags: W
LayerCount: 2
Fore
SplineSet
557 0 m 1,0,-1
 698 0 l 1,1,2
 645 -71 645 -71 626.5 -106 c 128,-1,3
 608 -141 608 -141 608 -166 c 0,4,5
 608 -205 608 -205 638.5 -229.5 c 128,-1,6
 669 -254 669 -254 719 -254 c 0,7,8
 757 -254 757 -254 795.5 -246.5 c 128,-1,9
 834 -239 834 -239 874 -223 c 1,10,-1
 874 -379 l 1,11,12
 820 -390 820 -390 772.5 -395.5 c 128,-1,13
 725 -401 725 -401 684 -401 c 0,14,15
 570 -401 570 -401 508 -355 c 128,-1,16
 446 -309 446 -309 446 -223 c 0,17,18
 446 -170 446 -170 473.5 -115.5 c 128,-1,19
 501 -61 501 -61 557 0 c 1,0,-1
EndSplineSet
EndChar

StartChar: caron
Encoding: 711 711 224
Width: 1233
Flags: W
LayerCount: 2
Fore
SplineSet
496 1262 m 1,0,-1
 240 1638 l 1,1,-1
 418 1638 l 1,2,-1
 616 1411 l 1,3,-1
 815 1638 l 1,4,-1
 993 1638 l 1,5,-1
 737 1262 l 1,6,-1
 496 1262 l 1,0,-1
EndSplineSet
EndChar

StartChar: Lslash
Encoding: 321 321 225
Width: 1233
Flags: W
LayerCount: 2
Fore
SplineSet
225 0 m 1,0,-1
 225 537 l 1,1,-1
 74 426 l 1,2,-1
 -39 580 l 1,3,-1
 225 768 l 1,4,-1
 225 1493 l 1,5,-1
 520 1493 l 1,6,-1
 520 973 l 1,7,-1
 795 1167 l 1,8,-1
 907 1014 l 1,9,-1
 520 741 l 1,10,-1
 520 260 l 1,11,-1
 1151 260 l 1,12,-1
 1151 0 l 1,13,-1
 225 0 l 1,0,-1
EndSplineSet
EndChar

StartChar: lslash
Encoding: 322 322 226
Width: 1233
Flags: W
LayerCount: 2
Fore
SplineSet
410 467 m 2,0,-1
 410 633 l 1,1,-1
 137 438 l 1,2,-1
 37 600 l 1,3,-1
 410 864 l 1,4,-1
 410 1331 l 1,5,-1
 115 1331 l 1,6,-1
 115 1556 l 1,7,-1
 702 1556 l 1,8,-1
 702 1071 l 1,9,-1
 997 1280 l 1,10,-1
 1100 1120 l 1,11,-1
 702 840 l 1,12,-1
 702 467 l 2,13,14
 702 335 702 335 743.5 280 c 128,-1,15
 785 225 785 225 883 225 c 2,16,-1
 1116 225 l 1,17,-1
 1116 0 l 1,18,-1
 801 0 l 2,19,20
 592 0 592 0 501 108 c 128,-1,21
 410 216 410 216 410 467 c 2,0,-1
EndSplineSet
EndChar

StartChar: brokenbar
Encoding: 166 166 231
Width: 1233
Flags: W
LayerCount: 2
Fore
SplineSet
729 408 m 1,0,-1
 729 -350 l 1,1,-1
 502 -350 l 1,2,-1
 502 408 l 1,3,-1
 729 408 l 1,0,-1
729 1432 m 1,4,-1
 729 674 l 1,5,-1
 502 674 l 1,6,-1
 502 1432 l 1,7,-1
 729 1432 l 1,4,-1
EndSplineSet
EndChar

StartChar: Eth
Encoding: 208 208 232
Width: 1233
Flags: W
LayerCount: 2
Fore
SplineSet
432 1227 m 1,0,-1
 432 901 l 1,1,-1
 643 901 l 1,2,-1
 643 664 l 1,3,-1
 432 664 l 1,4,-1
 432 266 l 1,5,-1
 512 266 l 2,6,7
 686 266 686 266 760 375.5 c 128,-1,8
 834 485 834 485 834 748 c 0,9,10
 834 1009 834 1009 760 1118 c 128,-1,11
 686 1227 686 1227 512 1227 c 2,12,-1
 432 1227 l 1,0,-1
137 1493 m 1,13,-1
 453 1493 l 2,14,15
 819 1493 819 1493 980 1318.5 c 128,-1,16
 1141 1144 1141 1144 1141 748 c 0,17,18
 1141 351 1141 351 980 175.5 c 128,-1,19
 819 0 819 0 453 0 c 2,20,-1
 137 0 l 1,21,-1
 137 664 l 1,22,-1
 0 664 l 1,23,-1
 0 901 l 1,24,-1
 137 901 l 1,25,-1
 137 1493 l 1,13,-1
EndSplineSet
EndChar

StartChar: eth
Encoding: 240 240 233
Width: 1233
Flags: W
LayerCount: 2
Fore
SplineSet
811 760 m 1,0,1
 762 787 762 787 713 801 c 128,-1,2
 664 815 664 815 616 815 c 0,3,4
 511 815 511 815 450 742.5 c 128,-1,5
 389 670 389 670 389 545 c 0,6,7
 389 387 389 387 448.5 298 c 128,-1,8
 508 209 508 209 612 209 c 0,9,10
 721 209 721 209 778.5 299.5 c 128,-1,11
 836 390 836 390 836 563 c 0,12,13
 836 608 836 608 829.5 657 c 128,-1,14
 823 706 823 706 811 760 c 1,0,1
940 1100 m 2,15,16
 1040 963 1040 963 1083 836.5 c 128,-1,17
 1126 710 1126 710 1126 559 c 0,18,19
 1126 283 1126 283 990 127 c 128,-1,20
 854 -29 854 -29 612 -29 c 0,21,22
 376 -29 376 -29 237 124 c 128,-1,23
 98 277 98 277 98 537 c 0,24,25
 98 773 98 773 228 913 c 128,-1,26
 358 1053 358 1053 575 1053 c 0,27,28
 615 1053 615 1053 646.5 1047 c 128,-1,29
 678 1041 678 1041 705 1028 c 1,30,-1
 545 1247 l 1,31,-1
 233 1128 l 1,32,-1
 178 1245 l 1,33,-1
 461 1354 l 1,34,-1
 303 1556 l 1,35,-1
 596 1556 l 1,36,-1
 688 1440 l 1,37,-1
 985 1567 l 1,38,-1
 1051 1444 l 1,39,-1
 774 1327 l 1,40,-1
 940 1100 l 2,15,16
EndSplineSet
EndChar

StartChar: Thorn
Encoding: 222 222 236
Width: 1233
Flags: W
LayerCount: 2
Fore
SplineSet
457 1014 m 1,0,-1
 457 575 l 1,1,-1
 578 575 l 2,2,3
 724 575 724 575 782 624 c 128,-1,4
 840 673 840 673 840 793 c 0,5,6
 840 914 840 914 781.5 964 c 128,-1,7
 723 1014 723 1014 578 1014 c 2,8,-1
 457 1014 l 1,0,-1
162 1493 m 1,9,-1
 457 1493 l 1,10,-1
 457 1255 l 1,11,-1
 567 1255 l 2,12,13
 876 1255 876 1255 1011.5 1145.5 c 128,-1,14
 1147 1036 1147 1036 1147 788 c 0,15,16
 1147 549 1147 549 1010 440.5 c 128,-1,17
 873 332 873 332 567 332 c 2,18,-1
 457 332 l 1,19,-1
 457 0 l 1,20,-1
 162 0 l 1,21,-1
 162 1493 l 1,9,-1
EndSplineSet
EndChar

StartChar: thorn
Encoding: 254 254 237
Width: 1233
Flags: W
LayerCount: 2
Fore
SplineSet
442 158 m 1,0,-1
 442 -426 l 1,1,-1
 150 -426 l 1,2,-1
 150 1556 l 1,3,-1
 442 1556 l 1,4,-1
 442 952 l 1,5,6
 488 1049 488 1049 563 1098 c 128,-1,7
 638 1147 638 1147 739 1147 c 0,8,9
 931 1147 931 1147 1037 993 c 128,-1,10
 1143 839 1143 839 1143 559 c 0,11,12
 1143 275 1143 275 1035.5 123 c 128,-1,13
 928 -29 928 -29 729 -29 c 0,14,15
 639 -29 639 -29 567.5 17.5 c 128,-1,16
 496 64 496 64 442 158 c 1,0,-1
850 561 m 256,17,18
 850 723 850 723 796 815 c 128,-1,19
 742 907 742 907 647 907 c 256,20,21
 552 907 552 907 497 815 c 128,-1,22
 442 723 442 723 442 561 c 256,23,24
 442 399 442 399 497 307 c 128,-1,25
 552 215 552 215 647 215 c 256,26,27
 742 215 742 215 796 307 c 128,-1,28
 850 399 850 399 850 561 c 256,17,18
EndSplineSet
EndChar

StartChar: minus
Encoding: 8722 8722 238
Width: 1724
VWidth: 2220
Flags: HW
LayerCount: 2
Fore
SplineSet
258 460 m 2,1,2
 240.658 460 240.658 460 227.342 460.701 c 128,-1,3
 214.025 461.401 214.025 461.401 189.499 468.948 c 128,-1,4
 164.972 476.495 164.972 476.495 148.986 499.859 c 128,-1,5
 133 523.223 133 523.223 133 555 c 128,-1,6
 133 586.777 133 586.777 148.985 610.141 c 128,-1,7
 164.971 633.505 164.971 633.505 189.462 641.041 c 128,-1,8
 213.954 648.576 213.954 648.576 226.77 649.288 c 128,-1,9
 239.586 650 239.586 650 258 650 c 2,10,-1
 1467 650 l 2,11,12
 1484.34 650 1484.34 650 1497.66 649.299 c 128,-1,13
 1510.97 648.599 1510.97 648.599 1535.5 641.052 c 128,-1,14
 1560.03 633.505 1560.03 633.505 1576.01 610.142 c 128,-1,15
 1592 586.778 1592 586.778 1592 555 c 128,-1,16
 1592 523.223 1592 523.223 1576.01 499.859 c 128,-1,17
 1560.03 476.495 1560.03 476.495 1535.5 468.948 c 128,-1,18
 1510.97 461.401 1510.97 461.401 1497.66 460.701 c 128,-1,19
 1484.34 460 1484.34 460 1467 460 c 2,0,-1
 258 460 l 2,1,2
EndSplineSet
EndChar

StartChar: multiply
Encoding: 215 215 239
Width: 1928
VWidth: 2220
Flags: W
LayerCount: 2
Fore
SplineSet
1559.1 183.084 m 2,0,1
 1581.63 156.012 1581.63 156.012 1592.32 134.899 c 128,-1,2
 1603 113.786 1603 113.786 1603 73.0205 c 1,3,4
 1601.75 65.6484 1601.75 65.6484 1600.31 56.0703 c 0,5,6
 1598.87 48.0078 1598.87 48.0078 1598.32 45.3682 c 0,7,8
 1597.77 44.292 1597.77 44.292 1596.34 42.5068 c 0,9,10
 1594.91 43.7432 1594.91 43.7432 1592.95 44.6289 c 0,11,12
 1590.99 42.4541 1590.99 42.4541 1587.46 39.1562 c 0,13,14
 1582.29 33.833 1582.29 33.833 1565.21 26.9165 c 128,-1,15
 1548.12 20 1548.12 20 1507 20 c 1,16,-1
 1477.26 24.6436 l 1,17,18
 1450.59 30.8447 1450.59 30.8447 1421.94 49 c 2,19,-1
 962.776 420.875 l 1,20,-1
 504.062 49 l 2,21,22
 481.492 30.7539 481.492 30.7539 465.467 25.377 c 128,-1,23
 449.441 20 449.441 20 422 20 c 0,24,25
 421.275 20.1143 421.275 20.1143 415.322 20.4316 c 128,-1,26
 409.37 20.6934 409.37 20.6934 403.643 21.2471 c 0,27,28
 397.915 21.5654 397.915 21.5654 388.485 22.9072 c 0,29,30
 379.055 24.5654 379.055 24.5654 370.064 27.3135 c 0,31,32
 362.874 30.9424 362.874 30.9424 344.437 41.9146 c 128,-1,33
 326 52.8867 326 52.8867 326 73.7451 c 0,34,35
 326.904 77.7305 326.904 77.7305 328.035 83.7734 c 0,36,37
 329.166 91.3701 329.166 91.3701 329.982 96.2891 c 0,38,39
 330.8 106.918 330.8 106.918 331.491 111.312 c 0,40,41
 341.28 146.892 341.28 146.892 369.938 185.125 c 2,42,-1
 806.43 555.081 l 1,43,-1
 369.896 926.916 l 2,44,45
 349.851 950.571 349.851 950.571 337.925 974.378 c 128,-1,46
 326 998.186 326 998.186 326 1046 c 0,47,48
 326 1058.91 326 1058.91 344.021 1068 c 129,-1,49
 362.043 1077.09 362.043 1077.09 369.271 1081.16 c 0,50,51
 376.498 1085.65 376.498 1085.65 378.938 1087.09 c 0,52,53
 381.377 1087.64 381.377 1087.64 385.727 1088.44 c 0,54,55
 390.076 1087.99 390.076 1087.99 393.833 1087.79 c 0,56,57
 397.59 1088.43 397.59 1088.43 403.686 1089.19 c 0,58,59
 412.7 1090 412.7 1090 422 1090 c 0,60,61
 449.979 1090 449.979 1090 465.843 1084.85 c 128,-1,62
 481.707 1079.71 481.707 1079.71 504.458 1060.47 c 2,63,-1
 966.085 689.004 l 1,64,-1
 1424.94 1061 l 2,65,66
 1445.02 1077.57 1445.02 1077.57 1461.92 1083.79 c 128,-1,67
 1478.81 1090 1478.81 1090 1507 1090 c 1,68,69
 1514.09 1088.98 1514.09 1088.98 1522.91 1087.86 c 0,70,71
 1531.72 1086.49 1531.72 1086.49 1534.77 1085.96 c 0,72,73
 1537.82 1085.73 1537.82 1085.73 1542.61 1085.17 c 0,74,75
 1547.4 1085.55 1547.4 1085.55 1550.93 1086.06 c 0,76,77
 1554.46 1084.86 1554.46 1084.86 1559.76 1082.69 c 0,78,79
 1567.21 1081.62 1567.21 1081.62 1572.61 1078.65 c 129,-1,80
 1578 1075.69 1578 1075.69 1583.54 1070.07 c 0,81,82
 1589.08 1063.46 1589.08 1063.46 1590.83 1061.24 c 0,83,84
 1592.58 1060.3 1592.58 1060.3 1595.1 1058.6 c 0,85,86
 1597.63 1059.88 1597.63 1059.88 1598.75 1060.99 c 0,87,88
 1599.88 1058.58 1599.88 1058.58 1601.15 1054.69 c 0,89,90
 1603 1050.44 1603 1050.44 1603 1046 c 0,91,92
 1603 999.464 1603 999.464 1592.32 976.726 c 128,-1,93
 1581.63 953.988 1581.63 953.988 1559.1 926.916 c 2,94,-1
 1122.48 555 l 1,95,-1
 1559.1 183.084 l 2,0,1
EndSplineSet
EndChar

StartChar: uni00B9
Encoding: 185 185 240
Width: 1233
Flags: W
LayerCount: 2
Fore
SplineSet
313 813 m 1,0,-1
 539 813 l 1,1,-1
 539 1356 l 1,2,-1
 319 1313 l 1,3,-1
 319 1462 l 1,4,-1
 541 1503 l 1,5,-1
 735 1503 l 1,6,-1
 735 813 l 1,7,-1
 961 813 l 1,8,-1
 961 668 l 1,9,-1
 313 668 l 1,10,-1
 313 813 l 1,0,-1
EndSplineSet
EndChar

StartChar: uni00B2
Encoding: 178 178 241
Width: 1233
Flags: W
LayerCount: 2
Fore
SplineSet
500 813 m 1,0,-1
 940 813 l 1,1,-1
 940 668 l 1,2,-1
 274 668 l 1,3,-1
 274 809 l 1,4,5
 325 852 325 852 415 927 c 0,6,7
 729 1189 729 1189 729 1268 c 0,8,9
 729 1320 729 1320 685.5 1350 c 128,-1,10
 642 1380 642 1380 567 1380 c 0,11,12
 511 1380 511 1380 443.5 1362.5 c 128,-1,13
 376 1345 376 1345 299 1311 c 1,14,-1
 299 1475 l 1,15,16
 374 1497 374 1497 445 1508.5 c 128,-1,17
 516 1520 516 1520 582 1520 c 0,18,19
 751 1520 751 1520 844.5 1457.5 c 128,-1,20
 938 1395 938 1395 938 1284 c 0,21,22
 938 1158 938 1158 583 878 c 0,23,24
 529 836 529 836 500 813 c 1,0,-1
EndSplineSet
EndChar

StartChar: uni00B3
Encoding: 179 179 242
Width: 1233
Flags: W
LayerCount: 2
Fore
SplineSet
582 1042 m 2,0,-1
 471 1042 l 1,1,-1
 471 1188 l 1,2,-1
 582 1188 l 2,3,4
 656 1188 656 1188 698.5 1213 c 128,-1,5
 741 1238 741 1238 741 1282 c 0,6,7
 741 1327 741 1327 701.5 1352.5 c 128,-1,8
 662 1378 662 1378 592 1378 c 0,9,10
 523 1378 523 1378 454 1367 c 128,-1,11
 385 1356 385 1356 317 1333 c 1,12,-1
 317 1485 l 1,13,14
 386 1502 386 1502 455.5 1511 c 128,-1,15
 525 1520 525 1520 592 1520 c 0,16,17
 754 1520 754 1520 846 1462 c 128,-1,18
 938 1404 938 1404 938 1303 c 0,19,20
 938 1230 938 1230 885.5 1183 c 128,-1,21
 833 1136 833 1136 735 1120 c 1,22,23
 846 1105 846 1105 904.5 1049 c 128,-1,24
 963 993 963 993 963 901 c 0,25,26
 963 780 963 780 866.5 716.5 c 128,-1,27
 770 653 770 653 586 653 c 0,28,29
 511 653 511 653 436 663.5 c 128,-1,30
 361 674 361 674 287 694 c 1,31,-1
 287 848 l 1,32,33
 354 821 354 821 430 807 c 128,-1,34
 506 793 506 793 586 793 c 0,35,36
 671 793 671 793 718.5 825 c 128,-1,37
 766 857 766 857 766 913 c 0,38,39
 766 974 766 974 717 1008 c 128,-1,40
 668 1042 668 1042 582 1042 c 2,0,-1
EndSplineSet
EndChar

StartChar: dcroat
Encoding: 273 273 255
Width: 1233
Flags: W
LayerCount: 2
Fore
SplineSet
791 961 m 1,0,-1
 791 1251 l 1,1,-1
 485 1251 l 1,2,-1
 485 1440 l 1,3,-1
 791 1440 l 1,4,-1
 791 1556 l 1,5,-1
 1083 1556 l 1,6,-1
 1083 1440 l 1,7,-1
 1229 1440 l 1,8,-1
 1229 1251 l 1,9,-1
 1083 1251 l 1,10,-1
 1083 0 l 1,11,-1
 791 0 l 1,12,-1
 791 166 l 1,13,14
 744 69 744 69 669.5 20 c 128,-1,15
 595 -29 595 -29 494 -29 c 0,16,17
 302 -29 302 -29 196 125 c 128,-1,18
 90 279 90 279 90 559 c 0,19,20
 90 843 90 843 197.5 995 c 128,-1,21
 305 1147 305 1147 504 1147 c 0,22,23
 594 1147 594 1147 665.5 1100.5 c 128,-1,24
 737 1054 737 1054 791 961 c 1,0,-1
383 557 m 256,25,26
 383 395 383 395 437 303 c 128,-1,27
 491 211 491 211 586 211 c 256,28,29
 681 211 681 211 736 303 c 128,-1,30
 791 395 791 395 791 557 c 256,31,32
 791 719 791 719 736 811 c 128,-1,33
 681 903 681 903 586 903 c 256,34,35
 491 903 491 903 437 811 c 128,-1,36
 383 719 383 719 383 557 c 256,25,26
EndSplineSet
EndChar

StartChar: uni00AD
Encoding: 173 173 256
Width: 1233
Flags: W
LayerCount: 2
Fore
SplineSet
301 735 m 1,0,-1
 932 735 l 1,1,-1
 932 444 l 1,2,-1
 301 444 l 1,3,-1
 301 735 l 1,0,-1
EndSplineSet
EndChar

StartChar: uni2219
Encoding: 8729 8729 257
Width: 1110
VWidth: 2220
Flags: HW
LayerCount: 2
Fore
SplineSet
970.805 315.74 m 128,-1,2
 907.61 205.01 907.61 205.01 796.297 139.005 c 128,-1,3
 684.984 73 684.984 73 553 73 c 0,4,5
 456.35 73 456.35 73 368.104 111.538 c 128,-1,6
 279.859 150.075 279.859 150.075 214.97 214.405 c 128,-1,7
 150.08 278.735 150.08 278.735 111.54 368.104 c 128,-1,8
 73 457.472 73 457.472 73 555 c 0,9,10
 73 683.633 73 683.633 136.739 794.338 c 128,-1,11
 200.479 905.043 200.479 905.043 311.747 971.021 c 128,-1,12
 423.016 1037 423.016 1037 555 1037 c 0,13,14
 651.65 1037 651.65 1037 739.896 998.462 c 128,-1,15
 828.141 959.925 828.141 959.925 893.08 895.546 c 128,-1,16
 958.02 831.167 958.02 831.167 996.01 741.777 c 128,-1,17
 1034 652.388 1034 652.388 1034 555 c 0,0,1
 1034 426.471 1034 426.471 970.805 315.74 c 128,-1,2
EndSplineSet
EndChar

StartChar: Euro
Encoding: 8364 8364 258
Width: 1233
Flags: W
LayerCount: 2
Fore
SplineSet
209 1010 m 1,0,1
 253 1260 253 1260 399 1390 c 128,-1,2
 545 1520 545 1520 780 1520 c 0,3,4
 863 1520 863 1520 936 1502 c 128,-1,5
 1009 1484 1009 1484 1077 1448 c 1,6,-1
 1077 1120 l 1,7,8
 1003 1198 1003 1198 933 1234 c 128,-1,9
 863 1270 863 1270 786 1270 c 0,10,11
 679 1270 679 1270 609 1204.5 c 128,-1,12
 539 1139 539 1139 508 1010 c 1,13,-1
 950 1010 l 1,14,-1
 866 821 l 1,15,-1
 484 821 l 1,16,17
 482 805 482 805 481.5 787 c 128,-1,18
 481 769 481 769 481 733 c 0,19,20
 481 719 481 719 481.5 703 c 128,-1,21
 482 687 482 687 483 670 c 1,22,-1
 799 670 l 1,23,-1
 715 483 l 1,24,-1
 508 483 l 1,25,26
 532 356 532 356 603.5 288.5 c 128,-1,27
 675 221 675 221 784 221 c 0,28,29
 862 221 862 221 932.5 257 c 128,-1,30
 1003 293 1003 293 1077 371 c 1,31,-1
 1077 43 l 1,32,33
 1011 7 1011 7 937.5 -11 c 128,-1,34
 864 -29 864 -29 780 -29 c 0,35,36
 545 -29 545 -29 399 102 c 128,-1,37
 253 233 253 233 209 483 c 1,38,-1
 6 483 l 1,39,-1
 90 670 l 1,40,-1
 186 670 l 1,41,42
 185 684 185 684 184.5 699.5 c 128,-1,43
 184 715 184 715 184 745 c 0,44,45
 184 774 184 774 184.5 790 c 128,-1,46
 185 806 185 806 186 821 c 1,47,-1
 6 821 l 1,48,-1
 90 1010 l 1,49,-1
 209 1010 l 1,0,1
EndSplineSet
EndChar

StartChar: u10003
Encoding: 65539 65539 259
Width: 1233
Flags: W
LayerCount: 2
Fore
SplineSet
696 1526 m 1,0,-1
 932 1526 l 1,1,-1
 932 1280 l 1,2,-1
 696 1280 l 1,3,-1
 696 1526 l 1,0,-1
301 1526 m 1,4,-1
 537 1526 l 1,5,-1
 537 1280 l 1,6,-1
 301 1280 l 1,7,-1
 301 1526 l 1,4,-1
EndSplineSet
EndChar

StartChar: u10004
Encoding: 65540 65540 260
Width: 1233
Flags: W
LayerCount: 2
Fore
SplineSet
668 1526 m 1,0,-1
 952 1526 l 1,1,-1
 666 1262 l 1,2,-1
 469 1262 l 1,3,-1
 668 1526 l 1,0,-1
EndSplineSet
EndChar

StartChar: u10005
Encoding: 65541 65541 261
Width: 1233
Flags: W
LayerCount: 2
Fore
SplineSet
618 1311 m 2,0,-1
 564 1345 l 2,1,2
 559 1348 559 1348 552 1352 c 0,3,4
 507 1378 507 1378 479 1378 c 0,5,6
 448 1378 448 1378 428 1348 c 128,-1,7
 408 1318 408 1318 408 1268 c 2,8,-1
 408 1262 l 1,9,-1
 268 1262 l 1,10,-1
 268 1292 l 2,11,12
 268 1398 268 1398 322.5 1463 c 128,-1,13
 377 1528 377 1528 465 1528 c 0,14,15
 501 1528 501 1528 538.5 1515.5 c 128,-1,16
 576 1503 576 1503 614 1479 c 2,17,-1
 674 1440 l 2,18,19
 695 1426 695 1426 714.5 1418.5 c 128,-1,20
 734 1411 734 1411 750 1411 c 0,21,22
 786 1411 786 1411 805.5 1441 c 128,-1,23
 825 1471 825 1471 825 1528 c 1,24,-1
 965 1528 l 1,25,26
 965 1523 965 1523 964 1513 c 128,-1,27
 963 1503 963 1503 963 1497 c 0,28,29
 963 1391 963 1391 909.5 1326.5 c 128,-1,30
 856 1262 856 1262 768 1262 c 0,31,32
 731 1262 731 1262 695.5 1273 c 128,-1,33
 660 1284 660 1284 618 1311 c 2,0,-1
EndSplineSet
EndChar

StartChar: u10006
Encoding: 65542 65542 262
Width: 1233
Flags: W
LayerCount: 2
Fore
SplineSet
567 1526 m 1,0,-1
 766 1262 l 1,1,-1
 569 1262 l 1,2,-1
 283 1526 l 1,3,-1
 567 1526 l 1,0,-1
EndSplineSet
EndChar

StartChar: u10007
Encoding: 65543 65543 263
Width: 1233
Flags: W
LayerCount: 2
Fore
SplineSet
461 1526 m 1,0,-1
 770 1526 l 1,1,-1
 993 1262 l 1,2,-1
 815 1262 l 1,3,-1
 616 1423 l 1,4,-1
 418 1262 l 1,5,-1
 240 1262 l 1,6,-1
 461 1526 l 1,0,-1
EndSplineSet
EndChar

StartChar: u10008
Encoding: 65544 65544 264
Width: 1233
Flags: W
LayerCount: 2
Fore
SplineSet
461 1262 m 1,0,-1
 240 1526 l 1,1,-1
 418 1526 l 1,2,-1
 616 1364 l 1,3,-1
 815 1526 l 1,4,-1
 993 1526 l 1,5,-1
 770 1262 l 1,6,-1
 461 1262 l 1,0,-1
EndSplineSet
EndChar

StartChar: u10009
Encoding: 65545 65545 265
Width: 1233
Flags: W
LayerCount: 2
Fore
SplineSet
84 500 m 1,0,-1
 47 618 l 1,1,-1
 1106 881 l 1,2,-1
 1143 762 l 1,3,-1
 84 500 l 1,0,-1
EndSplineSet
EndChar

StartChar: u1000A
Encoding: 65546 65546 266
Width: 1233
Flags: W
LayerCount: 2
Fore
SplineSet
639 1321 m 1,0,-1
 389 991 l 1,1,-1
 639 991 l 1,2,-1
 639 1321 l 1,0,-1
621 1503 m 1,3,-1
 825 1503 l 1,4,-1
 825 991 l 1,5,-1
 934 991 l 1,6,-1
 934 848 l 1,7,-1
 825 848 l 1,8,-1
 825 668 l 1,9,-1
 639 668 l 1,10,-1
 639 848 l 1,11,-1
 246 848 l 1,12,-1
 246 1010 l 1,13,-1
 621 1503 l 1,3,-1
EndSplineSet
EndChar

StartChar: u1000B
Encoding: 65547 65547 267
Width: 1233
Flags: W
LayerCount: 2
Fore
SplineSet
281 1526 m 1,0,-1
 422 1526 l 1,1,2
 442 1466 442 1466 491 1435.5 c 128,-1,3
 540 1405 540 1405 616 1405 c 0,4,5
 693 1405 693 1405 741 1435 c 128,-1,6
 789 1465 789 1465 809 1526 c 1,7,-1
 952 1526 l 1,8,9
 937 1397 937 1397 850.5 1329.5 c 128,-1,10
 764 1262 764 1262 616 1262 c 0,11,12
 469 1262 469 1262 382.5 1329.5 c 128,-1,13
 296 1397 296 1397 281 1526 c 1,0,-1
EndSplineSet
EndChar

StartChar: u1000C
Encoding: 65548 65548 268
Width: 1233
Flags: W
LayerCount: 2
Fore
SplineSet
479 1526 m 1,0,-1
 754 1526 l 1,1,-1
 754 1280 l 1,2,-1
 479 1280 l 1,3,-1
 479 1526 l 1,0,-1
EndSplineSet
EndChar

StartChar: Alpha
Encoding: 913 913 269
Width: 1869
VWidth: 2220
Flags: W
LayerCount: 2
Fore
SplineSet
1057.5 626 m 1,0,-1
 862.305 1140.33 l 1,1,-1
 668.669 626 l 1,2,-1
 1057.5 626 l 1,0,-1
1042.82 1511.79 m 2,3,-1
 1564.23 221.72 l 2,4,5
 1574.38 197.209 1574.38 197.209 1581.81 189.1 c 1,6,-1
 1585.78 185.758 l 2,7,8
 1589.75 182.417 1589.75 182.417 1598.75 179.577 c 0,9,10
 1604.26 177.838 1604.26 177.838 1622.65 174.419 c 128,-1,11
 1641.05 171 1641.05 171 1705 171 c 2,12,-1
 1796 171 l 1,13,-1
 1796 -2.61328 l 1,14,-1
 1742.45 0.0634766 l 2,15,16
 1603.73 6.99805 1603.73 6.99805 1445.32 7 c 0,17,18
 1186.12 7 1186.12 7 1101.32 0.194336 c 2,19,-1
 1040.88 -4.65723 l 1,20,-1
 1040.88 171 l 1,21,-1
 1096.48 171 l 2,22,23
 1119.43 171 1119.43 171 1133.32 171.399 c 128,-1,24
 1147.2 171.8 1147.2 171.8 1171.26 172.922 c 128,-1,25
 1195.33 174.045 1195.33 174.045 1210.15 177.19 c 128,-1,26
 1224.98 180.335 1224.98 180.335 1234.18 183.068 c 0,27,28
 1239.27 184.58 1239.27 184.58 1241.89 185.473 c 1,29,-1
 1237.29 197.666 l 1,30,-1
 1122.33 455 l 1,31,-1
 603.911 455 l 1,32,-1
 504.927 235.607 l 2,33,34
 503.484 233.09 503.484 233.09 503.412 222.661 c 0,35,36
 503.333 210.84 503.333 210.84 515.173 200.245 c 0,37,38
 520.81 195.201 520.81 195.201 541.558 183.101 c 128,-1,39
 562.305 171 562.305 171 629.894 171 c 2,40,-1
 685.491 171 l 1,41,-1
 685.491 -1.70312 l 1,42,-1
 628.068 0.0273438 l 2,43,44
 396.779 6.99707 396.779 6.99707 350.816 7 c 0,45,46
 276.166 7 276.166 7 124.331 0.0537109 c 2,47,-1
 71 -2.38672 l 1,48,-1
 71 159.074 l 1,49,-1
 120.948 160.04 l 2,50,51
 205.689 161.677 205.689 161.677 253.145 185.531 c 128,-1,52
 300.6 209.387 300.6 209.387 323.446 267.722 c 2,53,-1
 823.726 1510.68 l 1,54,55
 833.95 1533.82 833.95 1533.82 834.257 1534.4 c 0,56,57
 837.354 1540.26 837.354 1540.26 840.68 1545.38 c 0,58,59
 844.423 1551.14 844.423 1551.14 848.519 1556.04 c 0,60,61
 853.324 1561.8 853.324 1561.8 857.212 1564.72 c 128,-1,62
 861.1 1567.64 861.1 1567.64 869.878 1572.42 c 2,63,-1
 886.333 1581.12 l 2,64,65
 894.011 1585.04 894.011 1585.04 896.735 1585.74 c 0,66,67
 913.342 1590 913.342 1590 934.045 1590 c 0,68,69
 956.223 1590 956.223 1590 978.345 1584.03 c 128,-1,70
 1000.47 1578.06 1000.47 1578.06 1013.42 1561.87 c 128,-1,71
 1026.36 1545.67 1026.36 1545.67 1030.57 1537.95 c 128,-1,72
 1034.78 1530.22 1034.78 1530.22 1042.82 1511.79 c 2,3,-1
EndSplineSet
EndChar

StartChar: Beta
Encoding: 914 914 270
Width: 1775
VWidth: 2220
Flags: W
LayerCount: 2
Fore
SplineSet
687.217 171 m 2,0,-1
 993.182 171 l 2,1,2
 1056.49 171 1056.49 171 1109.99 186.533 c 128,-1,3
 1163.49 202.066 1163.49 202.066 1200.54 228.124 c 128,-1,4
 1237.58 254.183 1237.58 254.183 1264.52 288.592 c 128,-1,5
 1291.45 323.001 1291.45 323.001 1304.14 359.928 c 128,-1,6
 1316.82 396.854 1316.82 396.854 1316.82 434.231 c 0,7,8
 1316.82 471.002 1316.82 471.002 1306.2 509.344 c 128,-1,9
 1295.58 547.685 1295.58 547.685 1271.57 585.431 c 128,-1,10
 1247.56 623.177 1247.56 623.177 1215.1 650.795 c 128,-1,11
 1182.64 678.414 1182.64 678.414 1134.03 695.707 c 128,-1,12
 1085.41 713 1085.41 713 1027.42 713 c 2,13,-1
 623.153 713 l 1,14,-1
 623.153 205.731 l 2,15,16
 623.153 180.824 623.153 180.824 623.993 175.557 c 2,17,-1
 624.211 174.225 l 2,18,19
 624.778 174.115 624.778 174.115 626.473 173.724 c 128,-1,20
 628.168 173.331 628.168 173.331 630.04 172.967 c 128,-1,21
 631.913 172.603 631.913 172.603 633.861 172.353 c 0,22,23
 644.372 171 644.372 171 687.217 171 c 2,0,-1
1344.02 797.657 m 1,24,25
 1381.15 784.775 1381.15 784.775 1453.52 747.789 c 0,26,27
 1523.8 710.804 1523.8 710.804 1586.4 622.031 c 128,-1,28
 1649 533.259 1649 533.259 1649 429.312 c 0,29,30
 1649 345.279 1649 345.279 1607.64 267.489 c 128,-1,31
 1566.28 189.698 1566.28 189.698 1495.44 130.826 c 128,-1,32
 1424.61 71.9531 1424.61 71.9531 1313.83 37.2031 c 0,33,34
 1200.82 0 1200.82 0 1071.61 0 c 2,35,-1
 80 0 l 1,36,-1
 80 171 l 1,37,-1
 184 171 l 2,38,39
 219.078 171 219.078 171 245.031 172.803 c 128,-1,40
 270.984 174.604 270.984 174.604 282.932 176.092 c 128,-1,41
 294.879 177.578 294.879 177.578 298.646 179.046 c 2,42,-1
 306.26 183.194 l 1,43,-1
 306.357 183.609 l 2,44,45
 307.506 188.363 307.506 188.363 308.253 195.927 c 128,-1,46
 309 203.49 309 203.49 309 219.764 c 2,47,-1
 309 1296.24 l 2,48,49
 309 1312.51 309 1312.51 308.253 1320.07 c 128,-1,50
 307.506 1327.64 307.506 1327.64 306.36 1332.38 c 2,51,-1
 306.041 1334.48 l 2,52,53
 305.854 1333.4 305.854 1333.4 301.74 1335.45 c 0,54,55
 296.787 1337.93 296.787 1337.93 291.494 1339.03 c 0,56,57
 288.844 1339.59 288.844 1339.59 278.756 1341.01 c 128,-1,58
 268.669 1342.44 268.669 1342.44 244.113 1343.72 c 128,-1,59
 219.558 1345 219.558 1345 184 1345 c 2,60,-1
 80 1345 l 1,61,-1
 80 1516 l 1,62,-1
 1007.54 1516 l 2,63,64
 1132.75 1516 1132.75 1516 1245.28 1481.68 c 0,65,66
 1357.81 1449.62 1357.81 1449.62 1433.07 1395.34 c 0,67,68
 1504.03 1341.07 1504.03 1341.07 1546.52 1268.14 c 128,-1,69
 1589 1195.21 1589 1195.21 1589 1115.83 c 0,70,71
 1589 980.3 1589 980.3 1502.94 904.992 c 128,-1,72
 1416.89 829.686 1416.89 829.686 1344.02 797.657 c 1,24,25
623.153 1311.55 m 2,73,-1
 623.153 864 l 1,74,-1
 922.49 864 l 2,75,76
 991.556 864 991.556 864 1048.53 884.208 c 128,-1,77
 1105.5 904.417 1105.5 904.417 1143.04 936.66 c 128,-1,78
 1180.59 968.904 1180.59 968.904 1207.38 1010.87 c 128,-1,79
 1234.17 1052.83 1234.17 1052.83 1246.22 1096.15 c 128,-1,80
 1258.28 1139.47 1258.28 1139.47 1258.28 1181.65 c 0,81,82
 1258.28 1217.23 1258.28 1217.23 1249.41 1256 c 0,83,84
 1240.54 1271.82 1240.54 1271.82 1219.42 1288.33 c 128,-1,85
 1198.3 1304.83 1198.3 1304.83 1169.36 1317.09 c 128,-1,86
 1140.43 1329.35 1140.43 1329.35 1094.49 1337.18 c 128,-1,87
 1048.56 1345 1048.56 1345 990.973 1345 c 2,88,-1
 687.217 1345 l 2,89,90
 646.299 1345 646.299 1345 634.587 1343.88 c 0,91,92
 632.166 1343.66 632.166 1343.66 628.739 1343.39 c 128,-1,93
 625.312 1343.13 625.312 1343.13 624.248 1343.01 c 0,94,95
 624.171 1342.13 624.171 1342.13 623.852 1340.31 c 0,96,97
 623.153 1336.3 623.153 1336.3 623.153 1311.55 c 2,73,-1
EndSplineSet
EndChar

StartChar: Gamma
Encoding: 915 915 271
Width: 1591
VWidth: 2220
Flags: W
LayerCount: 2
Fore
SplineSet
73 1510 m 1,0,-1
 1428.07 1510 l 1,1,-1
 1502.71 908 l 1,2,-1
 1344.35 908 l 1,3,-1
 1339.31 953.368 l 2,4,5
 1333.45 1006.09 1333.45 1006.09 1327.19 1044.62 c 128,-1,6
 1320.93 1083.14 1320.93 1083.14 1312.06 1121.45 c 128,-1,7
 1303.18 1159.76 1303.18 1159.76 1293.02 1185.39 c 128,-1,8
 1282.85 1211.02 1282.85 1211.02 1269.8 1234.26 c 128,-1,9
 1256.73 1257.5 1256.73 1257.5 1238.21 1272.09 c 128,-1,10
 1219.69 1286.68 1219.69 1286.68 1194.66 1300.07 c 128,-1,11
 1169.62 1313.45 1169.62 1313.45 1136.11 1321.13 c 128,-1,12
 1102.59 1328.82 1102.59 1328.82 1057.93 1333.91 c 128,-1,13
 1013.26 1339 1013.26 1339 957.437 1339 c 2,14,-1
 700.503 1339 l 2,15,16
 659.691 1339 659.691 1339 649.923 1337.86 c 2,17,-1
 637.378 1336.12 l 1,18,-1
 327.444 694.934 l 1,19,20
 636.55 1329.23 636.55 1329.23 636.55 1304.05 c 2,21,-1
 636.55 208.27 l 2,22,23
 636.55 194.957 636.55 194.957 637.2 190.517 c 0,24,25
 637.454 188.782 637.454 188.782 637.375 188.021 c 0,26,27
 639.987 185.076 639.987 185.076 638.63 185.394 c 2,28,-1
 656.752 180.879 l 2,29,30
 676.844 175.873 676.844 175.873 697.179 174.322 c 128,-1,31
 717.659 172.761 717.659 172.761 747.188 171.88 c 128,-1,32
 776.715 171 776.715 171 814.945 171 c 2,33,-1
 955.193 171 l 1,34,-1
 955.193 -4.65723 l 1,35,-1
 892.984 0.194336 l 2,36,37
 805.715 7 805.715 7 479.473 7 c 0,38,39
 204.284 7 204.284 7 128.559 0.204102 c 2,40,-1
 73 -4.78223 l 1,41,-1
 73 171 l 1,42,-1
 178 171 l 2,43,44
 213.078 171 213.078 171 238.91 172.793 c 128,-1,45
 264.742 174.586 264.742 174.586 276.288 176.06 c 128,-1,46
 287.834 177.532 287.834 177.532 291.524 178.982 c 2,47,-1
 299.26 183.191 l 1,48,-1
 299.357 183.604 l 2,49,50
 300.506 188.357 300.506 188.357 301.253 195.917 c 128,-1,51
 302 203.478 302 203.478 302 219.743 c 2,52,-1
 302 1289.34 l 2,53,54
 302 1305.6 302 1305.6 301.252 1313.16 c 128,-1,55
 300.505 1320.72 300.505 1320.72 299.359 1325.46 c 0,56,57
 299.122 1326.45 299.122 1326.45 298.997 1327.15 c 0,58,59
 297.049 1328.37 297.049 1328.37 294.496 1329.61 c 0,60,61
 290.104 1331.74 290.104 1331.74 285.574 1332.62 c 0,62,63
 283.17 1333.08 283.17 1333.08 272.959 1334.32 c 128,-1,64
 262.748 1335.55 262.748 1335.55 237.912 1337.28 c 128,-1,65
 213.077 1339 213.077 1339 178 1339 c 2,66,-1
 73 1339 l 1,67,-1
 73 1510 l 1,0,-1
EndSplineSet
EndChar

StartChar: Delta
Encoding: 916 916 272
Width: 2053
VWidth: 2220
Flags: W
LayerCount: 2
Fore
SplineSet
1136.63 1522.53 m 1,0,-1
 1930.16 113.069 l 2,1,2
 1942.01 90.8984 1942.01 90.8984 1944.3 83.4805 c 0,3,4
 1947 74.7549 1947 74.7549 1947 66.5801 c 1,5,6
 1944.17 61.7178 1944.17 61.7178 1940.26 50.0391 c 128,-1,7
 1936.36 38.3594 1936.36 38.3594 1932.65 31.2051 c 0,8,9
 1928.95 23.5615 1928.95 23.5615 1916.43 15.0801 c 128,-1,10
 1903.91 6.59863 1903.91 6.59863 1883.44 2.83887 c 0,11,12
 1867.98 0 1867.98 0 1847 0 c 2,13,-1
 204 0 l 1,14,15
 169.036 2.56836 169.036 2.56836 167.564 2.83887 c 0,16,17
 147.127 6.59277 147.127 6.59277 133.168 15.4561 c 128,-1,18
 119.209 24.3193 119.209 24.3193 113.553 35.3936 c 0,19,20
 107.896 45.7559 107.896 45.7559 105.948 52.9863 c 128,-1,21
 104 60.2168 104 60.2168 104 66.8418 c 0,22,23
 104.394 68.1816 104.394 68.1816 107.057 80.3145 c 128,-1,24
 109.72 92.4482 109.72 92.4482 110.78 94.7959 c 0,25,26
 114.615 103.277 114.615 103.277 121.111 113.777 c 2,27,-1
 913.953 1521.78 l 2,28,29
 925.455 1543.05 925.455 1543.05 936.097 1557.26 c 128,-1,30
 946.738 1571.47 946.738 1571.47 971.231 1580.74 c 128,-1,31
 995.724 1590 995.724 1590 1026.04 1590 c 1,32,33
 1060.42 1587.16 1060.42 1587.16 1062.37 1586.75 c 0,34,35
 1086.67 1581.69 1086.67 1581.69 1102.27 1568.12 c 128,-1,36
 1117.87 1554.54 1117.87 1554.54 1136.63 1522.53 c 1,0,-1
1505.82 271 m 1,37,-1
 948.122 1304.81 l 1,38,-1
 389.488 271 l 1,39,-1
 1505.82 271 l 1,37,-1
EndSplineSet
EndChar

